<?xml version="1.0" standalone="no"?>
<!DOCTYPE svg PUBLIC "-//W3C//DTD SVG 20010904//EN"
 "http://www.w3.org/TR/2001/REC-SVG-20010904/DTD/svg10.dtd">
<svg version="1.0" xmlns="http://www.w3.org/2000/svg"
 width="512.000000pt" height="512.000000pt" viewBox="0 0 512.000000 512.000000"
 preserveAspectRatio="xMidYMid meet">
<metadata>
Created by potrace 1.11, written by Peter Selinger 2001-2013
</metadata>
<g transform="translate(0.000000,512.000000) scale(0.100000,-0.100000)"
fill="#000000" stroke="none">
<path d="M97 5095 c-10 -14 -16 -29 -12 -34 3 -5 1 -12 -5 -16 -6 -4 -8 -10
-5 -15 3 -5 1 -11 -5 -15 -17 -11 -39 -72 -33 -94 9 -36 47 -37 91 -1 25 20
56 34 83 37 29 4 54 16 77 37 42 39 71 55 98 56 11 0 43 16 70 36 l49 36 -64
-4 c-61 -4 -81 -15 -93 -49 -2 -5 -12 -10 -23 -12 -33 -6 -55 -19 -50 -27 8
-12 -31 -22 -55 -15 -11 4 -18 11 -14 16 3 6 0 17 -7 25 -6 8 -12 24 -13 37
-1 18 -8 22 -36 25 -28 2 -39 -3 -53 -23z"/>
<path d="M1861 5098 c-5 -13 -8 -24 -6 -26 5 -6 35 11 35 19 0 5 8 9 18 9 14
0 15 2 2 10 -24 16 -40 12 -49 -12z"/>
<path d="M4110 5112 c0 -5 11 -19 24 -31 27 -26 40 -71 20 -71 -7 0 -20 -7
-28 -16 -13 -12 -13 -18 -3 -29 6 -7 17 -9 22 -5 6 5 11 -6 12 -30 2 -22 -2
-42 -7 -45 -16 -10 -12 -28 4 -22 11 4 13 1 9 -11 -6 -15 -5 -15 10 -3 14 11
20 11 32 1 14 -11 19 -7 16 13 -1 8 3 9 41 12 22 2 26 -1 17 -11 -13 -16 -4
-48 11 -39 5 3 10 15 10 26 0 11 5 17 10 14 6 -4 8 -11 5 -16 -9 -14 18 -10
39 6 11 8 16 15 12 15 -5 0 -3 7 4 15 7 9 10 18 7 22 -4 3 -2 14 4 25 6 11 12
29 15 41 2 12 17 40 34 63 34 48 36 54 15 54 -9 0 -12 6 -9 15 5 11 -1 15 -26
15 -17 0 -29 -4 -25 -9 8 -15 -24 -41 -42 -34 -11 4 -14 3 -9 -5 5 -8 -1 -12
-16 -11 -13 0 -17 3 -10 6 6 2 12 9 12 14 0 6 -6 7 -12 3 -9 -5 -9 -3 1 9 7 9
17 15 21 12 5 -3 11 -1 15 5 4 7 -35 10 -114 10 -67 0 -121 -4 -121 -8z m157
-104 c-2 -7 0 -21 5 -31 6 -12 3 -23 -10 -37 -16 -18 -20 -18 -47 -4 -54 28
-59 57 -12 72 45 14 69 14 64 0z"/>
<path d="M4810 5069 c0 -5 -5 -7 -11 -3 -7 4 -10 1 -7 -7 3 -8 -1 -30 -7 -49
-7 -20 -11 -55 -9 -78 3 -33 0 -43 -16 -52 -11 -6 -27 -10 -34 -8 -8 2 -35
-19 -60 -47 l-46 -49 27 -23 c14 -13 32 -23 39 -23 16 0 71 -64 91 -105 16
-33 16 -33 52 -21 42 14 70 10 72 -10 6 -60 18 -104 31 -104 15 0 59 -53 54
-66 -3 -8 7 -15 25 -19 16 -4 29 -11 29 -16 0 -6 4 -8 9 -4 13 7 51 -34 51
-55 0 -9 -8 -24 -18 -33 -21 -20 -37 -22 -26 -5 5 8 2 9 -11 4 -10 -4 -21 -2
-25 4 -4 6 -20 12 -36 13 -27 2 -30 -1 -38 -45 -9 -47 -4 -68 25 -109 14 -18
4 -73 -11 -64 -6 3 -10 1 -10 -5 0 -20 -39 9 -45 33 -4 13 -22 31 -41 42 -19
10 -34 23 -34 29 -1 6 -18 25 -40 41 -31 24 -40 39 -46 74 -7 45 -10 49 -100
126 -37 32 -43 34 -71 23 -26 -10 -36 -8 -78 15 -58 33 -73 34 -84 5 -7 -19
-3 -28 21 -50 16 -16 31 -28 33 -28 2 0 16 -11 31 -25 15 -14 42 -29 61 -34
32 -9 52 -25 137 -107 18 -17 42 -36 54 -43 13 -7 20 -16 17 -22 -4 -5 -2 -9
4 -9 5 0 12 -14 16 -30 6 -26 34 -53 57 -55 3 0 16 -12 28 -27 27 -35 38 -35
36 -1 -1 19 5 29 17 31 19 4 24 -23 6 -34 -7 -4 -1 -15 16 -30 15 -13 31 -21
36 -19 4 3 10 -4 14 -15 3 -11 11 -20 16 -20 6 0 7 -4 4 -10 -5 -9 1 -12 21
-9 4 0 10 -4 13 -9 3 -5 21 -13 38 -16 l32 -7 0 100 c0 55 -4 103 -10 106 -5
4 -9 1 -9 -6 0 -7 -6 -5 -13 6 -11 14 -16 15 -22 5 -6 -9 -4 -11 6 -5 12 7 12
5 1 -6 -11 -12 -14 -12 -21 0 -5 8 -16 11 -25 8 -12 -5 -16 0 -16 18 0 13 4
26 9 29 5 4 8 17 6 31 -1 16 3 25 11 25 8 0 14 -6 14 -14 0 -8 7 -22 16 -30 8
-9 13 -20 10 -25 -3 -5 1 -11 9 -15 9 -3 15 0 15 10 0 8 5 12 10 9 7 -4 10 76
10 234 0 204 -2 242 -16 255 -12 12 -12 16 -2 16 10 0 14 23 15 91 2 105 -16
160 -48 152 -12 -4 -21 1 -26 13 -3 11 -11 22 -17 26 -8 5 -7 14 2 28 11 19
10 20 -21 20 -41 0 -99 -46 -76 -60 11 -7 10 -10 -4 -16 -9 -3 -14 -10 -11
-15 3 -5 -3 -6 -12 -2 -11 4 -15 3 -11 -4 5 -7 0 -9 -13 -6 -11 3 -23 9 -26
14 -3 5 -14 9 -24 9 -17 0 -18 3 -8 33 14 40 43 79 52 69 13 -13 -7 33 -22 51
-17 19 -42 23 -42 6z m289 -386 c0 -11 -3 -13 -6 -5 -2 6 -10 9 -15 6 -7 -4
-8 -2 -4 4 11 18 26 14 25 -5z m-49 -8 c0 -8 -2 -15 -4 -15 -2 0 -6 7 -10 15
-3 8 -1 15 4 15 6 0 10 -7 10 -15z"/>
<path d="M1555 4949 c-38 -22 -100 -35 -89 -18 4 8 3 9 -5 5 -9 -6 -9 -11 -1
-21 9 -11 7 -12 -8 -9 -12 4 -22 -2 -30 -18 -7 -13 -10 -15 -8 -6 4 15 2 16
-19 6 -13 -6 -22 -15 -19 -19 3 -5 -2 -9 -10 -9 -8 0 -30 -13 -48 -29 -47 -41
-129 -91 -139 -85 -5 3 -9 0 -9 -5 0 -6 -11 -11 -25 -11 -31 0 -71 -40 -80
-80 -8 -35 -35 -48 -52 -24 -19 26 -43 10 -38 -26 3 -22 -6 -44 -31 -82 -19
-29 -34 -49 -34 -45 0 4 -20 -4 -43 -18 -24 -14 -57 -25 -73 -25 -21 0 -40
-11 -65 -36 -18 -20 -50 -44 -69 -54 -19 -10 -46 -30 -59 -44 -15 -16 -41 -29
-63 -32 -21 -4 -43 -13 -49 -20 -6 -7 -27 -16 -48 -20 -20 -3 -55 -14 -78 -25
-35 -15 -47 -17 -68 -7 -33 15 -45 3 -50 -52 -6 -55 -16 -65 -64 -64 l-39 1 5
-36 c12 -82 51 -77 151 19 34 33 71 60 82 60 30 0 396 175 431 206 8 8 20 14
26 14 6 0 13 6 16 14 3 8 32 28 64 45 32 17 90 60 128 96 39 35 73 64 77 65 4
0 14 14 23 30 9 18 33 39 60 51 25 12 45 24 45 28 0 4 32 22 71 41 47 22 92
54 133 94 35 34 83 71 108 84 39 19 58 38 58 57 0 3 -8 8 -17 13 -12 6 -27 3
-48 -9z"/>
<path d="M4470 4940 c0 -5 16 -16 35 -24 19 -8 35 -22 35 -30 0 -18 23 -21 51
-5 14 7 17 14 10 22 -9 12 -11 18 -11 35 0 13 -29 10 -34 -3 -2 -7 -15 -11
-28 -9 -12 1 -29 3 -36 3 -7 1 -10 6 -7 11 3 6 1 10 -4 10 -6 0 -11 -4 -11
-10z"/>
<path d="M3836 4881 c-4 -5 1 -8 9 -7 21 3 31 16 12 16 -9 0 -18 -4 -21 -9z"/>
<path d="M4554 4692 c-5 -4 -10 -12 -9 -19 0 -15 15 -30 15 -15 0 6 7 12 17
14 14 3 14 5 2 15 -8 6 -19 9 -25 5z"/>
<path d="M4675 4527 c-10 -8 -15 -19 -11 -25 10 -17 35 -3 33 19 -1 10 -2 19
-2 19 -1 0 -9 -6 -20 -13z"/>
<path d="M1920 4490 c-79 -24 -104 -42 -147 -104 -62 -90 -73 -174 -37 -263
16 -37 133 -135 190 -159 55 -23 179 -30 229 -12 170 60 255 165 255 315 0 30
-6 66 -14 81 -22 42 -85 97 -146 128 -48 25 -68 28 -160 31 -82 2 -119 -2
-170 -17z"/>
<path d="M3732 4420 c-56 -23 -172 -115 -172 -136 0 -6 -8 -29 -17 -50 -24
-58 -20 -88 33 -212 31 -72 168 -190 257 -221 103 -35 308 -31 367 8 14 9 34
21 45 27 27 15 95 151 94 189 0 49 -30 110 -83 170 -52 59 -154 137 -196 150
-14 4 -45 19 -70 34 -32 19 -66 28 -120 33 -41 3 -84 9 -95 12 -11 3 -31 1
-43 -4z"/>
<path d="M4286 3501 c-16 -18 -36 -72 -36 -98 0 -15 19 -17 40 -3 13 9 13 11
0 20 -8 5 -10 10 -5 10 11 0 35 55 35 78 0 18 -15 15 -34 -7z"/>
<path d="M2795 3350 c-3 -5 1 -10 10 -10 9 0 13 5 10 10 -3 6 -8 10 -10 10 -2
0 -7 -4 -10 -10z"/>
<path d="M2247 3343 c-4 -3 -7 -11 -7 -17 0 -6 5 -5 12 2 6 6 9 14 7 17 -3 3
-9 2 -12 -2z"/>
<path d="M3560 3325 c-7 -9 -11 -18 -8 -20 3 -3 11 1 18 10 7 9 11 18 8 20 -3
3 -11 -1 -18 -10z"/>
<path d="M2535 3291 c-6 -11 9 -23 19 -14 9 9 7 23 -3 23 -6 0 -12 -4 -16 -9z"/>
<path d="M2750 3130 c0 -5 7 -10 15 -10 8 0 15 5 15 10 0 6 -7 10 -15 10 -8 0
-15 -4 -15 -10z"/>
<path d="M2810 3045 c0 -8 5 -15 10 -15 6 0 10 7 10 15 0 8 -4 15 -10 15 -5 0
-10 -7 -10 -15z"/>
<path d="M2980 2956 c0 -8 5 -18 10 -21 6 -3 10 1 10 9 0 8 -4 18 -10 21 -5 3
-10 -1 -10 -9z"/>
<path d="M2311 2932 c-17 -31 -13 -40 5 -14 9 13 14 26 11 29 -3 2 -10 -4 -16
-15z"/>
<path d="M2206 2919 c-21 -25 -9 -43 22 -32 18 7 19 11 8 30 l-12 23 -18 -21z"/>
<path d="M2500 2929 c0 -5 5 -7 10 -4 6 3 10 8 10 11 0 2 -4 4 -10 4 -5 0 -10
-5 -10 -11z"/>
<path d="M1750 2919 c0 -5 5 -7 10 -4 6 3 10 8 10 11 0 2 -4 4 -10 4 -5 0 -10
-5 -10 -11z"/>
<path d="M2360 2911 c0 -6 5 -13 10 -16 6 -3 10 1 10 9 0 9 -4 16 -10 16 -5 0
-10 -4 -10 -9z"/>
<path d="M2933 2882 c-6 -10 -9 -39 -8 -65 2 -32 -1 -47 -9 -47 -12 0 -50 -39
-44 -46 3 -2 15 -5 28 -6 18 -2 25 3 32 27 6 23 18 155 14 155 -1 0 -6 -8 -13
-18z"/>
<path d="M2658 2873 c-10 -11 -18 -23 -18 -27 0 -4 8 -6 18 -4 9 1 23 -1 30
-5 7 -5 12 -4 12 2 0 6 -4 11 -9 11 -5 0 -11 10 -13 21 -3 21 -3 21 -20 2z"/>
<path d="M2850 2869 c0 -5 5 -7 10 -4 6 3 10 8 10 11 0 2 -4 4 -10 4 -5 0 -10
-5 -10 -11z"/>
<path d="M2997 2866 c-21 -16 -22 -26 -3 -26 8 0 17 7 20 16 9 23 4 25 -17 10z"/>
<path d="M3296 2871 c-4 -7 -5 -15 -2 -18 9 -9 19 4 14 18 -4 11 -6 11 -12 0z"/>
<path d="M2342 2850 c-10 -17 -10 -20 3 -20 8 0 15 2 15 4 0 2 3 11 6 20 9 23
-9 20 -24 -4z"/>
<path d="M3255 2859 c-10 -15 3 -25 16 -12 7 7 7 13 1 17 -6 3 -14 1 -17 -5z"/>
<path d="M2145 2828 c4 -13 7 -33 7 -45 0 -26 16 -31 25 -7 3 9 0 20 -7 24 -7
4 -10 17 -7 29 3 15 0 21 -10 21 -11 0 -13 -6 -8 -22z"/>
<path d="M2200 2823 c0 -22 2 -25 10 -13 13 20 13 40 0 40 -5 0 -10 -12 -10
-27z"/>
<path d="M2452 2823 c1 -16 -1 -34 -6 -41 -4 -7 -3 -12 3 -12 13 0 18 10 22
44 3 18 -1 31 -9 34 -8 2 -12 -5 -10 -25z"/>
<path d="M2550 2820 c0 -13 5 -18 14 -14 8 3 12 12 9 20 -8 21 -23 17 -23 -6z"/>
<path d="M2780 2799 c0 -11 5 -17 10 -14 6 3 10 13 10 21 0 8 -4 14 -10 14 -5
0 -10 -9 -10 -21z"/>
<path d="M2081 2778 c-9 -25 -4 -48 10 -48 5 0 9 16 9 35 0 40 -7 45 -19 13z"/>
<path d="M2308 2793 c-8 -13 19 -56 27 -44 3 6 11 9 16 6 5 -4 9 2 9 11 0 10
-3 14 -7 11 -3 -4 -14 0 -24 9 -9 8 -19 12 -21 7z"/>
<path d="M2380 2790 c0 -5 7 -10 15 -10 8 0 15 5 15 10 0 6 -7 10 -15 10 -8 0
-15 -4 -15 -10z"/>
<path d="M3161 2786 c-7 -8 -11 -24 -9 -35 3 -18 4 -18 20 3 19 26 9 56 -11
32z"/>
<path d="M1840 2769 c-11 -19 -10 -20 9 -9 22 11 29 30 11 30 -5 0 -14 -9 -20
-21z"/>
<path d="M2625 2781 c-7 -12 12 -24 25 -16 11 7 4 25 -10 25 -5 0 -11 -4 -15
-9z"/>
<path d="M3255 2780 c-3 -5 -1 -10 6 -10 7 0 24 -10 38 -22 14 -13 20 -16 14
-8 -7 8 -13 22 -13 32 0 19 -34 25 -45 8z"/>
<path d="M3447 2783 c-4 -3 -7 -15 -7 -27 0 -15 3 -17 12 -8 6 6 13 19 14 27
2 16 -8 20 -19 8z"/>
<path d="M2577 2773 c-4 -3 -7 -15 -7 -26 0 -17 -5 -19 -40 -14 -33 4 -40 2
-46 -15 -8 -25 2 -34 20 -19 11 9 20 10 35 2 11 -6 22 -11 26 -11 7 0 35 64
35 80 0 11 -13 13 -23 3z"/>
<path d="M3039 2767 c-9 -7 -19 -25 -23 -41 -6 -26 -5 -28 8 -17 9 8 16 18 16
24 0 6 7 19 17 29 18 20 6 24 -18 5z"/>
<path d="M3521 2748 c-17 -18 -31 -37 -31 -43 0 -5 14 5 30 23 16 17 34 32 40
32 5 0 10 5 10 10 0 19 -19 10 -49 -22z"/>
<path d="M1963 2741 c-10 -16 -9 -22 3 -32 8 -6 18 -9 21 -5 4 4 1 11 -7 16
-11 7 -11 11 -1 24 8 9 9 16 5 16 -5 0 -15 -9 -21 -19z"/>
<path d="M3366 2741 c-23 -15 -25 -19 -11 -25 23 -8 25 -8 25 8 0 8 6 16 13
19 6 2 10 7 7 10 -3 3 -18 -2 -34 -12z"/>
<path d="M2211 2741 c-10 -6 -10 -10 -1 -16 13 -8 24 -1 19 14 -3 6 -10 7 -18
2z"/>
<path d="M2605 2740 c3 -5 8 -10 11 -10 2 0 4 5 4 10 0 6 -5 10 -11 10 -5 0
-7 -4 -4 -10z"/>
<path d="M2823 2735 c-8 -22 6 -33 17 -15 13 20 12 30 0 30 -6 0 -13 -7 -17
-15z"/>
<path d="M2377 2710 c-30 -31 -29 -50 3 -50 18 0 63 63 53 74 -12 12 -29 4
-56 -24z"/>
<path d="M2762 2728 c-16 -16 -15 -28 3 -28 9 0 15 -9 15 -21 0 -15 -4 -19
-16 -15 -21 8 -54 -11 -54 -30 0 -9 -6 -14 -12 -11 -7 2 -12 16 -11 29 1 21
-2 25 -18 21 -22 -6 -24 0 -7 27 14 22 2 42 -13 20 -5 -8 -7 -34 -4 -57 6 -38
4 -43 -13 -43 -11 0 -22 -7 -26 -15 -4 -10 1 -15 15 -15 11 0 27 -6 34 -14 12
-12 12 -15 0 -20 -8 -3 -18 2 -23 11 -8 13 -12 10 -25 -16 -18 -35 -18 -35 34
-19 27 7 39 17 39 29 0 18 36 59 52 59 4 0 8 -7 8 -15 0 -26 21 -16 31 15 16
45 29 36 22 -15 -4 -32 -2 -45 6 -45 8 0 10 8 6 19 -3 11 -2 22 3 25 16 10 11
56 -6 56 -11 0 -13 9 -9 40 5 41 -7 52 -31 28z"/>
<path d="M3065 2731 c-10 -17 12 -21 25 -6 10 12 10 15 -3 15 -9 0 -18 -4 -22
-9z"/>
<path d="M3228 2722 c-22 -9 -38 -24 -38 -33 0 -9 -3 -31 -7 -49 -4 -22 -3
-31 4 -27 6 4 14 22 17 40 5 26 13 35 39 42 17 6 33 18 35 28 4 21 -2 21 -50
-1z"/>
<path d="M2263 2708 c-11 -13 -19 -28 -16 -34 2 -6 -8 -16 -22 -24 -27 -15
-31 -30 -13 -48 17 -17 28 -15 28 4 0 12 6 15 24 10 17 -4 26 -1 30 10 9 24 7
28 -8 15 -9 -7 -17 -8 -20 -2 -9 13 12 63 31 79 14 10 15 12 2 12 -9 0 -25
-10 -36 -22z"/>
<path d="M3530 2695 c-10 -12 -10 -15 3 -15 8 0 17 7 21 15 3 8 2 15 -3 15 -5
0 -14 -7 -21 -15z"/>
<path d="M2305 2687 c-4 -10 -5 -21 -1 -24 10 -10 18 4 13 24 -4 17 -4 17 -12
0z"/>
<path d="M2430 2661 c0 -40 -11 -51 -51 -51 -18 0 -20 -6 -23 -54 -1 -11 -7
-21 -13 -23 -9 -3 -13 9 -13 42 0 33 -4 45 -12 42 -7 -2 -12 -14 -10 -25 2
-12 -2 -22 -7 -22 -6 0 -11 5 -11 10 0 6 -9 10 -20 10 -11 0 -20 -7 -20 -16 0
-11 -6 -13 -19 -9 -11 3 -22 1 -26 -5 -3 -6 -11 -8 -16 -5 -5 4 -9 -4 -9 -17
0 -13 -5 -29 -12 -36 -9 -9 -9 -12 0 -12 7 0 12 -13 12 -30 0 -16 2 -30 3 -30
14 0 67 34 67 42 0 7 5 6 14 -1 9 -8 21 -8 39 -2 49 19 39 30 -22 25 -55 -4
-59 -3 -54 16 3 11 12 20 19 20 8 0 17 6 20 14 7 18 34 10 34 -9 0 -19 9 -23
58 -29 41 -5 42 -4 42 23 0 29 22 47 42 35 7 -4 2 -14 -12 -24 -12 -9 -21 -23
-18 -30 2 -8 15 -2 36 18 l32 30 0 -30 c0 -16 4 -27 9 -24 10 7 21 56 12 56
-3 0 -7 11 -7 25 -2 19 3 25 15 23 19 -3 61 31 61 49 0 7 -9 13 -20 13 -11 0
-20 -3 -20 -7 0 -5 -20 -9 -45 -10 -43 -1 -45 0 -39 23 4 14 2 24 -5 24 -6 0
-11 -17 -11 -39z m-39 -104 c-8 -8 -11 -5 -11 9 0 27 14 41 18 19 2 -9 -1 -22
-7 -28z"/>
<path d="M2841 2681 c-9 -16 -7 -17 15 -13 19 3 22 7 13 18 -15 18 -16 18 -28
-5z"/>
<path d="M3772 2691 c2 -7 7 -12 11 -12 12 1 9 15 -3 20 -7 2 -11 -2 -8 -8z"/>
<path d="M3040 2669 c0 -11 5 -17 10 -14 6 3 10 13 10 21 0 8 -4 14 -10 14 -5
0 -10 -9 -10 -21z"/>
<path d="M3131 2664 c-12 -27 -11 -28 4 -12 10 9 16 21 13 28 -2 7 -10 -1 -17
-16z"/>
<path d="M3380 2674 c0 -14 3 -14 15 -4 8 7 15 14 15 16 0 2 -7 4 -15 4 -8 0
-15 -7 -15 -16z"/>
<path d="M3471 2682 c-1 -7 -13 -17 -28 -23 -22 -8 -25 -12 -13 -20 13 -8 13
-11 -1 -22 -11 -8 -14 -18 -8 -32 7 -19 8 -19 8 3 1 13 7 22 17 22 9 0 14 6
11 13 -2 6 2 20 10 29 8 9 13 23 10 30 -4 10 -6 10 -6 0z"/>
<path d="M3637 2683 c-10 -9 -9 -23 2 -23 5 0 11 7 15 15 5 15 -5 20 -17 8z"/>
<path d="M3337 2669 c-9 -6 -17 -14 -17 -19 0 -16 30 -11 37 5 8 21 1 25 -20
14z"/>
<path d="M1945 2624 c-18 -48 -16 -60 10 -51 17 7 21 27 5 27 -18 0 -10 18 10
23 12 3 20 14 20 26 0 37 -27 22 -45 -25z"/>
<path d="M2073 2635 c-20 -19 -40 -35 -45 -35 -4 0 -8 -9 -8 -21 0 -15 4 -19
16 -15 9 3 18 6 20 6 2 0 4 8 4 19 0 12 11 21 33 27 22 7 33 17 35 32 5 32
-14 27 -55 -13z"/>
<path d="M2167 2663 c-4 -3 -7 -11 -7 -17 0 -6 5 -5 12 2 6 6 9 14 7 17 -3 3
-9 2 -12 -2z"/>
<path d="M2933 2663 c-17 -6 -16 -23 1 -23 8 0 16 7 20 15 6 15 1 17 -21 8z"/>
<path d="M2978 2653 c-1 -10 -2 -31 -2 -48 -1 -23 -6 -30 -21 -31 -53 -2 -81
-15 -92 -44 -10 -26 -9 -28 11 -28 11 1 27 6 33 11 14 10 7 31 -8 22 -5 -4 -9
-2 -9 4 0 16 21 24 33 12 6 -6 26 -11 44 -11 25 0 31 -4 27 -15 -4 -8 -14 -15
-24 -15 -22 0 -35 -30 -18 -42 18 -11 38 -10 38 2 0 15 16 12 34 -5 8 -8 22
-12 30 -9 12 4 16 0 16 -15 0 -12 -5 -21 -12 -21 -6 0 -8 -3 -5 -7 4 -3 16 3
27 14 19 22 23 59 8 80 -5 6 -5 14 2 18 16 10 13 75 -5 75 -8 0 -15 7 -15 17
0 14 -2 14 -17 1 -10 -8 -27 -14 -38 -14 -23 1 -34 36 -11 36 10 0 13 6 10 15
-8 21 -34 19 -36 -2z m96 -69 c3 -8 1 -24 -5 -35 -8 -15 -7 -24 2 -35 14 -17
12 -19 -18 -28 -20 -7 -23 -4 -23 23 0 21 5 31 15 31 18 0 19 12 4 27 -11 11
-5 33 11 33 4 0 11 -7 14 -16z m-59 -13 c3 -5 1 -12 -5 -16 -5 -3 -10 1 -10 9
0 18 6 21 15 7z"/>
<path d="M2844 2632 c-13 -64 -14 -61 12 -50 17 8 24 19 24 39 0 37 -28 47
-36 11z"/>
<path d="M3220 2649 c0 -5 5 -7 10 -4 6 3 10 8 10 11 0 2 -4 4 -10 4 -5 0 -10
-5 -10 -11z"/>
<path d="M3830 2639 c0 -11 5 -17 10 -14 6 3 10 13 10 21 0 8 -4 14 -10 14 -5
0 -10 -9 -10 -21z"/>
<path d="M3587 2622 c3 -14 -5 -23 -30 -35 -28 -14 -36 -24 -39 -52 -5 -47 5
-44 25 6 9 22 20 38 26 35 11 -7 41 31 41 51 0 7 -6 13 -14 13 -9 0 -12 -7 -9
-18z"/>
<path d="M3720 2627 c0 -7 9 -13 20 -14 24 -2 27 12 4 21 -22 8 -24 8 -24 -7z"/>
<path d="M3300 2616 c0 -8 4 -17 9 -20 10 -7 23 19 14 28 -11 11 -23 6 -23 -8z"/>
<path d="M3502 2601 c-24 -6 -57 -75 -46 -93 10 -16 24 3 24 31 0 22 7 31 30
41 17 7 30 16 30 21 0 10 -4 10 -38 0z"/>
<path d="M3647 2603 c-4 -3 -7 -11 -7 -17 0 -6 5 -5 12 2 6 6 9 14 7 17 -3 3
-9 2 -12 -2z"/>
<path d="M3850 2587 c0 -16 -5 -37 -10 -48 -7 -12 -7 -19 -1 -19 22 0 35 58
19 83 -5 7 -8 1 -8 -16z"/>
<path d="M2180 2584 c0 -8 5 -12 10 -9 6 3 10 10 10 16 0 5 -4 9 -10 9 -5 0
-10 -7 -10 -16z"/>
<path d="M3240 2580 c0 -11 7 -20 15 -20 8 0 15 9 15 20 0 11 -7 20 -15 20 -8
0 -15 -9 -15 -20z"/>
<path d="M2565 2570 c-3 -11 -11 -20 -16 -20 -6 0 -8 -4 -5 -9 12 -19 41 -4
44 22 4 31 -14 36 -23 7z"/>
<path d="M2733 2556 c-44 -28 -45 -50 -2 -32 32 14 55 41 42 49 -5 3 -23 -5
-40 -17z"/>
<path d="M1980 2560 c-8 -5 -12 -11 -9 -14 2 -3 11 -1 19 4 8 5 12 11 9 14 -2
3 -11 1 -19 -4z"/>
<path d="M2079 2558 c-6 -52 -4 -74 5 -80 19 -13 23 -9 19 16 -4 16 2 30 15
42 12 10 19 21 16 26 -8 13 -54 9 -55 -4z"/>
<path d="M3190 2560 c0 -6 -11 -8 -25 -4 -30 7 -49 -11 -52 -48 -2 -27 21 -41
29 -18 2 5 9 6 17 1 11 -7 10 -15 -8 -44 l-22 -35 30 -7 c20 -4 28 -11 24 -21
-3 -9 2 -14 15 -14 14 0 21 8 25 28 6 30 0 43 -11 25 -10 -15 -52 -5 -52 12 0
7 7 19 16 26 14 11 18 11 29 -4 11 -15 14 -16 25 -2 9 11 9 15 1 15 -8 0 -10
8 -6 19 5 16 0 20 -21 23 -15 2 -30 9 -32 17 -3 10 2 12 21 7 29 -7 48 11 26
25 -19 12 -29 11 -29 -1z"/>
<path d="M3389 2558 c-1 -7 -1 -19 0 -25 1 -7 -5 -13 -14 -13 -8 0 -15 -4 -15
-10 0 -5 9 -10 19 -10 21 0 39 32 21 38 -8 3 -7 8 1 18 8 10 8 14 0 14 -6 0
-12 -6 -12 -12z"/>
<path d="M1866 2543 c-4 -13 -3 -30 2 -39 8 -15 10 -14 14 3 3 10 2 27 -2 38
-7 19 -7 19 -14 -2z"/>
<path d="M2800 2545 c0 -2 9 -9 20 -15 16 -9 18 -8 14 5 -5 13 -34 22 -34 10z"/>
<path d="M3256 2542 c-4 -7 -5 -16 -2 -19 3 -3 1 -12 -6 -20 -6 -7 -8 -16 -5
-19 8 -9 29 35 25 54 -3 13 -5 14 -12 4z"/>
<path d="M3575 2539 c-10 -15 3 -25 16 -12 7 7 7 13 1 17 -6 3 -14 1 -17 -5z"/>
<path d="M1910 2531 c0 -5 -3 -18 -7 -28 -6 -16 -5 -16 10 -4 19 15 23 41 7
41 -5 0 -10 -4 -10 -9z"/>
<path d="M3330 2531 c0 -6 5 -13 10 -16 6 -3 10 1 10 9 0 9 -4 16 -10 16 -5 0
-10 -4 -10 -9z"/>
<path d="M3760 2530 c0 -5 5 -10 10 -10 6 0 10 5 10 10 0 6 -4 10 -10 10 -5 0
-10 -4 -10 -10z"/>
<path d="M1993 2513 c-13 -8 -23 -22 -23 -29 0 -8 -4 -13 -9 -11 -10 2 -11 -2
-11 -33 0 -11 7 -20 16 -20 11 0 14 6 9 20 -5 14 -2 20 9 20 18 0 21 -32 6
-60 -8 -16 -7 -18 4 -14 17 7 27 42 20 71 -4 13 1 25 13 34 11 8 23 20 27 27
11 18 -34 15 -61 -5z"/>
<path d="M3995 2522 c-28 -6 -49 -42 -25 -42 6 0 10 7 10 16 0 13 7 15 33 10
46 -9 69 -8 80 3 17 17 -2 27 -24 13 -12 -8 -26 -9 -37 -4 -9 5 -26 7 -37 4z"/>
<path d="M3307 2503 c-4 -3 -7 -13 -7 -21 0 -7 -9 -25 -20 -39 -11 -14 -17
-30 -14 -35 3 -5 -2 -18 -11 -28 -14 -16 -15 -21 -4 -25 20 -7 49 -1 57 12 7
10 42 24 52 21 15 -4 50 25 50 42 0 11 5 20 10 20 6 0 10 6 10 13 0 16 -59 19
-77 5 -9 -7 -15 -3 -23 16 -10 28 -13 30 -23 19z m83 -51 c0 -13 -13 -24 -40
-35 -50 -19 -51 -8 -2 26 45 31 42 31 42 9z"/>
<path d="M3624 2477 c-8 -21 2 -35 16 -21 5 5 6 15 0 24 -8 12 -10 12 -16 -3z"/>
<path d="M2136 2465 c-3 -8 -1 -15 4 -15 6 0 10 7 10 15 0 8 -2 15 -4 15 -2 0
-6 -7 -10 -15z"/>
<path d="M3456 2471 c-4 -5 -3 -17 0 -26 6 -15 8 -14 25 1 15 14 17 19 7 26
-17 10 -26 10 -32 -1z"/>
<path d="M3543 2454 c-21 -23 -21 -24 -3 -24 11 0 20 -7 20 -16 0 -8 -5 -12
-10 -9 -6 4 -17 1 -25 -5 -11 -9 -11 -17 -3 -36 12 -26 16 -28 37 -15 7 5 10
14 7 20 -4 6 -3 11 1 11 5 0 14 14 20 30 7 19 8 30 1 30 -5 0 -6 9 -3 20 9 28
-14 24 -42 -6z"/>
<path d="M3813 2441 c-24 -12 -33 -23 -33 -42 0 -32 6 -38 31 -32 18 5 19 6 2
19 -16 12 -16 15 -3 27 15 12 45 48 39 46 -2 -1 -19 -9 -36 -18z"/>
<path d="M1876 2433 c-12 -30 21 -46 42 -20 8 9 4 15 -13 23 -19 9 -25 9 -29
-3z"/>
<path d="M1713 2433 c-13 -2 -23 -11 -23 -18 0 -24 15 -24 37 1 12 13 18 23
15 23 -4 -1 -17 -4 -29 -6z"/>
<path d="M2077 2429 c-9 -6 -15 -15 -12 -20 4 -5 11 -7 16 -3 5 3 16 1 24 -6
20 -17 27 5 7 23 -12 11 -22 13 -35 6z"/>
<path d="M2030 2400 c0 -5 5 -10 10 -10 6 0 10 5 10 10 0 6 -4 10 -10 10 -5 0
-10 -4 -10 -10z"/>
<path d="M3464 2402 c-6 -4 -13 -14 -16 -23 -4 -9 -18 -16 -35 -17 -43 -1
-104 -31 -130 -62 -21 -27 4 -33 37 -9 24 18 33 21 39 10 5 -7 12 -12 17 -11
14 2 17 -40 4 -56 -9 -10 -9 -14 -1 -14 6 0 11 6 11 12 0 7 14 -2 30 -20 23
-26 35 -32 51 -27 19 6 21 4 15 -18 -6 -25 -4 -26 36 -24 51 2 63 -19 19 -34
-17 -6 -31 -13 -31 -16 0 -3 11 -18 25 -35 18 -21 25 -25 25 -13 0 13 7 15 35
9 23 -4 35 -2 35 5 0 6 5 11 10 11 6 0 10 -9 10 -20 0 -11 -6 -20 -14 -20 -8
0 -18 -5 -22 -12 -5 -8 2 -9 24 -5 35 7 41 1 16 -18 -15 -10 -13 -19 21 -81
70 -128 75 -138 75 -152 0 -8 7 -38 16 -67 11 -40 19 -52 30 -48 12 4 14 0 8
-21 -4 -18 -2 -26 7 -26 8 0 14 -12 15 -27 6 -131 7 -136 26 -141 17 -4 17 -6
3 -22 -9 -9 -13 -24 -9 -34 3 -9 1 -23 -6 -30 -8 -11 -9 -20 0 -35 7 -14 7
-27 2 -38 -5 -9 -7 -23 -5 -32 2 -9 0 -35 -5 -58 -7 -30 -6 -43 2 -46 7 -2 7
-12 -3 -33 -8 -16 -15 -39 -17 -52 -6 -49 -28 -133 -36 -138 -4 -3 -8 -14 -8
-26 0 -11 -6 -32 -14 -46 -26 -50 -71 -155 -71 -164 0 -5 -8 -15 -17 -22 -10
-7 -27 -33 -38 -58 -10 -24 -31 -50 -45 -58 -14 -7 -36 -32 -49 -54 -34 -57
-177 -203 -210 -216 -16 -6 -30 -19 -33 -30 -3 -11 -9 -20 -14 -20 -5 0 -28
-13 -51 -30 -22 -16 -46 -30 -53 -30 -6 0 -35 -11 -63 -25 -58 -28 -73 -30
-90 -13 -6 6 -15 8 -19 4 -4 -4 -1 -11 7 -16 11 -7 8 -11 -13 -19 -16 -6 -30
-11 -32 -11 -2 0 -25 -10 -52 -22 -26 -12 -52 -20 -57 -19 -5 1 -43 -5 -85
-13 -42 -8 -100 -15 -130 -15 -29 0 -56 -2 -59 -5 -3 -3 70 -6 163 -6 148 0
166 2 155 15 -16 20 -1 20 47 0 29 -12 79 -15 247 -14 236 1 250 5 239 61 -5
25 -3 29 13 26 10 -2 21 -14 24 -28 4 -16 14 -26 28 -28 12 -2 22 0 21 5 -4
25 3 42 22 48 32 10 37 -4 9 -26 -21 -16 -23 -20 -10 -29 13 -9 13 -11 0 -20
-11 -7 -6 -10 23 -10 20 0 37 5 37 10 0 14 28 12 32 -2 3 -8 15 -2 32 17 15
16 35 30 44 31 9 2 18 8 20 13 2 6 12 11 22 11 17 0 40 30 56 72 6 16 18 23
27 16 2 -2 11 5 21 14 9 10 24 15 34 11 13 -5 14 -3 6 6 -9 10 -22 9 -58 -7
-25 -12 -46 -18 -46 -15 0 3 -6 0 -14 -6 -10 -9 -20 -9 -33 -2 -11 5 -25 6
-33 1 -18 -11 -30 -4 -30 18 -1 9 -11 30 -25 46 -20 25 -26 27 -39 17 -8 -7
-16 -22 -18 -34 -2 -16 -10 -22 -27 -22 -13 0 -26 5 -28 11 -2 6 7 10 19 10
23 -1 23 1 11 47 -4 13 3 21 26 30 17 6 31 19 31 27 0 29 60 110 82 110 15 0
18 -5 13 -19 -4 -13 1 -27 14 -40 28 -28 31 -27 31 13 0 20 6 36 14 39 10 4
12 0 9 -14 -6 -22 16 -26 35 -7 9 9 12 7 12 -10 0 -12 -5 -22 -11 -22 -6 0
-22 -9 -36 -20 -19 -15 -30 -17 -43 -10 -33 17 -88 12 -100 -9 -8 -16 -5 -23
19 -40 36 -26 46 -26 78 -1 20 15 28 17 43 8 15 -10 23 -9 39 6 18 17 20 17
30 -1 11 -17 12 -17 26 1 8 11 15 32 15 47 0 21 7 29 32 38 17 6 38 20 45 31
8 12 19 17 26 13 20 -12 37 -12 37 1 0 11 12 22 50 46 13 9 13 11 1 19 -11 7
-21 2 -38 -17 l-24 -27 3 30 c2 24 -1 30 -17 31 -61 1 -109 44 -50 44 14 0 28
6 31 13 3 8 12 14 20 14 10 0 14 -9 12 -28 -2 -16 2 -28 7 -28 6 -1 10 9 10
22 -1 12 6 28 15 35 13 11 13 12 0 6 -8 -4 -12 -3 -7 1 4 5 18 9 32 10 20 0
24 -3 20 -20 -5 -17 -4 -18 5 -3 5 9 18 15 28 13 9 -2 20 -4 23 -4 4 -1 9 -10
12 -21 3 -11 11 -19 19 -18 7 2 13 -6 14 -17 2 -41 4 -45 27 -41 17 2 22 10
23 36 0 18 8 38 17 45 29 21 20 37 -17 31 -25 -4 -36 -1 -40 9 -3 8 -12 15
-21 15 -8 0 -15 4 -15 10 0 24 -50 21 -94 -5 -43 -25 -61 -24 -34 3 7 7 9 12
4 12 -4 0 2 13 13 29 12 16 21 34 21 40 0 6 5 11 10 11 10 0 14 -15 11 -34 -1
-5 4 -4 12 3 19 15 15 46 -6 45 -9 -1 -18 9 -21 22 -4 13 -11 24 -16 24 -6 0
-10 5 -10 10 0 6 6 10 13 9 6 -2 31 3 55 11 30 9 42 19 42 32 0 16 -5 19 -28
13 -39 -8 -57 13 -41 49 15 32 5 45 -21 28 -15 -9 -21 -9 -26 0 -4 7 -2 14 4
16 6 2 9 9 6 15 -2 8 9 13 32 14 27 1 34 -2 30 -12 -7 -20 12 -29 29 -15 10 8
15 9 15 2 0 -6 7 -9 15 -6 17 7 19 32 4 54 -8 11 -12 12 -16 3 -7 -19 -20 -15
-26 8 -5 17 -9 19 -26 10 -31 -17 -41 -13 -41 17 0 19 3 23 9 13 13 -19 57 -6
87 26 13 14 24 28 24 29 0 9 -11 3 -28 -16 -12 -13 -25 -18 -35 -14 -21 8 -22
23 -2 30 17 7 20 30 6 39 -5 3 -15 -1 -23 -8 -27 -27 -50 -28 -73 -5 -22 23
-23 24 -5 46 21 25 35 29 26 7 -7 -20 -4 -19 25 6 l24 21 3 -22 c2 -13 9 -20
17 -16 7 2 15 -4 18 -16 6 -22 32 -20 32 3 0 8 4 19 8 25 4 7 -8 21 -28 35
-43 30 -45 45 -4 41 3 0 10 8 17 18 9 14 8 21 -3 30 -11 9 -20 7 -44 -11 -16
-12 -32 -28 -35 -36 -6 -15 -36 -18 -36 -3 0 6 5 10 10 10 6 0 16 12 22 28 7
15 23 37 37 48 21 18 23 24 13 37 -9 10 -10 17 -2 22 5 3 10 3 10 -2 0 -4 6 3
14 17 8 16 9 29 3 37 -6 9 -4 25 8 49 19 41 18 44 -21 47 -20 1 -29 -3 -32
-17 -2 -11 0 -16 7 -12 7 5 11 -4 11 -24 0 -23 -7 -35 -32 -50 -30 -18 -34
-19 -45 -4 -6 9 -16 13 -22 9 -6 -3 -11 0 -11 9 0 8 -5 16 -11 18 -6 2 -13 22
-15 43 -2 22 -6 50 -9 62 -6 24 18 43 54 43 12 0 21 5 21 11 0 6 -9 8 -21 4
-13 -4 -27 -1 -39 10 -14 13 -20 14 -27 3 -4 -7 -8 -21 -8 -30 0 -32 -19 -23
-21 10 -1 21 3 32 12 32 8 0 14 7 14 16 0 12 -6 15 -25 10 -18 -5 -25 -2 -25
9 0 19 -34 20 -50 0 -13 -15 -30 -12 -30 6 0 5 16 19 35 30 19 12 35 27 35 35
0 8 7 17 15 20 8 4 15 12 15 20 0 14 31 19 43 7 13 -13 57 -12 57 1 0 8 7 19
15 26 8 7 15 19 15 27 0 12 -3 13 -15 3 -8 -6 -20 -8 -26 -4 -9 5 -10 2 -6 -9
4 -11 -1 -21 -15 -28 -18 -10 -24 -8 -39 10 -16 20 -22 21 -56 12 -25 -7 -41
-7 -48 0 -6 6 -2 12 13 16 17 4 21 10 16 22 -4 9 -7 26 -7 39 1 13 -4 21 -11
19 -6 -2 -10 -14 -9 -26 2 -11 -1 -21 -6 -21 -6 0 -13 -9 -16 -20 -4 -11 -11
-18 -16 -14 -5 3 -7 10 -4 15 8 12 -18 12 -31 -1 -7 -7 -20 -3 -39 14 -28 24
-28 25 -11 50 9 14 22 26 29 25 9 0 9 -2 0 -6 -7 -2 -13 -11 -13 -18 0 -21 21
-29 32 -14 7 11 11 11 14 2 8 -18 44 6 37 24 -4 9 -9 10 -18 3 -9 -7 -19 3
-38 38 -29 53 -27 87 5 95 30 8 13 25 -24 25 -32 0 -33 -1 -32 -45 0 -25 -5
-51 -12 -58 -7 -7 -11 -15 -8 -18 3 -3 0 -16 -7 -29 l-13 -23 -6 25 c-4 14 -3
41 1 60 9 40 5 48 -15 31 -13 -11 -14 -8 -6 21 6 18 10 52 10 75 0 24 5 43 11
43 7 0 8 -11 4 -29 -3 -16 -2 -32 4 -35 14 -9 19 4 25 66 4 42 2 59 -9 68 -8
7 -15 9 -16 4 -1 -5 -2 -18 -3 -28 -1 -16 -10 -20 -51 -22 -27 -1 -56 -3 -62
-3 -7 -1 -13 -7 -13 -15 0 -8 -11 -17 -25 -20 -14 -4 -25 -13 -25 -21 0 -8 -3
-15 -7 -15 -12 0 -39 20 -29 20 6 0 2 6 -8 13 -15 11 -15 15 -4 23 17 14 48
25 48 17 0 -3 -8 -12 -17 -19 -17 -13 -17 -13 0 -14 10 0 20 7 23 15 4 8 12
15 19 15 10 0 21 29 25 68 1 4 12 13 26 20 20 10 34 32 20 32 -12 0 -96 -53
-96 -61 0 -5 -7 -9 -15 -9 -8 0 -15 5 -15 10 0 6 5 10 10 10 6 0 10 7 10 16 0
10 -7 14 -22 12 -20 -3 -23 2 -23 29 0 35 -6 45 -21 35z m104 -114 c-2 -6 -10
-14 -16 -16 -7 -2 -10 2 -6 12 7 18 28 22 22 4z m-93 -28 c-3 -5 -13 -10 -21
-10 -8 0 -14 5 -14 10 0 6 9 10 21 10 11 0 17 -4 14 -10z m199 -61 c6 -33 -9
-64 -26 -53 -5 3 -6 15 -2 26 5 16 3 20 -9 15 -19 -7 -43 18 -27 28 5 3 14 4
19 0 5 -3 12 -1 16 5 11 18 22 10 29 -21z m-84 -82 c0 -12 -9 -28 -20 -35 -17
-10 -20 -10 -20 4 0 8 4 12 10 9 5 -3 12 6 16 20 8 31 14 32 14 2z m70 3 c0
-5 -4 -10 -9 -10 -5 0 -17 -3 -25 -6 -12 -5 -15 -2 -10 10 7 17 44 22 44 6z
m224 -291 c17 -14 19 -20 8 -31 -10 -10 -14 -10 -21 0 -4 7 -15 10 -25 6 -14
-6 -16 -2 -10 22 9 40 17 51 22 34 3 -8 15 -22 26 -31z m56 0 c0 -5 -9 -9 -20
-9 -22 0 -23 1 -14 24 5 13 9 14 20 5 8 -6 14 -15 14 -20z m16 -263 c3 -8 4
-22 2 -30 -2 -11 -8 -7 -20 14 -15 26 -15 30 -2 30 8 0 17 -6 20 -14z m-56
-86 c0 -5 -4 -10 -10 -10 -5 0 -10 5 -10 10 0 6 5 10 10 10 6 0 10 -4 10 -10z
m100 -8 c0 -9 -52 -33 -58 -27 -8 8 8 36 17 30 5 -3 12 -1 16 5 6 11 25 4 25
-8z m78 -134 c-10 -14 -18 -32 -18 -40 0 -17 -37 -41 -45 -28 -3 5 -1 11 4 14
10 7 3 44 -12 63 -7 10 -2 12 23 6 29 -5 33 -4 26 12 -4 11 1 28 11 44 l18 26
5 -35 c4 -25 1 -43 -12 -62z m-108 -150 c11 -4 8 -8 -10 -16 -27 -10 -36 -2
-25 26 4 10 9 13 13 6 4 -6 14 -13 22 -16z m-44 -114 c-34 -35 -44 -26 -11 11
15 15 29 25 32 21 3 -3 -6 -18 -21 -32z m107 -50 c-4 -10 -9 -12 -15 -6 -12
12 -1 35 12 27 5 -3 6 -13 3 -21z m32 -14 c3 -5 1 -10 -4 -10 -6 0 -11 5 -11
10 0 6 2 10 4 10 3 0 8 -4 11 -10z m-87 -32 c17 -17 15 -36 -4 -40 -14 -3 -14
-6 3 -27 19 -23 19 -26 4 -52 -14 -25 -17 -26 -32 -13 -16 14 -16 17 -1 45 11
19 13 32 7 37 -9 6 -10 23 -6 55 2 11 15 9 29 -5z m88 -94 c-4 -9 -9 -15 -11
-12 -3 3 -3 13 1 22 4 9 9 15 11 12 3 -3 3 -13 -1 -22z m-26 -74 c0 -5 -4 -10
-10 -10 -5 0 -10 5 -10 10 0 6 5 10 10 10 6 0 10 -4 10 -10z m-225 -21 c0 -7
-8 -15 -17 -17 -18 -3 -25 18 -11 32 10 10 28 1 28 -15z m110 11 c3 -5 -1 -10
-9 -10 -9 0 -16 5 -16 10 0 6 4 10 9 10 6 0 13 -4 16 -10z m133 -47 c3 -10
-13 -13 -57 -13 -34 0 -61 4 -61 9 0 21 111 24 118 4z m-81 -50 c-8 -45 -16
-59 -36 -60 -24 -2 -18 28 13 62 27 31 28 31 23 -2z m-217 -3 c0 -5 -5 -10
-11 -10 -5 0 -7 5 -4 10 3 6 8 10 11 10 2 0 4 -4 4 -10z m210 -86 c0 -7 -8
-18 -18 -23 -16 -9 -19 -6 -16 17 3 34 1 32 19 26 8 -4 15 -12 15 -20z m-122
-53 c3 -19 0 -22 -25 -19 -19 2 -29 9 -31 23 -2 17 2 20 25 20 21 -1 29 -7 31
-24z m-178 -39 c0 -13 -39 -46 -46 -40 -8 9 19 48 33 48 7 0 13 -4 13 -8z
m126 -3 c3 -6 2 -15 -3 -20 -14 -14 -43 0 -36 17 6 17 29 19 39 3z m128 -28
c9 -14 -18 -61 -34 -59 -8 2 -17 14 -20 27 -3 13 -14 28 -25 32 -14 5 -6 8 27
8 26 1 49 -3 52 -8z m-491 -185 c15 -22 14 -23 -4 -22 -11 1 -19 4 -19 9 0 4
0 14 0 22 0 21 5 19 23 -9z m-4 -66 c11 0 10 -4 -4 -13 -11 -9 -15 -19 -10
-26 5 -9 0 -12 -16 -9 -18 2 -25 10 -27 32 -3 26 -1 28 20 23 13 -4 29 -7 37
-7z m-106 -54 c6 -16 -1 -26 -19 -26 -7 0 -10 8 -7 20 6 23 19 26 26 6z m297
-27 c0 -15 22 -35 48 -43 12 -4 22 -14 22 -22 0 -22 -40 -16 -65 10 -12 13
-27 25 -34 27 -16 6 -3 39 15 39 8 0 14 -5 14 -11z m-405 -29 c3 -5 1 -10 -4
-10 -6 0 -11 5 -11 10 0 6 2 10 4 10 3 0 8 -4 11 -10z m266 -23 c-10 -9 -11
-8 -5 6 3 10 9 15 12 12 3 -3 0 -11 -7 -18z m-266 -47 c0 -7 -6 -15 -12 -17
-8 -3 -13 4 -13 17 0 13 5 20 13 18 6 -3 12 -11 12 -18z m-190 -20 c-3 -5 -11
-10 -16 -10 -6 0 -7 5 -4 10 3 6 11 10 16 10 6 0 7 -4 4 -10z"/>
<path d="M3606 2401 c-4 -7 -5 -15 -2 -18 9 -9 19 4 14 18 -4 11 -6 11 -12 0z"/>
<path d="M1740 2390 c0 -5 5 -10 10 -10 6 0 10 5 10 10 0 6 -4 10 -10 10 -5 0
-10 -4 -10 -10z"/>
<path d="M1805 2390 c-8 -13 5 -13 25 0 13 8 13 10 -2 10 -9 0 -20 -4 -23 -10z"/>
<path d="M1650 2368 c-12 -22 -12 -22 6 -6 10 10 15 20 12 24 -4 3 -12 -5 -18
-18z"/>
<path d="M1310 2370 c0 -5 5 -10 11 -10 5 0 7 5 4 10 -3 6 -8 10 -11 10 -2 0
-4 -4 -4 -10z"/>
<path d="M1837 2367 c-4 -10 -16 -15 -33 -14 -15 1 -29 -4 -32 -11 -3 -9 5
-11 30 -7 38 7 52 18 46 36 -3 9 -6 8 -11 -4z"/>
<path d="M1997 2373 c-5 -7 -22 -13 -39 -13 -26 0 -29 -2 -18 -15 11 -14 7
-19 -12 -16 -5 0 -8 -6 -8 -14 0 -17 -16 -20 -25 -5 -8 14 -52 13 -61 -2 -5
-7 0 -9 14 -6 13 4 23 0 26 -9 7 -18 57 -9 69 13 5 8 12 12 17 9 15 -9 52 31
48 52 -2 13 -6 15 -11 6z"/>
<path d="M3845 2370 c3 -5 10 -10 16 -10 5 0 9 5 9 10 0 6 -7 10 -16 10 -8 0
-12 -4 -9 -10z"/>
<path d="M1876 2361 c-4 -7 -5 -15 -2 -18 9 -9 19 4 14 18 -4 11 -6 11 -12 0z"/>
<path d="M3894 2346 c-3 -9 -17 -16 -30 -16 -13 0 -24 -6 -24 -13 0 -7 -9 -18
-21 -25 -26 -16 -49 0 -42 28 3 11 1 20 -5 20 -16 0 -20 -23 -9 -47 14 -31 62
-31 78 -2 7 15 18 20 34 17 19 -4 24 0 28 21 6 30 0 41 -9 17z"/>
<path d="M3930 2350 c0 -5 7 -10 16 -10 8 0 12 5 9 10 -3 6 -10 10 -16 10 -5
0 -9 -4 -9 -10z"/>
<path d="M1729 2333 c-1 -10 -1 -22 0 -26 1 -4 3 -22 5 -38 1 -17 9 -35 17
-39 11 -7 9 -14 -9 -33 -22 -23 -29 -61 -13 -71 11 -7 34 20 55 67 9 20 22 37
28 37 7 0 8 12 4 32 -10 49 -22 53 -18 5 4 -42 4 -42 -16 -23 -12 10 -21 26
-20 35 3 44 -3 71 -17 71 -8 0 -16 -8 -16 -17z"/>
<path d="M3620 2313 c0 -5 4 -15 10 -23 11 -18 25 -7 17 15 -6 15 -27 21 -27
8z"/>
<path d="M1570 2279 c0 -5 5 -7 10 -4 6 3 10 8 10 11 0 2 -4 4 -10 4 -5 0 -10
-5 -10 -11z"/>
<path d="M1640 2286 c0 -2 7 -9 15 -16 12 -10 15 -10 15 4 0 9 -7 16 -15 16
-8 0 -15 -2 -15 -4z"/>
<path d="M1835 2270 c-8 -12 20 -24 35 -15 6 3 8 11 5 16 -8 12 -32 12 -40 -1z"/>
<path d="M4011 2261 c-7 -5 -12 -14 -9 -21 2 -7 10 -4 22 9 19 21 12 28 -13
12z"/>
<path d="M2898 2243 c-10 -2 -18 -11 -18 -19 0 -21 18 -17 30 6 6 11 9 19 8
19 -2 -1 -11 -3 -20 -6z"/>
<path d="M1440 2221 c0 -10 -7 -24 -15 -31 -18 -15 -19 -30 -2 -30 7 0 18 15
25 33 15 41 15 47 2 47 -5 0 -10 -8 -10 -19z"/>
<path d="M3795 2220 c-21 -23 -4 -27 19 -4 18 17 20 24 8 24 -5 0 -17 -9 -27
-20z"/>
<path d="M3846 2205 c-20 -30 -20 -45 -1 -45 8 0 12 6 9 14 -3 7 2 16 10 19
17 7 22 37 7 37 -5 0 -16 -11 -25 -25z"/>
<path d="M1671 2206 c-17 -20 3 -30 29 -14 11 7 20 16 20 20 0 14 -37 9 -49
-6z"/>
<path d="M2870 2180 c0 -11 4 -20 9 -20 5 0 7 9 4 20 -3 11 -7 20 -9 20 -2 0
-4 -9 -4 -20z"/>
<path d="M1594 2179 c-4 -8 0 -9 15 -4 24 7 29 -13 9 -33 -16 -16 -2 -28 15
-13 20 16 10 61 -14 61 -10 0 -21 -5 -25 -11z"/>
<path d="M2560 2180 c0 -5 5 -10 11 -10 5 0 7 5 4 10 -3 6 -8 10 -11 10 -2 0
-4 -4 -4 -10z"/>
<path d="M2915 2150 c-3 -5 -1 -10 4 -10 6 0 11 5 11 10 0 6 -2 10 -4 10 -3 0
-8 -4 -11 -10z"/>
<path d="M3934 2152 c-6 -4 -14 -18 -17 -32 l-6 -25 19 25 c26 33 27 48 4 32z"/>
<path d="M2685 2140 c-3 -5 -1 -10 4 -10 6 0 11 5 11 10 0 6 -2 10 -4 10 -3 0
-8 -4 -11 -10z"/>
<path d="M3190 2139 c0 -5 5 -7 10 -4 6 3 10 8 10 11 0 2 -4 4 -10 4 -5 0 -10
-5 -10 -11z"/>
<path d="M1680 2130 c0 -5 -7 -16 -16 -25 -13 -12 -14 -19 -5 -28 8 -8 11 -7
11 6 0 21 19 22 26 2 4 -8 11 -15 16 -15 7 0 6 5 -1 14 -6 7 -9 20 -6 28 4 9
-1 18 -9 21 -9 4 -16 2 -16 -3z"/>
<path d="M3720 2124 c0 -8 5 -12 10 -9 6 3 10 10 10 16 0 5 -4 9 -10 9 -5 0
-10 -7 -10 -16z"/>
<path d="M1350 2121 c0 -6 5 -13 10 -16 6 -3 10 1 10 9 0 9 -4 16 -10 16 -5 0
-10 -4 -10 -9z"/>
<path d="M1395 2120 c-3 -5 -1 -10 4 -10 6 0 11 5 11 10 0 6 -2 10 -4 10 -3 0
-8 -4 -11 -10z"/>
<path d="M1448 2097 c-3 -19 -2 -25 4 -19 6 6 8 18 6 28 -3 14 -5 12 -10 -9z"/>
<path d="M1549 2087 c-24 -30 -46 -87 -34 -87 14 0 47 40 43 52 -3 7 5 20 16
30 14 11 18 20 11 27 -7 7 -18 0 -36 -22z"/>
<path d="M3166 2105 c-3 -8 -1 -17 4 -20 4 -3 11 1 13 7 3 7 6 4 6 -7 1 -17 3
-17 11 -5 5 8 10 20 10 25 0 16 -38 16 -44 0z"/>
<path d="M3857 2093 c-12 -12 -7 -22 8 -17 8 4 15 10 15 15 0 11 -14 12 -23 2z"/>
<path d="M1389 2069 c16 -6 28 -6 35 1 7 7 -1 10 -24 9 -33 0 -34 -1 -11 -10z"/>
<path d="M2625 2070 c-3 -5 -1 -10 4 -10 6 0 11 5 11 10 0 6 -2 10 -4 10 -3 0
-8 -4 -11 -10z"/>
<path d="M3900 2069 c0 -5 8 -9 18 -9 10 0 23 -5 29 -11 7 -7 12 -5 15 8 4 16
-1 19 -28 20 -19 1 -34 -3 -34 -8z"/>
<path d="M1649 2044 c-11 -14 -10 -15 11 -12 13 1 25 9 28 16 5 17 -23 15 -39
-4z"/>
<path d="M1597 2043 c-4 -3 -7 -15 -7 -26 0 -29 -39 -60 -57 -46 -7 7 -16 9
-19 6 -3 -3 3 -10 14 -16 22 -12 20 -51 -3 -51 -7 0 -18 -15 -25 -32 -19 -54
-26 -62 -50 -68 -30 -7 -38 -30 -11 -30 30 0 26 -21 -9 -50 -16 -14 -30 -29
-30 -34 0 -5 9 -1 20 9 24 22 36 14 21 -13 -6 -12 -11 -30 -11 -42 0 -13 -8
-24 -20 -27 -22 -6 -29 -48 -9 -55 7 -2 3 -16 -10 -38 -36 -60 -43 -83 -33
-105 7 -15 6 -27 -5 -40 -8 -12 -11 -30 -8 -43 4 -18 2 -23 -12 -22 -42 4 -81
-22 -50 -33 8 -3 5 -10 -10 -21 -12 -9 -30 -24 -39 -34 -13 -12 -19 -13 -22
-4 -5 15 -22 16 -22 1 0 -12 29 -38 43 -39 4 0 7 7 7 16 0 25 23 11 31 -19 6
-21 4 -27 -9 -27 -12 0 -13 -3 -4 -12 18 -18 15 -28 -8 -28 -22 0 -36 -22 -25
-40 5 -8 13 -6 25 5 10 9 23 14 29 11 14 -9 25 14 13 26 -16 16 10 58 36 58
25 0 31 -27 7 -36 -8 -4 -15 -12 -15 -20 0 -16 16 -19 25 -4 8 13 25 13 25 0
0 -5 -20 -18 -45 -29 -26 -11 -45 -27 -45 -35 0 -17 15 -22 24 -7 7 11 56 21
56 10 0 -4 -4 -11 -10 -14 -24 -15 -7 -24 19 -11 33 18 45 50 25 67 -10 8 -12
15 -4 23 15 15 12 34 -12 66 -25 34 -33 36 -54 15 -15 -15 -44 -10 -44 7 0 5
9 12 20 15 15 4 19 13 17 42 -2 35 -1 36 31 34 22 -1 32 3 32 13 0 8 7 14 15
14 19 0 20 26 1 33 -11 4 -12 14 -6 43 5 20 13 40 17 43 5 3 9 20 8 36 -1 17
4 39 12 51 7 11 10 24 7 27 -4 4 -1 13 6 22 9 11 10 18 1 29 -9 10 -8 15 4 20
8 3 15 12 15 20 0 8 8 29 17 48 30 61 33 68 33 84 0 10 -5 14 -15 10 -8 -3
-15 0 -15 5 0 6 9 9 20 6 24 -6 31 3 32 42 1 19 10 34 29 47 26 17 43 44 19
29 -5 -3 -10 1 -10 10 0 10 5 13 13 9 8 -5 7 -2 -2 10 -13 15 -12 18 8 23 12
3 20 11 18 17 -2 6 0 21 4 34 8 21 0 30 -14 15z"/>
<path d="M2805 2041 c-3 -5 -2 -12 3 -15 5 -3 9 1 9 9 0 17 -3 19 -12 6z"/>
<path d="M4137 2030 c-21 -25 -22 -40 -1 -40 8 0 12 5 9 10 -4 6 -1 18 6 26 6
8 10 16 7 19 -2 2 -12 -5 -21 -15z"/>
<path d="M1405 2030 c-3 -5 -16 -10 -29 -10 -28 0 -39 -10 -27 -24 10 -12 15
-46 13 -83 -1 -15 -10 -25 -27 -29 -14 -3 -25 -10 -25 -15 0 -12 7 -11 45 7
30 14 33 19 31 60 0 24 -4 44 -8 44 -4 0 -5 7 -2 15 4 8 15 15 25 15 10 0 19
7 19 15 0 17 -6 19 -15 5z"/>
<path d="M3217 2033 c-11 -11 -8 -33 5 -33 6 0 8 3 5 7 -4 3 1 12 11 19 15 12
15 13 1 14 -9 0 -19 -3 -22 -7z"/>
<path d="M3842 2020 c13 -21 38 -27 38 -10 0 9 -31 30 -44 30 -4 0 -1 -9 6
-20z"/>
<path d="M3320 2003 c0 -10 6 -13 17 -9 9 4 20 1 25 -6 5 -9 8 -10 8 -1 0 13
-17 26 -37 29 -7 1 -13 -5 -13 -13z"/>
<path d="M1467 2004 c-11 -11 -8 -26 3 -19 6 3 10 -1 10 -9 0 -9 -4 -16 -10
-16 -5 0 -10 -15 -10 -32 0 -47 -12 -60 -43 -52 -31 7 -36 -6 -8 -23 28 -18
58 8 66 57 4 22 11 40 16 40 5 0 9 6 9 13 0 19 -24 49 -33 41z"/>
<path d="M1627 1989 c-4 -16 -3 -18 9 -8 16 13 19 29 5 29 -5 0 -11 -9 -14
-21z"/>
<path d="M3265 2000 c-3 -6 1 -7 9 -4 18 7 21 14 7 14 -6 0 -13 -4 -16 -10z"/>
<path d="M3915 2001 c-10 -17 12 -21 25 -6 10 12 10 15 -3 15 -9 0 -18 -4 -22
-9z"/>
<path d="M1145 1980 c-3 -5 -1 -10 4 -10 6 0 11 5 11 10 0 6 -2 10 -4 10 -3 0
-8 -4 -11 -10z"/>
<path d="M3111 1971 c-8 -14 -8 -22 0 -27 13 -7 -26 -43 -47 -44 -7 0 -24 -29
-39 -65 -24 -56 -27 -73 -22 -127 8 -84 29 -131 82 -183 25 -24 45 -41 45 -39
0 3 14 -3 30 -13 17 -9 30 -20 30 -23 0 -11 104 -11 158 1 44 9 65 20 95 49
20 21 40 52 43 69 4 17 14 36 23 43 13 10 14 10 4 -2 -9 -9 -9 -19 -2 -33 6
-11 7 -17 1 -14 -18 12 -29 -36 -15 -63 7 -14 13 -19 13 -11 0 8 8 23 18 34 9
11 12 17 5 14 -6 -4 -14 -3 -17 2 -4 5 2 8 11 6 10 -2 21 -4 26 -4 4 -1 7 -8
7 -16 0 -7 6 -18 14 -22 12 -6 10 -11 -10 -20 -21 -10 -24 -9 -22 4 4 23 -18
27 -26 6 -3 -10 -9 -23 -12 -30 -3 -7 7 -13 28 -15 21 -2 33 -8 33 -18 1 -26
16 -61 25 -55 5 3 11 -1 14 -7 4 -9 9 -7 18 6 7 11 24 30 36 42 14 14 21 28
16 35 -5 9 -2 10 10 6 11 -5 16 -3 14 5 -6 17 -48 17 -58 -1 -5 -9 -10 -11
-10 -4 0 6 6 18 13 25 8 7 12 19 9 26 -4 14 -42 16 -42 2 0 -5 5 -10 10 -10 6
0 10 -4 10 -10 0 -15 -17 -12 -23 4 -3 8 -3 24 0 36 5 17 11 20 32 15 14 -4
29 -12 33 -18 4 -6 10 -8 15 -4 4 5 2 12 -6 16 -7 5 -12 11 -12 15 3 18 0 20
-10 6 -8 -11 -9 -8 -4 14 4 19 1 32 -9 40 -8 6 -22 24 -30 41 -14 26 -14 31 1
47 9 10 13 21 10 24 -4 4 -15 -4 -26 -17 -12 -15 -15 -26 -9 -30 7 -5 7 -13
-1 -25 -6 -11 -11 -14 -11 -8 0 7 -9 14 -20 17 -11 3 -20 10 -20 17 0 6 5 8
10 5 18 -11 41 15 31 34 -8 16 -8 27 5 69 4 14 2 22 -6 22 -7 0 -10 -6 -7 -14
3 -8 -2 -16 -14 -19 -10 -3 -19 -11 -19 -19 0 -11 2 -11 9 0 7 11 9 11 14 -2
4 -10 1 -16 -8 -16 -8 0 -15 -4 -15 -10 0 -20 -27 -9 -38 16 -10 20 -9 28 3
40 19 20 20 41 1 25 -11 -9 -15 -8 -21 6 -5 10 -7 23 -6 28 2 6 -1 7 -5 3 -4
-4 -13 -3 -21 3 -7 6 -13 8 -13 5 0 -4 -20 9 -45 30 -25 20 -45 43 -45 50 0 8
-4 14 -10 14 -5 0 -10 -5 -10 -10 0 -6 -10 -4 -22 4 -16 9 -50 13 -110 12 -69
-1 -84 1 -76 12 6 7 8 15 5 18 -3 3 -10 -3 -16 -15z m513 -378 c3 -7 1 -15 -3
-18 -5 -3 -12 2 -15 11 -4 10 -13 13 -28 9 -17 -5 -19 -4 -9 4 19 13 49 10 55
-6z m-34 -43 c0 -5 -2 -10 -4 -10 -3 0 -8 5 -11 10 -3 6 -1 10 4 10 6 0 11 -4
11 -10z m30 -100 c0 -5 -2 -10 -4 -10 -3 0 -8 5 -11 10 -3 6 -1 10 4 10 6 0
11 -4 11 -10z"/>
<path d="M4180 1980 c0 -5 5 -10 11 -10 5 0 7 5 4 10 -3 6 -8 10 -11 10 -2 0
-4 -4 -4 -10z"/>
<path d="M3360 1960 c0 -5 5 -10 11 -10 5 0 7 5 4 10 -3 6 -8 10 -11 10 -2 0
-4 -4 -4 -10z"/>
<path d="M1085 1950 c-3 -5 -2 -10 4 -10 5 0 13 5 16 10 3 6 2 10 -4 10 -5 0
-13 -4 -16 -10z"/>
<path d="M3417 1953 c-2 -5 -7 -20 -11 -35 -5 -21 -3 -28 8 -28 15 0 46 26 46
38 0 3 -5 1 -12 -6 -19 -19 -30 -14 -18 7 5 11 10 22 10 25 0 9 -18 7 -23 -1z"/>
<path d="M3987 1942 c-23 -25 -21 -34 6 -30 14 2 23 11 25 26 4 27 -9 28 -31
4z"/>
<path d="M1236 1922 c-3 -6 -1 -14 5 -17 15 -10 25 3 12 16 -7 7 -13 7 -17 1z"/>
<path d="M1190 1905 c0 -8 5 -15 10 -15 6 0 10 7 10 15 0 8 -4 15 -10 15 -5 0
-10 -7 -10 -15z"/>
<path d="M4100 1891 c0 -5 5 -13 10 -16 6 -3 10 -2 10 4 0 5 -4 13 -10 16 -5
3 -10 2 -10 -4z"/>
<path d="M1080 1873 c0 -17 44 -17 58 0 8 9 2 12 -24 13 -22 0 -34 -4 -34 -13z"/>
<path d="M3610 1880 c0 -5 5 -10 10 -10 6 0 10 5 10 10 0 6 -4 10 -10 10 -5 0
-10 -4 -10 -10z"/>
<path d="M3517 1856 c-4 -10 -1 -13 8 -9 8 3 12 9 9 14 -7 12 -11 11 -17 -5z"/>
<path d="M1070 1830 c0 -5 5 -10 10 -10 6 0 10 5 10 10 0 6 -4 10 -10 10 -5 0
-10 -4 -10 -10z"/>
<path d="M1333 1833 c-21 -8 -15 -22 7 -16 11 3 20 9 20 14 0 10 -8 10 -27 2z"/>
<path d="M4272 1815 c-12 -9 -29 -15 -38 -13 -9 2 -19 -3 -22 -11 -3 -10 1
-12 19 -8 12 3 29 2 35 -4 9 -7 19 -4 33 10 38 38 18 57 -27 26z"/>
<path d="M4110 1794 c-6 -14 -10 -38 -10 -54 0 -15 -7 -30 -15 -34 -8 -3 -15
-10 -15 -16 0 -17 28 -11 39 8 7 10 14 13 18 7 5 -5 20 -11 35 -13 20 -2 28 3
34 20 4 13 2 24 -5 26 -7 2 -8 9 -1 22 7 13 7 21 0 25 -12 8 -23 -16 -18 -41
4 -22 -31 -32 -43 -12 -5 7 -6 30 -2 51 6 43 -3 49 -17 11z"/>
<path d="M2124 1794 c-12 -8 -32 -16 -44 -17 -13 -1 -27 -12 -33 -24 -6 -13
-17 -23 -26 -23 -26 -1 -54 -27 -47 -45 3 -10 2 -14 -5 -10 -40 25 -109 -144
-88 -218 17 -64 89 -149 155 -184 164 -87 332 -25 400 147 26 67 26 72 15 147
-12 75 -45 145 -79 166 -7 5 -20 17 -30 27 -10 11 -36 26 -58 34 -50 17 -117
19 -108 3 4 -8 2 -7 -7 1 -16 15 -19 15 -45 -4z"/>
<path d="M3960 1767 c0 -32 1 -33 35 -29 19 2 41 -1 48 -6 7 -6 19 -7 26 -3
14 9 11 47 -5 45 -5 -1 -24 -4 -42 -8 -28 -5 -35 -3 -39 14 -8 32 -23 23 -23
-13z"/>
<path d="M1381 1764 c0 -11 3 -14 6 -6 3 7 2 16 -1 19 -3 4 -6 -2 -5 -13z"/>
<path d="M4373 1760 c-26 -10 -31 -30 -8 -30 8 0 19 9 25 20 6 11 9 20 8 19
-2 0 -13 -4 -25 -9z"/>
<path d="M1161 1734 c0 -11 3 -14 6 -6 3 7 2 16 -1 19 -3 4 -6 -2 -5 -13z"/>
<path d="M1300 1740 c0 -5 4 -10 9 -10 6 0 13 5 16 10 3 6 -1 10 -9 10 -9 0
-16 -4 -16 -10z"/>
<path d="M1347 1733 c-16 -15 -6 -33 18 -33 18 0 25 5 25 20 0 20 -28 28 -43
13z"/>
<path d="M1220 1700 c-13 -9 -13 -10 0 -10 8 0 22 5 30 10 13 9 13 10 0 10 -8
0 -22 -5 -30 -10z"/>
<path d="M3740 1680 c0 -5 5 -10 11 -10 5 0 7 5 4 10 -3 6 -8 10 -11 10 -2 0
-4 -4 -4 -10z"/>
<path d="M3755 1650 c-3 -5 -1 -10 4 -10 6 0 11 5 11 10 0 6 -2 10 -4 10 -3 0
-8 -4 -11 -10z"/>
<path d="M1090 1626 c0 -8 -2 -20 -5 -28 -3 -7 1 -22 9 -33 14 -19 15 -17 16
28 0 26 -4 47 -10 47 -5 0 -10 -6 -10 -14z"/>
<path d="M1266 1631 c-4 -7 -5 -15 -2 -18 9 -9 19 4 14 18 -4 11 -6 11 -12 0z"/>
<path d="M1321 1622 c-6 -11 -11 -27 -11 -34 0 -7 -10 -20 -22 -27 l-23 -15
25 -6 c27 -7 56 13 45 31 -4 5 1 17 11 24 18 13 18 15 2 31 -15 15 -17 15 -27
-4z"/>
<path d="M4188 1613 c-10 -2 -18 -9 -18 -14 0 -15 43 -7 48 9 4 12 0 13 -30 5z"/>
<path d="M4330 1605 c0 -8 5 -15 10 -15 6 0 10 7 10 15 0 8 -4 15 -10 15 -5 0
-10 -7 -10 -15z"/>
<path d="M1227 1604 c-3 -3 -3 -12 0 -20 3 -8 -3 -24 -12 -34 -22 -25 -8 -26
22 -2 16 12 21 23 17 40 -6 22 -15 27 -27 16z"/>
<path d="M3771 1578 c-1 -16 4 -28 9 -28 12 0 12 8 0 35 -8 18 -9 17 -9 -7z"/>
<path d="M1135 1543 c-26 -5 -53 -43 -31 -43 18 0 76 32 76 43 0 7 -10 7 -45
0z"/>
<path d="M1230 1509 c0 -5 5 -7 10 -4 6 3 10 8 10 11 0 2 -4 4 -10 4 -5 0 -10
-5 -10 -11z"/>
<path d="M1292 1498 c-7 -7 -12 -16 -12 -21 0 -5 -9 -20 -20 -34 -11 -14 -20
-36 -20 -48 0 -12 -7 -28 -15 -35 -21 -17 -19 -40 3 -40 27 0 72 23 72 38 0
17 -19 15 -26 -3 -4 -8 -12 -15 -20 -15 -9 0 -11 6 -7 18 9 25 46 62 62 62 11
0 11 3 0 16 -8 10 -9 18 -2 22 5 4 12 17 15 30 7 24 -10 30 -30 10z"/>
<path d="M4235 1500 c-4 -6 -1 -17 5 -25 9 -11 4 -21 -25 -51 -44 -44 -35 -69
14 -35 36 26 61 73 54 101 -6 21 -37 27 -48 10z"/>
<path d="M1180 1470 c0 -13 11 -13 30 0 12 8 11 10 -7 10 -13 0 -23 -4 -23
-10z"/>
<path d="M3710 1459 c0 -5 5 -7 10 -4 6 3 10 8 10 11 0 2 -4 4 -10 4 -5 0 -10
-5 -10 -11z"/>
<path d="M996 1445 c4 -8 8 -15 10 -15 2 0 4 7 4 15 0 8 -4 15 -10 15 -5 0 -7
-7 -4 -15z"/>
<path d="M1187 1432 c-31 -32 -33 -38 -12 -46 23 -8 45 4 45 24 0 11 5 22 10
25 6 3 10 10 10 16 0 18 -27 9 -53 -19z"/>
<path d="M3510 1425 c0 -8 5 -15 10 -15 7 0 7 -6 0 -20 -13 -24 2 -27 20 -5
11 13 9 19 -8 36 -18 16 -22 17 -22 4z"/>
<path d="M1106 1393 c1 -24 13 -36 15 -15 0 4 8 15 16 25 15 16 14 17 -8 17
-21 0 -24 -5 -23 -27z"/>
<path d="M3682 1395 c-15 -32 -15 -35 -2 -35 6 0 10 5 10 12 0 6 7 20 17 30
14 15 14 18 1 18 -8 0 -20 -11 -26 -25z"/>
<path d="M3726 1395 c-3 -8 -1 -15 4 -15 6 0 10 7 10 15 0 8 -2 15 -4 15 -2 0
-6 -7 -10 -15z"/>
<path d="M3646 1381 c-4 -7 -5 -15 -2 -18 9 -9 19 4 14 18 -4 11 -6 11 -12 0z"/>
<path d="M3542 1367 c-9 -11 -10 -17 -2 -22 15 -9 23 -1 18 21 -3 15 -4 16
-16 1z"/>
<path d="M4200 1360 c-18 -11 -11 -19 20 -22 16 -2 25 3 28 15 4 19 -23 23
-48 7z"/>
<path d="M1140 1328 c0 -18 18 -34 28 -24 3 4 -2 14 -11 23 -16 16 -17 16 -17
1z"/>
<path d="M3510 1315 c-7 -9 -15 -13 -18 -11 -2 3 -11 -2 -19 -10 -18 -18 -17
-19 30 -39 36 -15 37 -14 37 5 0 11 7 20 15 20 8 0 15 5 15 11 0 5 -8 9 -17 8
-30 -3 -39 1 -24 10 8 5 9 11 3 15 -5 3 -15 -1 -22 -9z"/>
<path d="M3640 1310 c-8 -5 -22 -7 -32 -4 -20 6 -30 -8 -22 -30 5 -13 10 -14
20 -5 7 6 17 9 21 6 10 -5 45 31 35 37 -5 3 -14 1 -22 -4z"/>
<path d="M4334 1306 c-18 -14 -18 -15 -1 -22 22 -8 46 11 31 26 -7 7 -17 5
-30 -4z"/>
<path d="M4254 1296 c-8 -22 3 -33 18 -18 9 9 9 15 0 24 -9 9 -13 7 -18 -6z"/>
<path d="M3581 1240 c-12 -7 -12 -13 3 -35 14 -22 15 -29 4 -42 -10 -12 -10
-17 -1 -20 7 -2 9 -12 6 -21 -4 -14 -3 -14 5 -2 6 8 8 18 6 22 -3 4 -1 8 4 8
6 0 9 11 8 25 0 14 -4 25 -8 25 -5 0 -8 5 -8 11 0 5 6 7 13 3 7 -5 7 -1 -3 12
-8 10 -15 20 -15 21 0 1 -7 -2 -14 -7z"/>
<path d="M1120 1210 c0 -5 4 -10 9 -10 6 0 13 5 16 10 3 6 -1 10 -9 10 -9 0
-16 -4 -16 -10z"/>
<path d="M4329 1204 c-9 -11 -9 -18 -1 -26 14 -14 38 -4 44 19 6 24 -25 29
-43 7z"/>
<path d="M2810 1196 c0 -9 5 -16 10 -16 6 0 10 4 10 9 0 6 -4 13 -10 16 -5 3
-10 -1 -10 -9z"/>
<path d="M3654 1188 c4 -17 2 -28 -4 -28 -5 0 -10 -6 -10 -14 0 -8 -7 -16 -15
-20 -8 -3 -15 -13 -15 -23 0 -14 2 -15 9 -5 4 8 12 12 16 10 5 -1 9 5 11 15 1
10 11 26 22 35 19 17 19 17 -1 37 -20 20 -20 20 -13 -7z"/>
<path d="M3490 1191 c0 -6 4 -13 10 -16 6 -3 7 1 4 9 -7 18 -14 21 -14 7z"/>
<path d="M3730 1191 c0 -7 -5 -9 -12 -5 -7 5 -8 3 -3 -5 5 -9 10 -10 18 -2 6
6 8 14 4 18 -4 3 -7 1 -7 -6z"/>
<path d="M4390 1179 c0 -18 2 -19 15 -9 15 12 12 30 -6 30 -5 0 -9 -10 -9 -21z"/>
<path d="M2570 1161 c0 -7 -8 -11 -17 -9 -15 3 -18 -4 -16 -38 3 -34 -1 -43
-22 -54 -14 -7 -23 -15 -20 -18 2 -3 11 1 20 8 8 7 15 9 15 5 0 -4 6 -3 13 2
24 18 57 2 57 -28 0 -10 4 -19 8 -19 5 0 7 14 6 30 -1 17 2 30 7 30 5 0 9 -3
9 -7 0 -5 14 -9 30 -10 17 -1 30 2 30 7 0 6 8 10 17 10 14 0 13 3 -5 16 -14
10 -32 14 -48 10 -17 -5 -24 -2 -24 9 0 8 4 15 9 15 5 0 4 11 -2 25 -13 27
-22 31 -32 15 -5 -8 -11 -7 -21 1 -11 9 -14 9 -14 0z m50 -25 c0 -2 -9 -6 -20
-9 -11 -3 -20 -1 -20 4 0 5 9 9 20 9 11 0 20 -2 20 -4z"/>
<path d="M1990 1150 c0 -5 5 -10 10 -10 6 0 10 5 10 10 0 6 -4 10 -10 10 -5 0
-10 -4 -10 -10z"/>
<path d="M3701 1151 c-8 -5 -9 -11 -3 -15 5 -3 12 1 16 9 6 17 6 18 -13 6z"/>
<path d="M1200 1140 c0 -5 5 -10 10 -10 6 0 10 5 10 10 0 6 -4 10 -10 10 -5 0
-10 -4 -10 -10z"/>
<path d="M3508 1142 c-10 -2 -18 -7 -19 -10 -4 -36 -5 -122 -2 -122 2 0 14 5
25 11 16 9 23 8 29 -2 7 -11 9 -9 9 6 0 17 2 17 10 5 8 -12 10 -10 10 9 0 18
-4 22 -20 18 -11 -3 -20 -1 -20 4 0 5 6 9 13 9 7 1 4 7 -7 15 -10 8 -23 12
-29 8 -6 -3 -7 -1 -3 5 3 6 22 9 41 7 29 -2 35 0 35 17 0 14 -5 18 -16 14 -9
-4 -22 -3 -28 2 -6 5 -19 7 -28 4z"/>
<path d="M2665 1130 c-3 -5 -1 -10 4 -10 6 0 11 5 11 10 0 6 -2 10 -4 10 -3 0
-8 -4 -11 -10z"/>
<path d="M3356 1115 c-11 -8 -15 -15 -9 -15 6 0 16 7 23 15 16 19 11 19 -14 0z"/>
<path d="M3440 1109 c0 -5 5 -7 10 -4 6 3 10 8 10 11 0 2 -4 4 -10 4 -5 0 -10
-5 -10 -11z"/>
<path d="M1150 1091 c0 -5 5 -13 10 -16 6 -3 10 -2 10 4 0 5 -4 13 -10 16 -5
3 -10 2 -10 -4z"/>
<path d="M1070 1076 c0 -16 28 -42 36 -33 3 3 3 15 -1 26 -7 23 -35 29 -35 7z"/>
<path d="M3622 1082 c-7 -2 -17 -13 -23 -25 -9 -19 -8 -20 3 -6 18 23 38 1 27
-29 -7 -18 -5 -22 11 -22 11 0 20 1 20 3 -2 27 -28 83 -38 79z"/>
<path d="M4223 1083 c-21 -8 -15 -33 11 -43 13 -5 42 -11 65 -15 34 -5 40 -3
35 9 -3 8 -14 18 -24 21 -10 3 -21 12 -24 20 -5 15 -38 19 -63 8z"/>
<path d="M2410 1032 c6 -13 14 -21 18 -18 3 4 -2 14 -12 24 -18 16 -18 16 -6
-6z"/>
<path d="M1238 1019 c-24 -13 -23 -29 2 -29 13 0 20 7 20 20 0 23 1 23 -22 9z"/>
<path d="M1060 1000 c0 -5 5 -10 10 -10 6 0 10 5 10 10 0 6 -4 10 -10 10 -5 0
-10 -4 -10 -10z"/>
<path d="M3375 1000 c-3 -5 -1 -10 4 -10 6 0 11 5 11 10 0 6 -2 10 -4 10 -3 0
-8 -4 -11 -10z"/>
<path d="M1286 978 c-3 -13 -1 -24 4 -26 6 -2 10 -15 10 -29 0 -35 23 -24 25
13 3 54 -27 86 -39 42z"/>
<path d="M2820 991 c0 -5 5 -13 10 -16 6 -3 10 -2 10 4 0 5 -4 13 -10 16 -5 3
-10 2 -10 -4z"/>
<path d="M1396 948 c-15 -32 -17 -45 -8 -59 8 -12 9 -27 3 -42 -11 -28 -3 -43
24 -49 15 -3 19 -10 17 -33 -3 -45 8 -58 41 -42 31 14 36 37 7 37 -11 0 -20 7
-20 15 0 8 5 15 11 15 7 0 8 7 4 18 -4 9 -11 44 -16 77 -19 122 -31 134 -63
63z"/>
<path d="M2470 979 c0 -5 5 -7 10 -4 6 3 10 8 10 11 0 2 -4 4 -10 4 -5 0 -10
-5 -10 -11z"/>
<path d="M3551 968 c-18 -29 3 -50 24 -22 14 18 15 16 11 -18 -3 -21 0 -38 5
-38 5 0 9 7 9 16 0 9 10 32 22 51 l21 35 -21 -11 c-22 -12 -43 -11 -52 1 -3 4
-12 -2 -19 -14z"/>
<path d="M4367 945 c-4 -25 4 -40 17 -28 9 9 7 41 -3 47 -5 3 -11 -6 -14 -19z"/>
<path d="M3445 920 c-3 -5 -1 -10 4 -10 6 0 11 5 11 10 0 6 -2 10 -4 10 -3 0
-8 -4 -11 -10z"/>
<path d="M3530 922 c0 -6 9 -12 20 -15 11 -3 20 -3 20 -1 0 2 -9 8 -20 14 -11
6 -20 7 -20 2z"/>
<path d="M4160 922 c-5 -2 -10 -8 -10 -14 0 -5 9 -7 20 -3 15 5 20 1 25 -19 3
-14 7 -37 10 -50 5 -27 35 -44 35 -21 0 8 -4 15 -10 15 -14 0 -12 20 5 54 8
15 12 32 9 37 -5 8 -60 9 -84 1z"/>
<path d="M1220 890 c0 -5 4 -10 9 -10 6 0 13 5 16 10 3 6 -1 10 -9 10 -9 0
-16 -4 -16 -10z"/>
<path d="M1316 893 c-11 -11 -6 -23 9 -23 8 0 15 4 15 9 0 13 -16 22 -24 14z"/>
<path d="M3498 868 c-17 -18 -28 -28 -24 -22 3 7 -1 14 -9 18 -8 3 -14 2 -13
-2 1 -4 -3 -17 -10 -29 -13 -24 -4 -31 15 -12 7 7 18 9 25 7 19 -8 33 -5 33 7
0 6 5 17 10 25 11 17 16 40 9 40 -3 0 -19 -15 -36 -32z"/>
<path d="M4377 884 c-9 -10 2 -24 19 -24 8 0 14 7 14 15 0 15 -21 21 -33 9z"/>
<path d="M3393 865 c-3 -9 -3 -19 1 -22 7 -7 36 16 36 28 0 15 -30 10 -37 -6z"/>
<path d="M3537 853 c-4 -3 -7 -18 -7 -32 0 -19 3 -22 12 -13 6 6 12 21 13 32
2 20 -6 26 -18 13z"/>
<path d="M1335 840 c-3 -5 -1 -10 4 -10 6 0 11 5 11 10 0 6 -2 10 -4 10 -3 0
-8 -4 -11 -10z"/>
<path d="M2730 839 c0 -5 5 -7 10 -4 6 3 10 8 10 11 0 2 -4 4 -10 4 -5 0 -10
-5 -10 -11z"/>
<path d="M3346 827 c3 -10 9 -15 12 -12 3 3 0 11 -7 18 -10 9 -11 8 -5 -6z"/>
<path d="M1200 791 c0 -5 5 -13 10 -16 6 -3 10 -2 10 4 0 5 -4 13 -10 16 -5 3
-10 2 -10 -4z"/>
<path d="M1280 774 c0 -31 23 -28 28 4 2 15 -2 22 -12 22 -11 0 -16 -9 -16
-26z"/>
<path d="M3200 770 c0 -5 5 -10 11 -10 5 0 7 5 4 10 -3 6 -8 10 -11 10 -2 0
-4 -4 -4 -10z"/>
<path d="M3450 761 c0 -11 5 -23 10 -26 6 -3 10 1 10 9 0 9 0 19 1 23 0 4 -4
9 -10 11 -6 2 -11 -5 -11 -17z"/>
<path d="M1256 731 c-14 -5 -16 -10 -7 -15 15 -9 41 -1 41 14 0 11 -7 12 -34
1z"/>
<path d="M4193 733 c4 -6 0 -16 -9 -21 -12 -7 -9 -9 15 -10 22 0 31 4 31 15 0
9 -3 13 -7 10 -3 -4 -13 -1 -21 6 -11 8 -14 9 -9 0z"/>
<path d="M3535 719 c-9 -14 -2 -20 14 -10 8 6 9 11 3 15 -6 3 -14 1 -17 -5z"/>
<path d="M3474 698 c10 -5 23 -5 34 1 14 8 10 10 -16 9 -26 -1 -30 -3 -18 -10z"/>
<path d="M3405 690 c-3 -5 -1 -10 4 -10 6 0 11 5 11 10 0 6 -2 10 -4 10 -3 0
-8 -4 -11 -10z"/>
<path d="M1492 667 c-29 -30 -30 -62 -3 -47 29 15 39 12 43 -12 3 -24 29 -31
36 -10 2 6 -3 12 -11 12 -10 0 -13 7 -10 19 3 11 -3 28 -14 40 l-20 21 -21
-23z"/>
<path d="M3283 668 c-8 -9 -7 -16 2 -25 17 -16 25 -5 16 20 -6 16 -9 16 -18 5z"/>
<path d="M3400 650 c0 -5 5 -10 10 -10 6 0 10 5 10 10 0 6 -4 10 -10 10 -5 0
-10 -4 -10 -10z"/>
<path d="M3433 641 c-2 -27 24 -35 37 -11 13 24 13 40 0 20 -6 -10 -10 -11
-10 -2 0 20 -26 14 -27 -7z"/>
<path d="M3508 633 c7 -3 16 -2 19 1 4 3 -2 6 -13 5 -11 0 -14 -3 -6 -6z"/>
<path d="M2385 610 c-3 -5 -1 -10 4 -10 6 0 11 5 11 10 0 6 -2 10 -4 10 -3 0
-8 -4 -11 -10z"/>
<path d="M3380 601 c0 -17 22 -24 32 -10 7 10 7 7 3 -8 -3 -13 -2 -23 3 -23 5
0 12 11 14 25 5 22 2 25 -23 25 -16 0 -29 -4 -29 -9z"/>
<path d="M1763 585 c-8 -22 6 -33 17 -15 13 20 12 30 0 30 -6 0 -13 -7 -17
-15z"/>
<path d="M3345 590 c-7 -11 1 -60 12 -71 5 -5 9 12 9 36 2 42 -7 57 -21 35z"/>
<path d="M3282 581 c-10 -6 -10 -10 3 -21 13 -11 15 -9 15 9 0 24 0 24 -18 12z"/>
<path d="M3475 580 c3 -5 8 -10 11 -10 2 0 4 5 4 10 0 6 -5 10 -11 10 -5 0 -7
-4 -4 -10z"/>
<path d="M1536 546 c-9 -34 -8 -35 24 -23 36 14 37 19 6 33 -21 10 -25 9 -30
-10z"/>
<path d="M3310 559 c0 -5 5 -7 10 -4 6 3 10 8 10 11 0 2 -4 4 -10 4 -5 0 -10
-5 -10 -11z"/>
<path d="M4089 560 c0 -3 -2 -13 -4 -22 -4 -20 10 -24 21 -7 3 6 1 16 -5 22
-6 6 -11 9 -12 7z"/>
<path d="M3096 533 c-4 -9 -2 -21 4 -27 7 -7 10 -7 10 1 0 6 3 18 6 27 3 9 2
16 -4 16 -5 0 -13 -8 -16 -17z"/>
<path d="M3287 520 c-3 -11 -2 -20 3 -20 12 0 31 26 23 33 -11 12 -21 7 -26
-13z"/>
<path d="M2846 515 c4 -8 8 -15 10 -15 2 0 4 7 4 15 0 8 -4 15 -10 15 -5 0 -7
-7 -4 -15z"/>
<path d="M3249 514 c-12 -14 -11 -16 5 -13 11 2 21 10 24 17 5 17 -13 15 -29
-4z"/>
<path d="M1593 507 c-13 -5 -23 -14 -23 -19 0 -12 48 -10 56 3 11 18 -9 28
-33 16z"/>
<path d="M1440 495 c0 -8 4 -15 9 -15 5 0 14 7 21 15 10 13 9 15 -9 15 -12 0
-21 -6 -21 -15z"/>
<path d="M3314 486 c-11 -23 -10 -24 7 -13 11 7 19 17 19 24 0 21 -14 15 -26
-11z"/>
<path d="M3205 461 c-11 -5 -23 -7 -27 -4 -5 2 -9 1 -9 -4 -7 -45 -5 -52 22
-62 27 -9 28 -9 22 20 -5 28 -5 29 27 23 28 -6 32 -4 28 12 -4 21 -32 28 -63
15z"/>
<path d="M3360 460 c0 -5 7 -10 16 -10 8 0 12 5 9 10 -3 6 -10 10 -16 10 -5 0
-9 -4 -9 -10z"/>
<path d="M1830 451 c0 -5 5 -13 10 -16 6 -3 10 -2 10 4 0 5 -4 13 -10 16 -5 3
-10 2 -10 -4z"/>
<path d="M1372 434 c-27 -18 -20 -34 14 -34 25 0 27 4 16 33 -7 16 -9 16 -30
1z"/>
<path d="M1630 435 c-8 -9 -8 -15 -2 -15 12 0 26 19 19 26 -2 2 -10 -2 -17
-11z"/>
<path d="M1960 418 c0 -19 2 -20 10 -8 13 19 13 30 0 30 -5 0 -10 -10 -10 -22z"/>
<path d="M3087 432 c-5 -7 -12 -10 -17 -7 -5 3 -11 1 -14 -4 -6 -8 34 -24 42
-16 2 2 2 12 0 22 -3 13 -6 15 -11 5z"/>
<path d="M1504 413 c-10 -34 -21 -48 -40 -51 -25 -5 -38 -18 -30 -31 5 -7 15
-6 32 5 13 9 33 14 44 11 13 -3 21 1 25 14 4 10 15 19 26 19 10 0 19 5 19 11
0 7 -7 8 -17 4 -35 -14 -48 -11 -45 13 4 26 -6 30 -14 5z"/>
<path d="M1633 382 c-33 -35 -40 -48 -32 -59 17 -20 27 -16 31 15 4 39 34 37
30 -3 -2 -29 -2 -29 13 -11 8 11 15 31 15 45 0 19 3 22 12 13 15 -15 38 -16
38 -2 0 6 -7 10 -15 10 -8 0 -22 9 -32 19 -18 18 -19 18 -60 -27z"/>
<path d="M2850 400 c0 -5 4 -10 9 -10 6 0 13 5 16 10 3 6 -1 10 -9 10 -9 0
-16 -4 -16 -10z"/>
<path d="M2890 390 c0 -5 5 -10 10 -10 6 0 10 5 10 10 0 6 -4 10 -10 10 -5 0
-10 -4 -10 -10z"/>
<path d="M3053 380 c1 -11 5 -20 9 -20 4 0 8 9 8 20 0 11 -4 20 -9 20 -6 0 -9
-9 -8 -20z"/>
<path d="M2760 381 c0 -17 18 -21 24 -6 3 9 0 15 -9 15 -8 0 -15 -4 -15 -9z"/>
<path d="M2938 376 c17 -9 20 -14 10 -24 -6 -6 -9 -15 -5 -19 9 -9 14 -3 22
28 6 24 4 27 -21 27 -27 0 -27 -1 -6 -12z"/>
<path d="M2980 379 c0 -5 5 -7 10 -4 6 3 10 8 10 11 0 2 -4 4 -10 4 -5 0 -10
-5 -10 -11z"/>
<path d="M3138 363 c-7 -16 -19 -36 -27 -46 -10 -12 -11 -21 -4 -28 7 -7 12
-3 17 15 3 14 11 26 16 26 5 0 16 14 25 30 14 27 14 30 0 30 -8 0 -21 -12 -27
-27z"/>
<path d="M2020 376 c0 -2 7 -6 15 -10 8 -3 15 -1 15 4 0 6 -7 10 -15 10 -8 0
-15 -2 -15 -4z"/>
<path d="M1941 361 c-8 -5 -9 -11 -3 -15 5 -3 12 1 16 9 6 17 6 18 -13 6z"/>
<path d="M3940 357 c-19 -9 -25 -22 -28 -50 -1 -23 1 -36 7 -32 6 3 19 0 30
-7 16 -10 23 -10 33 0 6 6 18 12 26 12 19 0 41 29 42 55 l1 20 9 -20 c5 -11 9
-14 9 -7 1 6 4 11 9 11 17 -3 32 2 32 9 0 17 -62 7 -76 -12 -8 -11 -14 -14
-14 -7 0 7 -5 9 -10 6 -6 -4 -8 -11 -5 -16 4 -5 0 -10 -7 -11 -7 0 -17 -2 -23
-2 -5 -1 -16 -5 -22 -9 -9 -5 -13 -3 -13 7 0 9 6 16 13 16 7 0 22 7 33 15 16
13 17 16 4 25 -19 12 -20 12 -50 -3z"/>
<path d="M1731 338 c-15 -24 -1 -44 23 -35 19 8 21 31 3 45 -10 8 -16 6 -26
-10z"/>
<path d="M2843 334 c-6 -13 -8 -24 -3 -24 4 0 11 7 14 16 4 9 9 15 11 12 3 -3
-2 -22 -11 -43 -9 -21 -19 -34 -22 -28 -8 12 -36 3 -39 -13 -1 -6 15 -9 39 -8
44 2 68 25 49 47 -6 8 -6 18 -1 27 11 17 13 37 3 27 -3 -4 -11 -3 -17 2 -7 6
-15 1 -23 -15z"/>
<path d="M2982 344 c-12 -8 -22 -22 -22 -30 0 -23 16 -16 29 12 7 17 17 24 26
20 8 -3 15 -1 15 4 0 15 -23 12 -48 -6z"/>
<path d="M3105 350 c-3 -5 -1 -10 4 -10 6 0 11 5 11 10 0 6 -2 10 -4 10 -3 0
-8 -4 -11 -10z"/>
<path d="M2103 330 c-3 -11 -9 -20 -14 -20 -5 0 -9 -7 -9 -15 0 -38 28 -5 36
43 4 20 -7 14 -13 -8z"/>
<path d="M2132 339 c2 -6 8 -10 13 -10 5 0 11 4 13 10 2 6 -4 11 -13 11 -9 0
-15 -5 -13 -11z"/>
<path d="M2225 340 c-3 -5 -1 -10 4 -10 6 0 11 5 11 10 0 6 -2 10 -4 10 -3 0
-8 -4 -11 -10z"/>
<path d="M2045 300 c-3 -5 -1 -10 4 -10 6 0 11 5 11 10 0 6 -2 10 -4 10 -3 0
-8 -4 -11 -10z"/>
<path d="M3040 303 c0 -14 19 -38 25 -32 8 8 -5 39 -16 39 -5 0 -9 -3 -9 -7z"/>
<path d="M1660 286 c0 -9 5 -16 10 -16 6 0 10 4 10 9 0 6 -4 13 -10 16 -5 3
-10 -1 -10 -9z"/>
<path d="M1765 290 c-3 -5 -1 -18 5 -29 7 -14 7 -22 -1 -27 -6 -3 -8 -16 -5
-27 3 -12 0 -27 -6 -34 -8 -10 -7 -13 3 -13 14 0 39 43 39 67 0 18 27 16 34
-2 9 -25 26 -17 26 14 0 29 -31 54 -38 32 -4 -12 -23 -15 -21 -3 5 29 -21 46
-36 22z"/>
<path d="M2240 275 c0 -15 7 -33 15 -41 8 -9 15 -11 15 -5 0 6 12 18 28 26 22
13 23 15 5 12 -13 -3 -30 3 -42 15 -21 19 -21 19 -21 -7z m30 -15 c0 -5 -2
-10 -4 -10 -3 0 -8 5 -11 10 -3 6 -1 10 4 10 6 0 11 -4 11 -10z"/>
<path d="M1542 270 c-11 -17 -10 -20 7 -20 14 0 18 5 14 20 -3 11 -6 20 -7 20
-1 0 -7 -9 -14 -20z"/>
<path d="M2644 274 c3 -8 2 -12 -3 -9 -5 3 -12 1 -16 -5 -3 -5 3 -10 14 -10
14 0 21 6 21 20 0 11 -5 20 -11 20 -6 0 -8 -7 -5 -16z"/>
<path d="M2743 283 c-22 -4 -33 -33 -13 -33 6 0 12 0 15 0 3 0 5 3 4 6 0 3 8
12 18 20 18 14 15 15 -24 7z"/>
<path d="M2930 275 c-7 -8 -8 -15 -2 -15 5 0 15 7 22 15 7 8 8 15 2 15 -5 0
-15 -7 -22 -15z"/>
<path d="M3012 264 c2 -23 4 -24 15 -8 17 23 16 34 -2 34 -10 0 -14 -9 -13
-26z"/>
<path d="M2000 269 c0 -5 5 -7 10 -4 6 3 10 8 10 11 0 2 -4 4 -10 4 -5 0 -10
-5 -10 -11z"/>
<path d="M2392 264 c-7 -8 -17 -12 -23 -9 -5 4 -9 2 -9 -4 0 -5 5 -13 10 -16
6 -3 10 -1 10 4 0 6 7 11 15 11 8 0 15 5 15 11 0 6 7 3 16 -5 21 -22 27 -20
14 4 -13 24 -30 25 -48 4z"/>
<path d="M2590 270 c0 -5 5 -10 10 -10 6 0 10 5 10 10 0 6 -4 10 -10 10 -5 0
-10 -4 -10 -10z"/>
<path d="M1717 248 c-7 -25 -3 -33 12 -23 13 8 15 45 2 45 -5 0 -11 -10 -14
-22z"/>
<path d="M3760 257 c-26 -13 -36 -53 -15 -61 16 -6 27 3 48 42 20 36 11 41
-33 19z"/>
<path d="M1645 240 c-3 -5 -1 -10 4 -10 6 0 11 5 11 10 0 6 -2 10 -4 10 -3 0
-8 -4 -11 -10z"/>
<path d="M2886 234 c-24 -23 -19 -27 9 -8 14 9 25 18 25 20 0 10 -20 3 -34
-12z"/>
<path d="M2577 233 c-13 -12 -8 -35 6 -27 9 6 9 5 0 -8 -13 -15 -8 -28 9 -28
5 0 7 4 4 9 -4 5 -1 11 6 13 9 3 8 10 -4 26 -8 12 -18 19 -21 15z"/>
<path d="M3931 233 c-1 -17 16 -25 25 -12 4 7 3 9 -4 5 -5 -3 -13 0 -15 6 -4
9 -6 10 -6 1z"/>
<path d="M2110 220 c0 -5 5 -10 10 -10 6 0 10 5 10 10 0 6 -4 10 -10 10 -5 0
-10 -4 -10 -10z"/>
<path d="M2300 226 c0 -2 7 -6 15 -10 8 -3 15 -1 15 4 0 6 -7 10 -15 10 -8 0
-15 -2 -15 -4z"/>
<path d="M1890 210 c-16 -10 -22 -43 -14 -72 9 -31 39 -17 49 22 8 32 -14 63
-35 50z"/>
<path d="M2345 210 c-5 -8 -10 -21 -12 -29 -1 -11 2 -11 14 2 8 8 13 21 11 28
-3 10 -6 10 -13 -1z"/>
<path d="M2503 204 c-2 -7 -6 -20 -7 -30 -2 -10 -10 -20 -20 -24 -16 -5 -15
-8 4 -30 16 -18 23 -21 32 -12 8 8 9 15 1 23 -5 5 -8 21 -5 35 3 19 7 22 18
13 8 -6 14 -10 15 -8 8 35 4 47 -14 46 -11 -1 -21 -7 -24 -13z"/>
<path d="M2700 212 c0 -11 46 -32 54 -25 7 7 -24 32 -41 33 -7 0 -13 -4 -13
-8z"/>
<path d="M2827 201 c-2 -10 0 -25 5 -32 8 -11 8 -10 4 4 -3 11 0 20 9 23 8 4
12 10 9 15 -9 15 -21 10 -27 -10z"/>
<path d="M2210 201 c0 -13 26 -32 33 -24 8 7 -11 33 -24 33 -5 0 -9 -4 -9 -9z"/>
<path d="M2398 204 c-11 -11 -10 -46 1 -40 5 4 11 1 13 -6 5 -15 28 -1 28 17
0 8 -6 12 -14 9 -8 -3 -16 2 -18 11 -1 9 -6 13 -10 9z"/>
<path d="M2920 206 c0 -2 7 -6 15 -10 8 -3 15 -1 15 4 0 6 -7 10 -15 10 -8 0
-15 -2 -15 -4z"/>
<path d="M2660 190 c-12 -8 -11 -10 8 -10 12 0 22 5 22 10 0 13 -11 13 -30 0z"/>
<path d="M2170 181 c0 -6 4 -13 10 -16 6 -3 7 1 4 9 -7 18 -14 21 -14 7z"/>
<path d="M1950 170 c-10 -6 -11 -10 -2 -10 19 0 14 -21 -7 -27 -12 -3 -21 -17
-25 -41 -6 -42 -2 -50 19 -32 13 10 15 9 15 -8 0 -22 -15 -37 -45 -45 -11 -3
-4 -5 18 -6 25 -1 37 3 35 12 -1 6 5 26 15 44 14 27 15 32 2 37 -19 7 -19 26
0 26 8 0 15 -5 15 -10 0 -7 6 -7 19 -1 21 12 31 5 31 -21 0 -11 4 -17 9 -13
18 11 22 -15 6 -39 -12 -18 -13 -26 -4 -32 7 -4 17 0 24 9 7 10 18 17 25 17
10 0 10 -3 0 -15 -10 -13 -9 -15 11 -15 13 0 30 9 37 20 7 11 21 20 32 20 23
0 26 -10 8 -28 -9 -9 30 -12 177 -11 l190 1 -85 13 c-47 6 -86 9 -88 5 -4 -9
-52 0 -52 10 0 4 -21 11 -47 15 -27 3 -58 13 -70 21 -12 8 -36 14 -53 14 -18
0 -29 4 -25 10 6 10 -7 14 -32 11 -6 -1 -14 8 -18 19 -6 18 -13 21 -41 17 -20
-3 -34 0 -34 5 0 10 -29 37 -40 38 -3 0 -12 -5 -20 -10z m330 -145 c0 -8 -4
-15 -10 -15 -5 0 -7 7 -4 15 4 8 8 15 10 15 2 0 4 -7 4 -15z"/>
<path d="M2346 161 c-3 -5 1 -11 9 -15 9 -3 15 0 15 9 0 16 -16 20 -24 6z"/>
<path d="M2272 148 c3 -7 12 -14 21 -16 12 -2 15 1 11 12 -7 19 -38 22 -32 4z"/>
<path d="M2565 150 c-3 -5 1 -10 9 -10 9 0 16 5 16 10 0 6 -4 10 -9 10 -6 0
-13 -4 -16 -10z"/>
<path d="M1511 134 c0 -11 3 -14 6 -6 3 7 2 16 -1 19 -3 4 -6 -2 -5 -13z"/>
<path d="M1790 140 c0 -5 6 -10 14 -10 8 0 18 5 21 10 3 6 -3 10 -14 10 -12 0
-21 -4 -21 -10z"/>
<path d="M2381 124 c0 -11 3 -14 6 -6 3 7 2 16 -1 19 -3 4 -6 -2 -5 -13z"/>
<path d="M2400 106 c0 -17 14 -29 23 -20 8 8 -3 34 -14 34 -5 0 -9 -6 -9 -14z"/>
<path d="M2350 106 c0 -2 7 -9 15 -16 9 -7 15 -8 15 -2 0 5 -7 12 -15 16 -8 3
-15 4 -15 2z"/>
<path d="M1820 35 c0 -8 7 -15 15 -15 8 0 15 7 15 15 0 8 -7 15 -15 15 -8 0
-15 -7 -15 -15z"/>
<path d="M3726 14 c-6 -16 2 -18 22 -5 11 7 11 9 -1 14 -9 3 -18 -1 -21 -9z"/>
<path d="M3480 10 c-13 -8 -12 -10 3 -10 9 0 17 5 17 10 0 12 -1 12 -20 0z"/>
<path d="M4505 10 c-4 -6 3 -10 14 -10 25 0 27 6 6 13 -8 4 -17 2 -20 -3z"/>
</g>
</svg>
