<?xml version="1.0" standalone="no"?>
<!DOCTYPE svg PUBLIC "-//W3C//DTD SVG 20010904//EN"
 "http://www.w3.org/TR/2001/REC-SVG-20010904/DTD/svg10.dtd">
<svg version="1.0" xmlns="http://www.w3.org/2000/svg"
 width="934.000000pt" height="934.000000pt" viewBox="0 0 934.000000 934.000000"
 preserveAspectRatio="xMidYMid meet">
<metadata>
Created by potrace 1.11, written by Peter Selinger 2001-2013
</metadata>
<g transform="translate(0.000000,934.000000) scale(0.100000,-0.100000)"
fill="#000000" stroke="none">
<path d="M0 4670 l0 -4670 4469 0 4470 0 16 58 c38 127 126 490 160 658 183
903 218 1756 119 2864 -16 186 -60 549 -66 556 -8 7 -200 44 -335 63 -600 87
-1195 15 -1613 -194 -61 -30 -110 -57 -110 -59 0 -2 44 -39 98 -82 327 -261
642 -670 853 -1108 139 -290 160 -382 162 -706 1 -259 -26 -423 -103 -627
-210 -559 -750 -915 -1517 -1000 -152 -17 -152 -17 -255 6 -392 87 -738 269
-950 500 -348 379 -449 949 -292 1649 76 341 229 763 389 1072 25 46 43 85 42
85 -8 5 -155 48 -217 64 -181 46 -267 55 -500 56 -197 0 -240 -3 -340 -23
-559 -114 -1037 -463 -1464 -1071 -218 -311 -439 -745 -581 -1141 -27 -74 -52
-139 -55 -143 -4 -4 -9 100 -13 233 -5 250 4 568 23 744 66 618 252 1095 597
1526 88 110 312 336 433 435 287 237 592 362 1045 427 60 9 203 13 430 13 364
-1 486 -11 815 -71 139 -25 504 -112 575 -137 l40 -14 150 77 c828 423 1681
517 2512 274 l22 -6 -30 113 c-264 996 -688 1764 -1417 2563 -144 156 -612
622 -795 788 -349 319 -732 579 -1198 814 l-165 84 -2702 0 -2702 0 0 -4670z"/>
<path d="M6332 3217 c-151 -311 -266 -636 -329 -937 -24 -111 -27 -148 -27
-325 -1 -161 2 -213 17 -265 57 -212 193 -348 407 -410 56 -16 113 -23 225
-27 l150 -5 65 42 c232 151 373 337 416 550 32 162 5 320 -90 515 -60 123
-294 479 -411 625 -134 169 -316 340 -361 340 -7 0 -35 -47 -62 -103z"/>
</g>
</svg>
