<?xml version="1.0" standalone="no"?>
<!--
  ~ safari-pinned-tab.svg
  ~ Copyright (c) 2017 thegrumpydictator@gmail.com
  ~
  ~ This file is part of Firefly III.
  ~
  ~ Firefly III is free software: you can redistribute it and/or modify
  ~ it under the terms of the GNU General Public License as published by
  ~ the Free Software Foundation, either version 3 of the License, or
  ~ (at your option) any later version.
  ~
  ~ Firefly III is distributed in the hope that it will be useful,
  ~ but WITHOUT ANY WARRANTY; without even the implied warranty of
  ~ MERCHANTABILITY or FITNESS FOR A PARTICULAR PURPOSE.  See the
  ~ GNU General Public License for more details.
  ~
  ~ You should have received a copy of the GNU General Public License
  ~ along with Firefly III.  If not, see <http://www.gnu.org/licenses/>.
  -->

<!DOCTYPE svg PUBLIC "-//W3C//DTD SVG 20010904//EN"
        "http://www.w3.org/TR/2001/REC-SVG-20010904/DTD/svg10.dtd">
<svg version="1.0" xmlns="http://www.w3.org/2000/svg"
     width="512.000000pt" height="512.000000pt" viewBox="0 0 512.000000 512.000000"
     preserveAspectRatio="xMidYMid meet">
    <metadata>
        Created by potrace 1.11, written by Peter Selinger 2001-2013
    </metadata>
    <g transform="translate(0.000000,512.000000) scale(0.100000,-0.100000)"
       fill="#000000" stroke="none">
        <path d="M89 4009 c-17 -4 -43 -19 -58 -33 l-26 -26 -2 -1383 -3 -1383 28 -33
c19 -23 39 -35 67 -39 22 -4 1144 -7 2493 -6 2449 0 2452 0 2480 21 15 11 33
31 39 44 10 19 13 325 13 1389 0 1064 -3 1370 -13 1389 -6 13 -24 33 -39 44
-28 21 -31 21 -2487 21 -1353 1 -2474 -2 -2492 -5z m683 -218 c8 -1 -18 -100
-42 -156 -43 -100 -129 -209 -220 -277 -71 -53 -223 -117 -277 -118 -10 0 -13
62 -13 278 l0 277 272 -2 c150 -1 276 -2 280 -2z m3334 0 c7 -1 15 -18 19 -38
58 -324 288 -593 597 -699 64 -21 154 -40 171 -36 4 1 6 -204 5 -455 l-3 -458
-30 -3 c-92 -10 -242 -69 -354 -140 -70 -45 -197 -171 -244 -242 -57 -87 -105
-198 -129 -295 -11 -49 -25 -92 -29 -95 -10 -7 -3094 -4 -3105 3 -6 3 -11 22
-12 41 -6 83 -72 245 -142 350 -72 106 -185 209 -301 275 -72 40 -204 88 -266
97 -26 3 -51 8 -55 11 -5 2 -8 208 -8 456 l0 453 29 2 c16 1 68 13 116 27 305
89 540 337 620 655 1 3 5 25 9 50 l8 45 1546 -2 c851 -1 1552 -2 1558 -2z
m782 0 c9 -1 12 -63 12 -277 l0 -276 -32 6 c-18 4 -40 9 -48 11 -8 2 -35 11
-60 21 -206 82 -361 268 -413 494 l-6 25 267 -2 c147 -1 273 -2 280 -2z
m-4527 -1947 c161 -65 301 -202 369 -359 21 -48 25 -61 36 -114 3 -14 7 -28
10 -33 3 -4 -1 -8 -8 -9 -16 -1 -530 -1 -540 0 -5 1 -8 125 -8 277 l0 276 41
-7 c22 -4 67 -18 100 -31z m4539 -239 c0 -213 -3 -275 -12 -276 -18 -1 -499
-1 -525 0 -21 1 -22 2 -9 46 8 25 12 45 10 45 -8 0 58 134 86 175 45 66 128
147 190 187 73 46 191 93 243 97 16 1 17 -18 17 -274z"/>
        <path d="M1448 3348 c-46 -9 -74 -46 -82 -108 -17 -129 -102 -204 -239 -209
-10 -1 -32 -14 -48 -30 l-29 -29 0 -401 c0 -230 4 -410 10 -425 12 -34 46 -54
100 -61 106 -13 192 -94 205 -193 8 -64 19 -88 50 -108 25 -16 101 -18 1118
-18 601 -1 1109 2 1131 5 54 9 73 33 90 117 24 117 91 181 206 197 54 8 74 18
94 47 14 19 16 78 16 431 l0 409 -29 29 c-16 16 -38 29 -48 30 -113 4 -199 65
-227 160 -9 29 -16 63 -16 77 0 30 -51 82 -82 83 -124 5 -2195 2 -2220 -3z
m2125 -218 c48 -124 120 -204 229 -255 l73 -33 -2 -269 c-1 -147 -2 -275 -2
-283 -1 -9 -28 -27 -63 -43 -107 -46 -187 -129 -226 -234 l-18 -48 -1003 0
-1004 0 -14 35 c-46 116 -118 195 -220 242 -38 18 -70 35 -73 39 -4 6 -5 456
-1 545 1 15 15 26 56 43 30 12 72 36 94 51 49 36 114 120 137 180 10 25 21 47
25 50 4 3 456 5 1005 5 l997 0 10 -25z"/>
        <path d="M2013 3012 c-34 -5 -73 -58 -73 -99 0 -52 55 -102 104 -94 4 1 16 -1
25 -4 16 -5 17 -32 17 -319 0 -242 3 -320 13 -339 35 -66 137 -65 172 0 10 19
13 107 14 386 1 199 -3 378 -8 397 -14 57 -45 73 -151 74 -50 1 -101 0 -113
-2z"/>
        <path d="M2608 3012 c-35 -9 -58 -28 -71 -56 -12 -25 -14 -101 -12 -406 1
-206 5 -383 9 -392 4 -9 20 -25 34 -34 24 -16 57 -18 276 -19 282 -1 302 3
322 65 15 45 17 731 3 777 -20 63 -37 67 -306 68 -132 0 -247 -1 -255 -3z
m370 -453 l2 -256 -128 1 -129 0 -1 250 c0 138 1 253 3 256 2 4 59 6 127 6
l123 -1 3 -256z"/>
    </g>
</svg>
