<?xml version="1.0" standalone="no"?>
<!DOCTYPE svg PUBLIC "-//W3C//DTD SVG 20010904//EN"
 "http://www.w3.org/TR/2001/REC-SVG-20010904/DTD/svg10.dtd">
<svg version="1.0" xmlns="http://www.w3.org/2000/svg"
 width="512.000000pt" height="512.000000pt" viewBox="0 0 512.000000 512.000000"
 preserveAspectRatio="xMidYMid meet">
<metadata>
Created by potrace 1.11, written by Peter Selinger 2001-2013
</metadata>
<g transform="translate(0.000000,512.000000) scale(0.100000,-0.100000)"
fill="#000000" stroke="none">
<path d="M697 5086 c30 -37 50 -45 50 -21 0 14 -10 19 -29 16 -4 0 -10 8 -13
19 -4 11 -13 20 -22 20 -11 0 -7 -9 14 -34z"/>
<path d="M1240 5101 c-12 -24 -13 -68 -1 -76 13 -8 41 23 41 45 0 10 5 22 10
25 18 11 10 25 -15 25 -14 0 -29 -8 -35 -19z"/>
<path d="M1962 5113 c7 -22 -67 -83 -154 -127 -43 -22 -75 -53 -64 -63 6 -6
32 0 101 21 27 8 65 30 65 38 0 4 5 8 11 8 6 0 17 7 25 15 9 8 26 15 38 15 28
0 43 16 46 50 4 46 1 50 -35 50 -19 0 -34 -3 -33 -7z"/>
<path d="M4180 5111 c0 -11 21 -19 38 -14 21 8 13 23 -13 23 -14 0 -25 -4 -25
-9z"/>
<path d="M2239 5084 c-14 -15 -25 -20 -29 -14 -4 7 -14 1 -24 -14 -9 -14 -13
-26 -9 -26 5 0 0 -5 -9 -11 -18 -10 -25 -31 -9 -26 8 2 14 -8 10 -15 -1 -2 -2
-16 -4 -33 -1 -17 -7 -29 -13 -27 -7 1 -12 -4 -12 -12 0 -8 -11 -17 -25 -20
-14 -4 -23 -11 -20 -16 3 -6 -1 -10 -9 -10 -8 0 -21 -9 -28 -19 -7 -10 -29
-28 -48 -38 -19 -11 -36 -27 -38 -36 -5 -24 12 -21 46 8 17 14 35 25 41 25 7
0 14 7 17 15 3 8 13 17 22 20 10 3 25 19 34 36 10 16 22 28 26 25 5 -3 21 2
36 10 16 7 35 14 42 14 8 0 17 7 20 15 4 8 12 15 20 15 16 0 34 31 34 59 0 13
-7 21 -17 21 -15 0 -16 2 -3 10 8 5 11 10 6 10 -5 0 -4 6 2 13 7 8 7 17 -1 27
-18 23 -32 21 -58 -6z"/>
<path d="M818 5084 c-13 -13 -14 -22 -6 -46 8 -23 7 -37 -4 -62 -13 -26 -13
-33 -2 -44 19 -18 17 -27 -6 -29 -13 -1 -18 3 -14 10 3 7 -2 3 -10 -7 -9 -11
-16 -33 -16 -49 0 -35 -16 -67 -34 -67 -8 0 -21 -12 -30 -26 -10 -14 -23 -23
-29 -21 -7 2 -22 -7 -34 -21 -14 -17 -27 -23 -38 -18 -10 3 -15 9 -12 12 3 4
0 12 -7 20 -9 9 -12 30 -9 65 4 48 3 51 -16 46 -14 -3 -21 0 -21 9 0 8 -3 14
-7 14 -18 -1 -29 -17 -32 -50 -1 -19 -18 -68 -36 -108 -35 -75 -36 -96 -5
-112 13 -7 24 -5 41 9 37 28 69 43 99 45 16 1 46 18 69 39 23 20 48 37 57 37
23 0 74 29 108 62 17 16 43 31 58 35 36 7 44 19 50 74 6 56 -6 82 -33 74 -27
-9 -43 3 -28 21 6 7 9 21 5 29 -3 8 -1 15 4 15 17 0 11 18 -12 40 -26 24 -29
24 -50 4z"/>
<path d="M2325 4999 c-4 -6 -5 -12 -2 -15 2 -3 7 2 10 11 7 17 1 20 -8 4z"/>
<path d="M4150 4979 c-9 -12 -30 -21 -55 -23 -22 -3 -44 -5 -48 -5 -5 -1 -5
-5 -2 -11 3 -5 -6 -12 -20 -16 -13 -3 -23 -10 -20 -14 3 -5 -10 -7 -30 -6 -19
2 -36 -1 -38 -7 -4 -14 -59 -18 -74 -5 -21 17 -15 -6 7 -30 21 -23 26 -57 10
-67 -5 -3 -10 -11 -10 -17 0 -6 3 -9 6 -5 9 9 38 -23 41 -46 2 -11 -5 -26 -16
-34 -22 -15 -18 -43 6 -43 12 0 15 -8 11 -38 -6 -43 14 -87 26 -56 5 13 9 14
21 4 12 -10 16 -9 21 4 9 22 31 20 37 -4 4 -16 11 -20 32 -16 31 6 57 25 50
36 -3 5 -1 11 4 14 5 4 12 24 16 46 4 21 19 57 35 78 21 29 25 43 17 51 -13
13 -18 33 -20 86 -2 39 4 52 48 100 29 32 27 41 -8 43 -22 1 -37 -5 -47 -19z
m-57 -204 c-3 -9 -8 -14 -10 -11 -3 3 -2 9 2 15 9 16 15 13 8 -4z m-92 -85
c21 -12 26 -49 7 -51 -27 -3 -43 3 -55 19 -17 22 -16 30 5 35 9 3 18 5 20 6 2
0 12 -4 23 -9z"/>
<path d="M1020 4973 c5 -2 10 -13 10 -22 0 -25 11 -33 27 -20 23 20 19 25 -35
43 -7 3 -8 2 -2 -1z"/>
<path d="M4298 4918 c-33 -31 -42 -57 -18 -51 29 8 66 51 53 64 -7 7 -18 4
-35 -13z"/>
<path d="M350 4919 c0 -5 5 -7 10 -4 6 3 10 8 10 11 0 2 -4 4 -10 4 -5 0 -10
-5 -10 -11z"/>
<path d="M647 4916 c-3 -8 -3 -17 1 -21 4 -4 8 -10 8 -13 6 -28 18 -51 29 -56
18 -7 27 48 13 79 -12 27 -43 34 -51 11z"/>
<path d="M4644 4912 c-11 -7 -38 -52 -31 -52 2 0 13 14 25 30 24 31 24 35 6
22z"/>
<path d="M1655 4880 c3 -5 8 -10 11 -10 2 0 4 5 4 10 0 6 -5 10 -11 10 -5 0
-7 -4 -4 -10z"/>
<path d="M4951 4762 c-45 -16 -127 -87 -112 -97 5 -3 12 -1 16 5 3 5 19 7 35
3 20 -4 39 1 57 13 16 10 31 17 36 16 4 -1 7 5 7 13 0 8 -6 15 -12 15 -10 0
-10 2 0 9 11 6 11 10 0 18 -7 6 -19 8 -27 5z"/>
<path d="M4480 4750 c0 -6 -4 -9 -9 -6 -9 6 -23 -58 -25 -114 -1 -30 -5 -35
-32 -40 -40 -9 -54 -18 -54 -35 0 -8 -9 -19 -21 -25 -30 -17 -20 -40 31 -70
38 -22 78 -71 93 -115 2 -6 13 -5 29 3 42 23 63 12 65 -33 2 -29 10 -45 33
-65 16 -14 30 -32 30 -41 0 -8 19 -23 42 -34 51 -24 79 -61 54 -71 -30 -11
-83 5 -89 27 -3 12 -10 18 -16 15 -6 -4 -8 -13 -4 -21 3 -8 0 -15 -5 -15 -19
0 -16 -99 3 -120 19 -21 19 -44 0 -60 -12 -10 -18 -10 -30 0 -8 7 -15 19 -15
26 0 8 -4 14 -10 14 -5 0 -35 24 -65 53 -38 36 -57 63 -61 87 -7 36 -39 80
-59 80 -6 0 -21 13 -33 29 -20 27 -24 29 -51 18 -25 -9 -37 -8 -66 6 -19 9
-35 21 -35 27 0 16 -36 -6 -44 -26 -8 -22 75 -98 124 -113 41 -13 180 -142
198 -184 6 -15 23 -32 37 -39 13 -6 27 -18 30 -27 3 -9 17 -18 32 -19 14 -1
35 -9 45 -19 10 -9 18 -12 18 -7 0 5 11 -8 25 -27 25 -37 50 -53 66 -43 5 3 9
0 9 -6 0 -6 4 -9 9 -6 5 3 14 -1 21 -9 9 -10 9 -15 1 -15 -15 0 -14 -35 2 -49
10 -7 17 -7 24 0 8 8 17 7 32 -3 12 -8 19 -17 16 -20 -3 -3 6 -13 19 -22 25
-16 25 -16 44 27 17 39 18 45 3 77 -20 46 -19 44 -34 31 -11 -9 -17 -7 -28 6
-12 15 -12 16 1 8 13 -8 13 -6 1 8 -7 9 -17 14 -22 11 -5 -3 -9 6 -9 20 0 21
-5 26 -24 26 -21 0 -23 4 -22 45 0 26 5 43 11 40 6 -3 18 -8 28 -11 9 -4 17
-12 17 -19 0 -8 11 -12 29 -10 23 2 32 -3 43 -24 7 -14 23 -37 36 -51 22 -25
31 -67 12 -55 -6 4 1 -10 15 -31 14 -21 28 -47 31 -60 7 -28 54 -29 54 -1 0
15 3 16 20 7 11 -6 18 -15 15 -19 -2 -5 7 -11 21 -14 34 -6 38 8 29 106 -4 45
-8 101 -9 124 0 23 -4 39 -8 37 -14 -9 -8 44 6 59 11 11 12 17 3 27 -9 10 -9
11 1 6 10 -6 12 4 10 46 -3 57 -6 60 -65 47 -38 -8 -49 2 -57 53 -6 36 -4 38
27 46 18 5 36 5 42 1 15 -15 24 -10 40 22 19 35 14 59 -11 59 -10 0 -26 8 -37
18 -11 9 -17 11 -13 5 4 -7 2 -13 -4 -13 -15 0 -61 51 -55 61 16 25 -125 37
-162 13 -27 -17 -57 -18 -70 -1 -13 16 -12 47 1 47 6 0 5 4 -3 9 -11 7 -11 10
0 17 7 4 14 3 17 -4 2 -8 8 -8 18 3 8 8 22 12 32 9 12 -4 13 -3 4 3 -10 8 -10
12 3 23 16 14 21 35 5 25 -5 -3 -10 -2 -10 4 0 6 -7 8 -16 4 -20 -7 -49 25
-70 77 -10 26 -22 39 -30 36 -17 -7 -37 19 -38 52 -1 19 -6 26 -16 23 -8 -2
-23 -3 -33 -3 -9 0 -24 -12 -32 -29 -9 -16 -12 -29 -8 -29 4 0 -3 -7 -15 -16
-21 -14 -25 -14 -48 1 -29 19 -25 47 10 80 12 11 19 19 17 18 -2 -2 -9 7 -15
19 -12 24 -46 37 -46 18z m516 -685 c4 -8 10 -12 15 -9 5 3 9 -1 9 -9 0 -8
-14 -20 -31 -26 -28 -9 -30 -9 -24 9 4 11 2 20 -4 20 -6 0 -8 7 -5 15 8 19 33
19 40 0z m-216 -84 c-6 -12 -16 -21 -21 -21 -14 0 -2 52 14 62 16 10 21 -16 7
-41z m270 39 c0 -5 -2 -10 -4 -10 -3 0 -8 5 -11 10 -3 6 -1 10 4 10 6 0 11 -4
11 -10z m-366 -22 c8 -39 3 -54 -16 -54 -14 0 -18 5 -14 21 3 11 6 28 6 38 0
25 19 21 24 -5z m400 -6 c2 -4 -3 -16 -11 -27 -15 -20 -15 -20 -10 2 3 12 0
24 -7 27 -6 2 -3 5 6 5 9 1 19 -2 22 -7z m-508 -97 c-3 -20 -16 -31 -16 -13 0
13 8 28 16 28 1 0 1 -7 0 -15z m188 -201 c3 -8 2 -12 -4 -9 -6 3 -10 10 -10
16 0 14 7 11 14 -7z"/>
<path d="M1720 4649 c-24 -11 -53 -18 -64 -15 -11 3 -31 -4 -46 -17 -15 -12
-37 -29 -50 -37 -12 -8 -43 -31 -69 -51 -25 -21 -66 -42 -90 -49 -60 -16 -79
-29 -91 -65 -6 -16 -9 -31 -8 -33 2 -2 -5 -8 -15 -14 -14 -7 -21 -6 -31 8 -18
23 -39 8 -33 -23 10 -53 -86 -143 -152 -143 -19 0 -38 -11 -60 -35 -17 -19
-35 -35 -40 -35 -5 0 -28 -16 -51 -35 -23 -19 -49 -35 -58 -35 -10 0 -35 -8
-57 -19 -68 -32 -129 -48 -163 -43 -28 4 -32 2 -32 -19 0 -61 -24 -86 -77 -80
-19 2 -21 -1 -13 -34 11 -47 13 -49 53 -41 22 4 49 23 80 56 26 28 54 50 62
50 31 0 364 164 400 196 13 12 48 36 77 52 29 17 90 67 135 112 45 44 84 80
88 80 3 0 21 11 38 24 18 12 52 33 77 44 25 12 71 46 104 76 32 30 73 62 91
70 41 20 54 36 46 58 -6 16 -9 16 -51 -3z"/>
<path d="M5105 4651 c3 -5 1 -12 -5 -16 -6 -4 -8 -10 -5 -15 3 -5 1 -11 -4
-15 -14 -8 -3 -32 14 -32 11 0 15 12 15 44 0 24 -5 43 -11 43 -5 0 -8 -4 -4
-9z"/>
<path d="M4190 4632 c0 -25 77 -59 99 -45 9 6 15 20 13 34 -5 32 -5 32 -46 21
-21 -6 -36 -7 -36 -1 0 5 -7 9 -15 9 -8 0 -15 -8 -15 -18z"/>
<path d="M3650 4590 c0 -5 7 -10 15 -10 8 0 15 5 15 10 0 6 -7 10 -15 10 -8 0
-15 -4 -15 -10z"/>
<path d="M4250 4420 c0 -13 6 -19 18 -17 30 4 32 37 2 37 -13 0 -20 -7 -20
-20z"/>
<path d="M5090 4415 c-16 -19 -9 -48 13 -51 13 -2 17 5 17 32 0 36 -10 43 -30
19z"/>
<path d="M4000 4356 c0 -8 5 -18 10 -21 6 -3 10 3 10 14 0 12 -4 21 -10 21 -5
0 -10 -6 -10 -14z"/>
<path d="M4400 4309 c0 -5 -5 -7 -11 -3 -6 3 -24 -6 -40 -22 -32 -31 -38 -49
-11 -35 9 5 29 14 45 20 17 7 27 18 27 31 0 11 -2 20 -5 20 -3 0 -5 -5 -5 -11z"/>
<path d="M2030 4260 c-141 -45 -215 -200 -155 -320 21 -42 132 -122 189 -137
84 -22 141 -17 210 18 119 60 170 134 169 247 0 55 -4 68 -30 100 -16 20 -58
52 -93 71 -55 30 -74 35 -144 38 -61 2 -97 -2 -146 -17z"/>
<path d="M3568 4200 c-26 -8 -39 -17 -117 -78 -29 -22 -61 -95 -61 -136 0 -40
49 -142 91 -190 96 -109 205 -153 353 -141 128 10 176 37 216 123 17 34 30 72
30 83 0 128 -218 312 -390 329 -36 4 -72 9 -80 12 -8 4 -27 3 -42 -2z"/>
<path d="M4815 3630 c3 -5 14 -10 23 -10 15 0 15 2 2 10 -20 13 -33 13 -25 0z"/>
<path d="M5023 3588 c-34 -17 -41 -26 -39 -46 2 -14 14 -34 27 -45 13 -10 41
-34 61 -53 20 -19 40 -34 43 -34 3 0 5 36 5 80 0 65 -3 81 -17 89 -10 6 -13
11 -8 11 10 0 -15 20 -25 20 -3 0 -24 -10 -47 -22z"/>
<path d="M4855 3580 c-3 -5 -1 -10 4 -10 6 0 11 5 11 10 0 6 -2 10 -4 10 -3 0
-8 -4 -11 -10z"/>
<path d="M4033 3418 c-25 -28 -39 -83 -23 -93 16 -10 37 11 44 43 3 15 8 37
12 50 3 12 2 22 -3 22 -5 0 -19 -10 -30 -22z"/>
<path d="M4060 3350 c0 -5 7 -10 16 -10 8 0 12 5 9 10 -3 6 -10 10 -16 10 -5
0 -9 -4 -9 -10z"/>
<path d="M2770 3290 c0 -5 5 -10 10 -10 6 0 10 5 10 10 0 6 -4 10 -10 10 -5 0
-10 -4 -10 -10z"/>
<path d="M2300 3279 c0 -5 5 -7 10 -4 6 3 10 8 10 11 0 2 -4 4 -10 4 -5 0 -10
-5 -10 -11z"/>
<path d="M3417 3273 c-12 -12 -7 -22 8 -17 8 4 15 10 15 15 0 11 -14 12 -23 2z"/>
<path d="M2550 3240 c0 -5 5 -10 10 -10 6 0 10 5 10 10 0 6 -4 10 -10 10 -5 0
-10 -4 -10 -10z"/>
<path d="M2730 3110 c0 -5 7 -10 15 -10 8 0 15 5 15 10 0 6 -7 10 -15 10 -8 0
-15 -4 -15 -10z"/>
<path d="M2780 3035 c0 -8 5 -15 10 -15 6 0 10 7 10 15 0 8 -4 15 -10 15 -5 0
-10 -7 -10 -15z"/>
<path d="M2315 3030 c-3 -5 -2 -10 4 -10 5 0 13 5 16 10 3 6 2 10 -4 10 -5 0
-13 -4 -16 -10z"/>
<path d="M2930 2955 c0 -8 4 -15 10 -15 5 0 7 7 4 15 -4 8 -8 15 -10 15 -2 0
-4 -7 -4 -15z"/>
<path d="M2356 2934 c-9 -24 -2 -26 12 -4 7 11 8 20 3 20 -5 0 -12 -7 -15 -16z"/>
<path d="M2270 2925 c-6 -8 -9 -19 -6 -24 9 -14 36 -2 36 14 0 21 -16 26 -30
10z"/>
<path d="M2400 2921 c0 -5 5 -13 10 -16 6 -3 10 -2 10 4 0 5 -4 13 -10 16 -5
3 -10 2 -10 -4z"/>
<path d="M2886 2894 c-3 -9 -6 -32 -6 -52 0 -26 -6 -41 -20 -50 -24 -15 -26
-28 -3 -36 25 -10 31 3 38 82 5 71 3 87 -9 56z"/>
<path d="M2653 2889 c-17 -17 -16 -32 1 -26 7 3 19 0 25 -6 8 -8 11 -8 11 1 0
7 -4 12 -9 12 -5 0 -11 7 -13 16 -2 12 -5 13 -15 3z"/>
<path d="M2392 2878 c-14 -14 -16 -28 -3 -28 9 0 24 30 18 36 -2 2 -9 -2 -15
-8z"/>
<path d="M2934 2875 c-17 -13 -17 -14 -2 -15 9 0 20 5 23 11 11 17 0 20 -21 4z"/>
<path d="M3157 2884 c-8 -8 1 -24 14 -24 5 0 9 7 9 15 0 15 -12 20 -23 9z"/>
<path d="M3190 2880 c0 -5 5 -10 10 -10 6 0 10 5 10 10 0 6 -4 10 -10 10 -5 0
-10 -4 -10 -10z"/>
<path d="M2216 2853 c4 -10 8 -28 8 -40 1 -24 11 -30 21 -13 4 6 2 17 -4 24
-6 7 -9 21 -5 30 4 11 1 16 -11 16 -13 0 -15 -5 -9 -17z"/>
<path d="M2260 2850 c0 -11 5 -20 10 -20 6 0 10 9 10 20 0 11 -4 20 -10 20 -5
0 -10 -9 -10 -20z"/>
<path d="M2479 2863 c0 -5 -2 -20 -4 -35 -2 -16 1 -28 6 -28 5 0 9 6 9 13 0 6
3 22 6 35 4 13 2 22 -5 22 -6 0 -11 -3 -12 -7z"/>
<path d="M2560 2845 c0 -9 5 -15 11 -13 6 2 11 8 11 13 0 5 -5 11 -11 13 -6 2
-11 -4 -11 -13z"/>
<path d="M2756 2843 c-9 -9 -7 -33 3 -33 12 0 22 28 12 34 -5 3 -11 3 -15 -1z"/>
<path d="M2166 2807 c-5 -15 -6 -31 -2 -34 11 -11 18 5 14 34 l-4 28 -8 -28z"/>
<path d="M2355 2820 c-5 -9 -4 -15 3 -18 7 -2 9 -9 5 -15 -4 -7 0 -8 11 -4 10
4 22 7 27 7 6 0 7 5 4 11 -4 6 -9 8 -13 5 -3 -3 -10 2 -17 11 -10 13 -14 13
-20 3z"/>
<path d="M2420 2820 c0 -5 5 -10 10 -10 6 0 10 5 10 10 0 6 -4 10 -10 10 -5 0
-10 -4 -10 -10z"/>
<path d="M3083 2819 c-7 -7 -13 -22 -13 -33 0 -19 1 -19 16 -4 9 8 14 23 12
32 -2 14 -5 15 -15 5z"/>
<path d="M1957 2799 c-4 -16 -3 -18 9 -8 16 13 19 29 5 29 -5 0 -11 -9 -14
-21z"/>
<path d="M2627 2814 c-11 -11 3 -24 18 -18 8 4 12 10 9 15 -6 11 -18 12 -27 3z"/>
<path d="M3167 2813 c-2 -5 7 -18 20 -30 24 -24 26 -22 17 15 -6 21 -29 30
-37 15z"/>
<path d="M3322 2808 c-16 -16 -15 -28 3 -28 8 0 15 9 15 20 0 23 -2 24 -18 8z"/>
<path d="M2585 2795 c-12 -27 -26 -35 -45 -25 -11 6 -21 5 -28 -2 -18 -18 -14
-28 11 -27 12 1 30 -2 39 -6 14 -5 20 0 28 21 13 34 8 71 -5 39z"/>
<path d="M2972 2798 c-5 -7 -13 -24 -17 -38 -7 -22 -6 -23 9 -11 9 7 16 20 16
27 0 8 5 14 10 14 6 0 10 5 10 10 0 14 -16 13 -28 -2z"/>
<path d="M3381 2779 c-13 -17 -21 -32 -18 -35 3 -3 13 6 22 20 10 14 24 26 31
26 8 0 14 5 14 10 0 19 -25 9 -49 -21z"/>
<path d="M3710 2799 c0 -5 5 -7 10 -4 6 3 10 8 10 11 0 2 -4 4 -10 4 -5 0 -10
-5 -10 -11z"/>
<path d="M2064 2775 c-7 -17 3 -35 19 -35 8 0 8 3 0 11 -6 6 -9 18 -6 25 3 8
2 14 -1 14 -4 0 -9 -7 -12 -15z"/>
<path d="M2276 2781 c-4 -7 -5 -15 -2 -18 9 -9 19 4 14 18 -4 11 -6 11 -12 0z"/>
<path d="M2796 2774 c-9 -22 3 -32 14 -14 12 19 12 30 1 30 -5 0 -12 -7 -15
-16z"/>
<path d="M3251 2776 c-20 -11 -21 -14 -6 -19 23 -9 22 -10 28 13 3 11 4 20 4
20 -1 -1 -13 -7 -26 -14z"/>
<path d="M2425 2760 c-3 -11 -13 -20 -21 -20 -20 0 -17 -17 4 -29 15 -8 23 -4
41 20 12 16 19 34 16 39 -10 17 -33 11 -40 -10z"/>
<path d="M2742 2768 c-17 -17 -15 -28 4 -28 22 0 12 -23 -11 -26 -11 -2 -25
-10 -31 -18 -16 -23 -37 -20 -29 4 5 14 2 20 -10 20 -12 0 -14 6 -9 26 5 20 4
25 -5 19 -7 -4 -12 -19 -11 -33 4 -49 0 -62 -16 -62 -10 0 -14 -5 -10 -15 3
-8 1 -27 -4 -41 -9 -22 -8 -25 6 -20 8 3 24 6 35 6 10 0 19 6 19 14 0 8 11 28
25 43 19 21 24 24 25 11 0 -31 19 -29 34 4 l15 33 -3 -35 c-2 -19 -7 -35 -12
-36 -21 -1 -64 -28 -64 -40 0 -10 7 -11 30 -3 17 6 30 15 30 20 0 5 7 9 15 9
8 0 15 -4 15 -9 0 -5 7 -11 14 -14 10 -4 13 -1 9 9 -3 7 -9 14 -15 14 -5 0 -6
18 -2 45 4 30 3 45 -5 45 -6 0 -11 16 -11 35 0 37 -8 43 -28 23z m-87 -138 c3
-5 -1 -10 -9 -10 -9 0 -16 5 -16 10 0 6 4 10 9 10 6 0 13 -4 16 -10z"/>
<path d="M3000 2764 c0 -14 3 -14 15 -4 8 7 15 14 15 16 0 2 -7 4 -15 4 -8 0
-15 -7 -15 -16z"/>
<path d="M3138 2761 c-30 -13 -37 -22 -41 -51 -6 -51 10 -60 23 -12 7 27 15
39 24 36 14 -5 40 20 34 34 -1 4 -20 1 -40 -7z"/>
<path d="M2322 2750 c-12 -12 -22 -25 -22 -30 0 -5 -9 -18 -20 -28 -19 -18
-19 -20 -4 -33 13 -11 18 -11 21 -1 6 17 50 15 57 -4 5 -12 1 -14 -15 -9 -14
5 -25 2 -30 -6 -4 -8 -14 -14 -21 -15 -7 0 -21 -2 -30 -2 -12 -1 -18 -10 -18
-26 0 -13 -7 -29 -15 -36 -8 -7 -15 -18 -15 -24 0 -6 7 -3 14 7 19 24 29 21
24 -8 -4 -17 -1 -25 8 -25 8 0 14 4 14 9 0 10 34 22 68 24 13 1 30 10 37 20 9
13 20 17 34 12 14 -4 21 -2 21 7 0 19 27 55 35 46 4 -3 -2 -19 -12 -35 -17
-28 -17 -28 2 -13 11 7 26 21 33 29 10 13 12 12 12 -7 0 -26 19 -30 21 -4 2
25 2 25 -6 50 -6 21 -4 23 12 18 27 -9 64 31 43 44 -8 5 -17 5 -20 1 -3 -4
-22 -8 -43 -9 -34 -1 -37 1 -32 18 4 11 2 20 -4 20 -6 0 -11 -16 -11 -35 0
-35 -8 -41 -47 -36 -13 2 -18 -16 -15 -51 1 -10 -4 -18 -12 -18 -8 0 -12 8 -9
23 3 14 -2 31 -11 40 -9 8 -16 20 -16 26 0 6 -7 8 -16 4 -13 -5 -15 -2 -9 18
4 13 14 32 23 42 21 24 1 22 -26 -3z m105 -122 c-3 -8 -6 -5 -6 6 -1 11 2 17
5 13 3 -3 4 -12 1 -19z m-70 -51 c-1 -5 -17 -11 -35 -12 -38 -3 -43 15 -9 38
20 14 23 14 35 -1 7 -9 11 -20 9 -25z"/>
<path d="M3397 2743 c-10 -9 -9 -23 2 -23 5 0 11 7 15 15 5 15 -5 20 -17 8z"/>
<path d="M3596 2742 c-3 -6 -1 -14 5 -17 14 -9 20 -2 10 14 -6 8 -11 9 -15 3z"/>
<path d="M2356 2731 c-4 -7 -5 -15 -2 -18 9 -9 19 4 14 18 -4 11 -6 11 -12 0z"/>
<path d="M2806 2724 c-5 -12 -2 -15 10 -10 8 3 18 6 20 6 3 0 2 5 -1 10 -9 15
-22 12 -29 -6z"/>
<path d="M3270 2730 c-8 -5 -11 -12 -7 -16 4 -4 13 -2 19 4 15 15 7 24 -12 12z"/>
<path d="M3341 2729 c0 -9 -11 -19 -23 -23 -20 -5 -21 -8 -8 -17 11 -8 12 -12
3 -16 -7 -2 -13 -14 -12 -26 0 -15 2 -17 6 -7 3 8 15 27 25 43 11 15 17 35 15
45 -4 14 -5 15 -6 1z"/>
<path d="M2975 2721 c-6 -11 9 -23 19 -14 9 9 7 23 -3 23 -6 0 -12 -4 -16 -9z"/>
<path d="M3056 2714 c-4 -9 -4 -19 -1 -22 2 -3 7 3 11 12 4 9 4 19 1 22 -2 3
-7 -3 -11 -12z"/>
<path d="M3480 2720 c0 -5 5 -10 10 -10 6 0 10 5 10 10 0 6 -4 10 -10 10 -5 0
-10 -4 -10 -10z"/>
<path d="M2056 2695 c-21 -32 -21 -65 0 -65 11 0 14 5 10 16 -3 8 1 22 9 30
16 17 20 44 6 44 -5 0 -16 -11 -25 -25z"/>
<path d="M2170 2700 c-13 -11 -20 -23 -17 -26 11 -11 57 6 57 21 0 24 -16 26
-40 5z"/>
<path d="M2237 2713 c-4 -3 -7 -11 -7 -17 0 -6 5 -5 12 2 6 6 9 14 7 17 -3 3
-9 2 -12 -2z"/>
<path d="M2884 2705 c-17 -13 -17 -14 -2 -15 9 0 20 5 23 11 11 17 0 20 -21 4z"/>
<path d="M2925 2700 c-3 -11 -3 -29 0 -40 3 -11 3 -20 -2 -21 -76 -6 -87 -11
-97 -45 -5 -17 -2 -21 15 -20 23 1 40 26 18 26 -9 0 -10 3 -3 10 8 8 19 8 38
0 15 -5 32 -8 37 -4 5 3 9 0 9 -6 0 -6 -8 -14 -17 -17 -25 -9 -33 -24 -20 -38
8 -9 16 -9 29 -2 12 8 21 7 32 -2 8 -7 20 -10 26 -6 5 3 10 1 10 -4 0 -6 7
-11 15 -11 8 0 15 8 15 18 0 13 9 18 31 20 l31 2 -23 -37 c-13 -20 -17 -33
-11 -29 13 8 45 -18 35 -28 -4 -3 3 -6 15 -6 21 0 23 4 27 50 0 8 4 21 8 28 5
6 4 12 -2 12 -6 0 -8 7 -5 15 4 10 0 15 -14 15 -12 0 -24 5 -27 10 -4 6 5 10
20 10 17 0 25 5 22 13 -2 7 -18 11 -43 9 -45 -5 -45 -4 -48 -29 -2 -10 -12
-18 -24 -19 -12 -1 -28 -7 -37 -14 -13 -11 -15 -8 -15 19 0 21 5 31 15 31 8 0
14 -3 13 -7 -2 -5 0 -9 5 -10 21 -8 27 0 27 33 0 24 -4 34 -12 31 -7 -2 -12
-11 -10 -21 2 -9 -2 -16 -7 -16 -16 0 -24 21 -12 33 6 6 11 15 11 21 0 6 -5 5
-12 -2 -17 -17 -48 -15 -48 3 0 8 4 15 8 15 5 0 9 7 9 15 0 22 -25 18 -32 -5z
m35 -70 c0 -5 -5 -10 -11 -10 -5 0 -7 5 -4 10 3 6 8 10 11 10 2 0 4 -4 4 -10z
m164 -121 c-7 -11 -15 -11 -33 0 -13 8 -13 12 -1 26 13 16 15 16 27 -1 7 -9
10 -21 7 -25z"/>
<path d="M3211 2694 c-20 -26 -20 -44 1 -44 6 0 8 9 5 19 -3 13 1 21 14 24 11
3 19 10 19 16 0 19 -18 12 -39 -15z"/>
<path d="M2816 2698 c-3 -7 -6 -25 -9 -40 -4 -24 -2 -26 14 -17 11 5 19 21 19
34 0 27 -18 44 -24 23z"/>
<path d="M3646 2702 c-2 -4 -1 -14 5 -22 7 -12 9 -10 9 8 0 23 -5 28 -14 14z"/>
<path d="M3443 2683 c8 -7 -21 -43 -35 -43 -4 0 -8 7 -8 16 0 11 -6 14 -22 8
-13 -3 -23 -7 -24 -8 -14 -18 -30 -67 -24 -76 9 -15 22 3 24 34 1 11 9 22 18
24 13 3 16 -3 13 -32 -2 -20 1 -36 6 -36 5 0 9 9 9 21 0 11 14 33 30 47 31 27
39 52 18 52 -6 0 -8 -3 -5 -7z"/>
<path d="M3550 2680 c0 -5 10 -10 23 -10 18 0 19 2 7 10 -19 13 -30 13 -30 0z"/>
<path d="M2120 2655 c-9 -11 -10 -19 -3 -26 7 -7 14 -5 23 6 9 11 10 19 3 26
-7 7 -14 5 -23 -6z"/>
<path d="M3670 2670 c-1 -3 -4 -14 -5 -25 -2 -11 -6 -28 -10 -37 -4 -11 -3
-18 4 -18 16 0 23 23 18 57 -2 15 -5 26 -7 23z"/>
<path d="M2251 2644 c0 -11 3 -14 6 -6 3 7 2 16 -1 19 -3 4 -6 -2 -5 -13z"/>
<path d="M3144 2649 c-10 -17 13 -36 27 -22 12 12 4 33 -11 33 -5 0 -12 -5
-16 -11z"/>
<path d="M2571 2624 c-10 -22 -9 -25 6 -22 10 2 19 13 21 26 5 30 -12 28 -27
-4z"/>
<path d="M2178 2632 c-10 -2 -18 -10 -18 -18 0 -8 -8 -14 -18 -14 -27 0 -72
-23 -72 -37 0 -7 -5 -13 -11 -13 -15 0 -7 -43 10 -48 10 -3 11 2 6 18 -5 16
-4 21 6 18 16 -6 13 -49 -5 -60 -8 -6 -7 -8 2 -8 7 0 10 -5 7 -11 -4 -6 -13
-8 -21 -5 -20 8 -25 -8 -10 -29 12 -17 14 -17 34 0 16 14 19 23 11 37 -6 12
-6 18 1 18 5 0 10 17 10 38 0 25 7 43 20 55 24 20 34 22 27 4 -5 -13 17 -39
26 -30 3 3 3 11 0 19 -3 8 4 25 16 38 23 25 14 36 -21 28z"/>
<path d="M2075 2620 c-3 -5 -2 -10 4 -10 5 0 13 5 16 10 3 6 2 10 -4 10 -5 0
-13 -4 -16 -10z"/>
<path d="M3273 2610 c-6 -22 -18 -26 -28 -10 -4 6 -11 8 -16 4 -5 -3 -7 -10
-3 -15 3 -5 10 -7 15 -4 5 4 9 1 9 -4 0 -6 9 -11 20 -11 15 0 19 6 17 30 -2
35 -7 38 -14 10z"/>
<path d="M1980 2590 c0 -16 5 -30 10 -30 6 0 10 14 10 30 0 17 -4 30 -10 30
-5 0 -10 -13 -10 -30z"/>
<path d="M2020 2603 c0 -6 -3 -20 -6 -30 -7 -17 -6 -17 12 -1 14 14 16 21 6
30 -8 8 -12 9 -12 1z"/>
<path d="M3158 2585 c-6 -30 -2 -32 12 -6 6 11 6 22 1 25 -5 3 -11 -5 -13 -19z"/>
<path d="M3425 2600 c-3 -5 1 -10 9 -10 9 0 16 5 16 10 0 6 -4 10 -9 10 -6 0
-13 -4 -16 -10z"/>
<path d="M3595 2600 c-3 -5 -1 -10 4 -10 6 0 11 5 11 10 0 6 -2 10 -4 10 -3 0
-8 -4 -11 -10z"/>
<path d="M3846 2593 c-4 -4 -22 -6 -41 -5 -35 4 -54 -13 -36 -31 8 -8 11 -6
11 6 0 18 26 22 49 8 18 -12 41 -3 41 15 0 15 -12 18 -24 7z"/>
<path d="M3200 2564 c0 -9 -9 -27 -20 -41 -11 -14 -17 -30 -14 -35 4 -6 0 -14
-7 -19 -10 -6 -11 -11 -4 -18 8 -8 22 -5 45 8 19 10 46 21 60 24 21 5 50 44
50 67 0 9 -53 6 -67 -3 -7 -4 -14 1 -18 13 -8 24 -25 27 -25 4z m73 -32 c-4
-17 -63 -48 -63 -34 0 5 54 46 67 51 0 1 -1 -7 -4 -17z"/>
<path d="M3407 2535 c-15 -22 -16 -25 -2 -25 8 0 15 -4 15 -10 0 -5 -9 -10
-21 -10 -16 0 -19 -4 -14 -21 5 -13 2 -25 -6 -30 -20 -12 -30 -1 -23 27 8 30
-16 33 -34 4 -7 -12 -17 -18 -22 -15 -14 8 -105 -35 -118 -56 -9 -14 -7 -18 9
-22 10 -3 17 -1 14 3 -3 5 4 14 16 21 17 9 23 8 30 -2 5 -8 9 -9 9 -4 0 6 4 3
9 -4 6 -9 6 -22 0 -32 -12 -24 -11 -30 4 -28 6 1 20 -1 30 -6 15 -6 16 -10 5
-17 -9 -6 -3 -8 17 -6 24 2 29 0 27 -15 -3 -16 2 -18 30 -15 24 2 33 -1 33
-12 0 -8 -4 -14 -10 -13 -5 0 -15 -4 -21 -11 -8 -9 -5 -19 12 -39 12 -14 24
-21 26 -15 6 16 68 16 68 1 0 -7 -8 -13 -17 -13 -16 -1 -16 -2 1 -15 11 -8 17
-15 13 -15 -8 0 53 -121 66 -131 4 -3 15 -31 24 -63 14 -50 14 -59 2 -68 -11
-8 -11 -9 3 -5 10 4 18 -1 21 -15 4 -13 10 -17 18 -12 9 5 10 2 5 -11 -4 -10
-2 -21 4 -25 6 -4 13 -37 17 -74 4 -44 11 -70 20 -73 11 -4 11 -8 2 -20 -7 -8
-13 -54 -15 -108 -1 -52 -5 -98 -8 -104 -4 -5 -2 -13 4 -16 8 -5 6 -15 -4 -31
-9 -13 -16 -35 -16 -48 0 -54 -97 -307 -127 -331 -7 -5 -19 -26 -27 -45 -8
-20 -26 -42 -39 -49 -14 -7 -30 -24 -36 -38 -18 -39 -130 -159 -167 -179 -19
-10 -37 -27 -40 -36 -3 -10 -10 -18 -15 -18 -6 0 -25 -11 -43 -25 -18 -14 -39
-25 -46 -25 -7 0 -32 -10 -56 -21 -26 -13 -50 -19 -61 -15 -23 9 -29 8 -25 -8
1 -7 -16 -19 -40 -26 -24 -8 -47 -16 -53 -20 -13 -9 -140 -33 -190 -36 -85 -6
-142 -5 -192 5 -29 6 -60 8 -68 5 -8 -4 -21 -1 -28 5 -10 8 -19 6 -35 -5 -13
-9 -22 -11 -22 -5 0 6 5 11 11 11 5 0 7 5 4 10 -3 6 -17 10 -30 10 -13 0 -27
4 -30 10 -3 5 -17 10 -30 10 -13 0 -27 5 -30 10 -3 6 -14 10 -25 10 -10 0 -20
7 -24 15 -3 8 -16 15 -28 15 -13 0 -32 7 -42 15 -11 8 -27 15 -37 15 -9 0 -23
10 -31 22 -12 18 -18 20 -30 11 -7 -7 -14 -25 -13 -40 0 -21 5 -29 23 -31 20
-3 22 -7 16 -40 -7 -34 -6 -36 9 -23 18 14 22 5 11 -23 -3 -9 -15 -16 -25 -16
-10 0 -19 -5 -19 -11 0 -6 7 -9 15 -5 8 3 19 -2 23 -11 6 -10 16 -14 27 -9 14
5 15 9 5 21 -10 12 -9 23 4 55 14 36 14 40 0 40 -8 0 -12 5 -9 10 5 8 11 7 20
0 8 -7 19 -9 25 -5 7 4 14 -2 17 -14 3 -11 9 -19 13 -16 16 10 20 -13 5 -25
-15 -13 -21 -40 -8 -40 3 0 15 8 26 18 19 16 19 16 13 -5 -5 -17 -1 -24 26
-37 29 -15 34 -15 44 -1 12 16 43 19 82 9 27 -8 28 -18 1 -45 -14 -14 -18 -24
-11 -31 7 -7 18 -2 33 16 26 30 44 33 65 11 22 -22 28 -19 57 22 27 37 27 37
27 11 0 -41 -18 -79 -40 -85 -11 -3 -20 -12 -20 -19 0 -18 5 -18 35 2 14 9 32
13 41 10 9 -4 23 -1 30 5 7 6 18 8 24 4 7 -5 11 0 10 11 -5 40 -1 47 15 34 11
-9 14 -22 9 -47 -5 -28 -4 -32 10 -27 9 3 16 10 16 15 0 5 11 9 24 9 14 0 28
5 31 10 9 15 41 12 55 -5 7 -8 21 -15 31 -15 11 0 19 -6 19 -14 0 -7 9 -16 21
-19 11 -3 19 -11 18 -19 -1 -7 -1 -28 0 -45 1 -41 21 -44 21 -4 0 21 8 36 28
50 15 11 35 29 46 38 12 11 20 14 23 7 17 -46 68 -60 56 -15 -3 12 -1 21 6 21
7 0 10 -10 7 -24 -3 -16 1 -27 11 -30 23 -9 34 3 23 23 -6 12 -5 22 2 29 15
15 38 3 38 -19 0 -26 19 -24 29 4 12 31 59 83 67 74 4 -3 1 -13 -6 -22 -16
-20 -7 -29 33 -31 19 -1 36 5 44 15 11 15 12 15 13 -2 0 -17 9 -17 80 -2 8 2
21 4 28 4 20 1 14 32 -8 38 -23 6 -25 22 -6 48 7 10 11 26 9 35 -3 10 3 16 16
17 18 2 19 -1 10 -18 -5 -11 -9 -31 -7 -44 3 -23 5 -24 28 -12 13 7 27 23 30
36 6 26 30 42 30 20 0 -7 13 -1 28 14 15 15 36 27 45 27 9 0 17 5 17 10 0 6 7
10 15 10 8 0 21 15 30 33 13 28 52 57 78 57 5 0 15 6 23 14 8 8 22 13 32 11
11 -2 19 3 19 11 0 10 -4 11 -14 3 -9 -8 -13 -8 -13 -1 0 6 9 14 20 17 11 3
20 11 20 17 0 6 8 8 18 6 12 -3 24 2 31 14 7 11 28 26 47 34 42 18 45 36 4 28
-25 -5 -30 -3 -30 12 -1 15 -4 13 -16 -8 -19 -36 -39 -35 -54 1 -15 37 -6 55
21 41 16 -9 21 -7 31 14 6 14 19 28 30 31 10 4 18 15 18 26 0 10 5 19 10 19 6
0 8 11 4 25 -5 22 -3 25 20 25 16 0 26 -6 26 -15 0 -8 6 -15 13 -15 8 0 13
-10 13 -23 -1 -17 5 -22 24 -22 21 0 25 4 22 27 -2 19 3 30 18 38 27 15 13 33
-21 28 -14 -2 -33 6 -48 20 -30 27 -56 28 -100 1 -18 -11 -34 -19 -35 -17 -1
2 10 26 26 53 22 40 28 45 28 26 0 -18 3 -21 13 -12 8 6 29 9 48 7 43 -5 74
16 38 25 -13 3 -32 1 -42 -5 -14 -9 -20 -7 -28 7 -6 9 -14 15 -19 12 -12 -7
-24 35 -13 46 5 5 19 11 31 14 12 2 26 6 31 10 5 3 16 -2 24 -10 9 -8 20 -15
26 -15 14 0 14 27 0 32 -7 2 -7 12 0 31 18 47 15 53 -29 49 -26 -3 -40 -9 -40
-18 0 -9 8 -14 17 -12 10 2 19 -4 21 -13 2 -13 -4 -16 -26 -14 -42 3 -49 10
-44 46 4 27 2 30 -15 25 -13 -4 -19 -1 -20 12 -1 12 7 17 27 18 19 1 27 -3 23
-12 -3 -9 7 -12 41 -11 25 1 46 5 46 10 0 4 -4 7 -9 7 -5 0 -12 9 -16 19 -4
12 -12 18 -21 14 -7 -3 -14 0 -14 7 0 9 -10 11 -30 7 -20 -5 -30 -3 -30 6 0 7
14 12 31 13 20 1 40 11 55 28 14 14 29 26 35 26 6 0 8 4 4 10 -8 13 -55 -9
-55 -27 0 -15 -9 -16 -29 -4 -11 7 -10 10 4 18 13 8 15 15 8 27 -8 15 -11 15
-33 -4 -28 -24 -26 -24 -50 0 l-20 20 22 22 c15 15 20 16 15 5 -4 -11 -2 -14
9 -10 7 3 14 9 14 14 0 5 5 9 10 9 6 0 10 -7 10 -15 0 -8 7 -15 15 -15 8 0 15
-4 15 -10 0 -22 28 -8 33 15 3 18 -1 29 -14 36 -23 12 -24 25 -4 46 17 16 16
34 -2 40 -5 2 -25 -10 -43 -27 -17 -16 -36 -30 -41 -30 -9 0 46 86 62 96 6 4
6 11 -2 20 -9 11 -8 14 5 14 9 0 17 7 17 15 1 8 2 27 4 43 1 15 5 35 9 44 9
20 -23 41 -44 28 -12 -7 -12 -13 0 -35 13 -25 13 -29 -9 -46 -26 -21 -41 -24
-41 -9 0 6 -5 10 -10 10 -28 0 -48 36 -46 85 1 47 3 50 29 53 15 2 27 7 27 12
0 9 -9 11 -69 12 -30 1 -32 2 -18 13 19 14 12 25 -15 25 -10 0 -18 5 -18 10 0
6 -9 10 -19 10 -11 0 -23 -4 -26 -10 -8 -13 -25 -13 -25 0 0 5 14 16 30 25 17
9 30 20 30 25 0 6 9 19 20 30 16 16 28 19 54 15 28 -6 35 -3 49 19 11 16 23
23 32 20 8 -4 15 -1 15 6 0 7 -13 10 -37 8 -25 -3 -38 -9 -38 -18 0 -20 -29
-24 -44 -6 -9 11 -20 12 -47 4 -40 -11 -57 -3 -32 16 17 13 20 66 3 66 -6 0
-17 -20 -24 -46 -13 -42 -12 -46 8 -68 13 -14 18 -26 12 -30 -5 -4 -12 -2 -16
3 -3 6 -12 8 -20 5 -12 -5 -14 1 -9 27 3 19 8 40 10 48 3 10 -2 12 -21 7 -18
-5 -32 -1 -47 14 l-22 20 21 22 22 21 -6 -21 c-6 -24 6 -29 25 -10 9 9 12 9
12 0 0 -6 7 -9 16 -5 8 3 13 11 10 18 -2 7 0 17 6 23 8 8 6 15 -5 26 -19 19
-35 2 -17 -19 6 -8 7 -16 2 -19 -11 -6 -21 5 -41 46 -16 31 -9 58 15 58 8 0
14 6 12 13 -7 18 -90 16 -96 -3 -4 -12 -2 -13 9 -2 32 30 36 10 13 -68 -11
-37 -18 -49 -24 -40 -5 8 -6 27 -3 43 3 16 1 32 -4 36 -12 7 -5 111 7 111 4 0
5 -11 2 -25 -2 -14 0 -25 6 -25 12 0 27 94 17 110 -10 17 -25 11 -25 -10 0
-14 -7 -20 -22 -21 -13 -1 -34 -3 -48 -5 -43 -5 -51 2 -38 33 7 15 21 36 32
45 13 10 16 18 8 18 -16 0 -63 -28 -79 -48 -6 -8 -16 -11 -22 -7 -7 4 0 17 18
33 32 31 52 81 44 111 -7 27 -14 26 -36 -4z m-57 -165 c0 -5 -7 -10 -15 -10
-8 0 -15 5 -15 10 0 6 7 10 15 10 8 0 15 -4 15 -10z m32 -27 c-6 -2 -10 -9 -6
-14 3 -5 -2 -9 -12 -9 -13 0 -14 3 -4 15 7 8 18 15 24 14 7 0 6 -2 -2 -6z m58
-4 c0 -6 -9 -13 -20 -16 -11 -3 -20 -9 -20 -14 0 -5 -8 -9 -17 -9 -15 0 -13 4
7 24 27 26 50 33 50 15z m75 -31 c0 -17 -6 -33 -12 -35 -8 -3 -13 4 -13 16 0
12 -5 20 -11 19 -19 -5 -21 20 -2 25 35 9 39 7 38 -25z m-15 -60 c0 -6 -3 -8
-7 -5 -3 4 -12 2 -20 -5 -11 -8 -12 -7 -7 6 7 18 34 22 34 4z m-55 -7 c3 -5 1
-12 -5 -16 -5 -3 -10 1 -10 9 0 18 6 21 15 7z m293 -232 c-2 -6 -8 -10 -13
-10 -5 0 -11 4 -13 10 -2 6 4 11 13 11 9 0 15 -5 13 -11z m42 -175 c0 -8 -4
-12 -10 -9 -5 3 -10 10 -10 16 0 5 5 9 10 9 6 0 10 -7 10 -16z m-20 -65 c0
-14 -17 -10 -23 5 -4 10 -1 13 9 9 7 -3 14 -9 14 -14z m30 -69 c0 -5 -4 -10
-10 -10 -5 0 -10 5 -10 10 0 6 5 10 10 10 6 0 10 -4 10 -10z m-30 -10 c0 -5
-2 -10 -4 -10 -3 0 -8 5 -11 10 -3 6 -1 10 4 10 6 0 11 -4 11 -10z m110 -58
c0 -15 -7 -38 -16 -50 -8 -12 -13 -26 -10 -31 3 -5 -3 -11 -13 -14 -15 -4 -20
2 -23 29 -3 26 0 33 11 31 9 -1 18 10 24 31 12 39 27 42 27 4z m-115 -184
c-19 -11 -30 -5 -21 11 4 6 14 7 22 4 15 -5 14 -7 -1 -15z m-10 -68 c-3 -5
-12 -10 -18 -10 -7 0 -6 4 3 10 19 12 23 12 15 0z m28 -104 c3 -8 -1 -20 -9
-26 -12 -10 -14 -8 -14 14 0 28 14 35 23 12z m0 -94 c-3 -12 -9 -22 -14 -22
-16 0 -18 17 -6 43 14 30 30 14 20 -21z m-138 -62 c-3 -5 -10 -10 -16 -10 -5
0 -9 5 -9 10 0 6 7 10 16 10 8 0 12 -4 9 -10z m205 -28 c0 -5 -22 -9 -50 -9
-27 -1 -50 3 -50 8 0 5 23 9 50 9 28 0 50 -4 50 -8z m-83 -77 c-4 -8 -11 -15
-17 -15 -14 0 -13 27 3 33 16 6 21 1 14 -18z m3 -46 c0 -6 -4 -7 -10 -4 -5 3
-10 11 -10 16 0 6 5 7 10 4 6 -3 10 -11 10 -16z m112 -15 c9 -8 -23 -82 -37
-88 -14 -5 -15 11 -2 32 5 6 5 16 2 22 -3 5 0 16 7 24 14 17 22 19 30 10z
m-208 -21 c8 -19 -21 -28 -39 -13 -8 7 -15 16 -15 20 0 14 49 8 54 -7z m150
-1 c-6 -4 -10 -15 -8 -24 3 -21 -4 -22 -41 -8 -15 6 -23 15 -20 21 4 6 13 8
19 6 7 -3 19 -1 27 4 17 10 39 12 23 1z m-310 -46 c-3 -8 -12 -17 -20 -20 -11
-4 -12 -2 -1 14 14 23 29 27 21 6z m108 -1 c0 -5 -5 -11 -11 -13 -6 -2 -11 4
-11 13 0 9 5 15 11 13 6 -2 11 -8 11 -13z m115 -19 c3 -2 -1 -14 -7 -26 -13
-24 -36 -22 -34 4 1 9 -2 16 -8 16 -5 0 -7 4 -3 9 5 9 42 7 52 -3z m-172 -65
c-3 -11 -1 -22 5 -26 21 -13 9 -25 -24 -25 -19 0 -38 -5 -41 -10 -9 -14 4 -52
15 -45 5 3 13 -2 18 -11 9 -16 13 -15 46 5 29 18 36 20 36 7 0 -8 -9 -17 -19
-21 -22 -7 -35 -46 -19 -56 16 -10 38 0 38 17 0 8 5 14 10 14 6 0 10 10 10 21
0 12 8 27 17 34 14 11 19 10 29 -4 11 -14 14 -14 22 8 12 34 20 15 14 -37 -3
-32 -8 -42 -18 -38 -8 3 -14 1 -14 -5 0 -6 -4 -7 -10 -4 -5 3 -10 2 -10 -3 0
-5 -6 -9 -12 -9 -23 -1 -43 -8 -50 -18 -5 -6 -11 -6 -19 2 -8 8 -18 9 -30 3
-14 -8 -21 -3 -37 28 -25 48 -49 53 -63 13 -11 -32 -23 -39 -34 -21 -3 6 1 10
10 10 13 0 15 6 10 29 -5 23 -2 32 13 40 11 6 22 7 26 4 3 -3 6 2 6 13 0 21
36 84 54 96 19 13 28 9 21 -11z m66 -47 c-14 -12 -27 -22 -27 -21 -1 1 1 16 3
33 4 28 7 30 27 21 l23 -11 -26 -22z m144 27 c3 -5 -8 -16 -25 -24 -25 -13
-30 -13 -30 -2 0 8 8 19 18 24 22 13 29 13 37 2z m15 -61 c0 -5 -7 -10 -16
-10 -8 0 -12 5 -9 10 3 6 10 10 16 10 5 0 9 -4 9 -10z m-471 -21 c-16 -10 -23
-4 -14 10 3 6 11 8 17 5 6 -4 5 -9 -3 -15z m-9 -45 c0 -15 -22 -44 -31 -39
-18 12 -10 45 11 45 11 0 20 -3 20 -6z m-80 -55 c0 -5 -4 -9 -10 -9 -5 0 -10
7 -10 16 0 8 5 12 10 9 6 -3 10 -10 10 -16z m-1160 -19 c0 -5 -7 -10 -15 -10
-8 0 -15 5 -15 10 0 6 7 10 15 10 8 0 15 -4 15 -10z m1414 -5 c3 -8 17 -20 31
-27 28 -13 33 -28 9 -28 -14 0 -74 51 -74 64 0 13 28 5 34 -9z m-134 -75 c0
-10 5 -20 12 -22 8 -3 -1 -17 -21 -37 -26 -25 -40 -32 -62 -29 -16 3 -29 1
-29 -4 0 -4 -9 -8 -20 -8 -23 0 -25 17 -6 43 12 16 15 16 29 2 20 -19 19 -19
49 9 19 17 24 30 21 50 -4 21 -2 25 11 20 9 -3 16 -14 16 -24z m80 21 c0 -12
-20 -25 -27 -18 -7 7 6 27 18 27 5 0 9 -4 9 -9z m-295 -22 c-10 -15 -25 -10
-19 6 4 8 10 12 15 9 5 -3 7 -10 4 -15z m-865 -24 c0 -8 -2 -15 -4 -15 -2 0
-11 -3 -20 -6 -10 -4 -16 -1 -16 9 0 14 13 24 33 26 4 1 7 -6 7 -14z m648 -22
c5 -18 -23 -16 -39 3 -11 14 -10 15 11 12 13 -1 25 -9 28 -15z m78 -32 c-4 -6
-14 -11 -22 -11 -12 0 -13 4 -3 21 7 14 14 18 21 11 6 -6 7 -15 4 -21z m140
-8 c-5 -12 -9 -14 -18 -5 -7 7 -20 12 -30 12 -32 0 -19 19 15 22 35 3 42 -4
33 -29z m-66 -17 c0 -2 -7 -9 -15 -16 -12 -10 -15 -10 -15 4 0 9 7 16 15 16 8
0 15 -2 15 -4z m50 -27 c0 -4 -7 -6 -15 -3 -8 4 -15 10 -15 15 0 4 7 6 15 3 8
-4 15 -10 15 -15z m-218 -22 c10 -16 -3 -40 -15 -28 -5 5 -15 7 -22 4 -7 -2
-16 4 -19 15 -5 14 -13 18 -26 15 -13 -4 -20 0 -20 10 0 12 8 13 48 5 26 -6
50 -15 54 -21z m439 23 c17 0 9 -18 -11 -23 -11 -3 -20 -4 -20 -2 0 2 -3 11
-7 21 -5 14 -3 16 11 11 10 -4 22 -7 27 -7z"/>
<path d="M3470 2545 c0 -8 7 -15 15 -15 9 0 12 6 9 15 -4 8 -10 15 -15 15 -5
0 -9 -7 -9 -15z"/>
<path d="M3330 2534 c0 -9 5 -14 12 -12 18 6 21 28 4 28 -9 0 -16 -7 -16 -16z"/>
<path d="M3634 2527 c-11 -6 -26 -23 -32 -39 -10 -27 -9 -28 21 -28 29 0 29 1
12 14 -18 13 -18 15 11 39 30 27 25 33 -12 14z"/>
<path d="M1986 2514 c-8 -21 -8 -21 8 -27 24 -9 38 17 16 30 -15 10 -19 9 -24
-3z"/>
<path d="M1841 2511 c-7 -5 -10 -14 -6 -21 5 -8 12 -7 25 5 10 9 25 13 36 9
16 -5 16 -4 4 5 -18 13 -40 14 -59 2z"/>
<path d="M2163 2513 c-21 -8 -15 -20 12 -26 20 -3 25 -1 23 11 -3 17 -17 23
-35 15z"/>
<path d="M2120 2490 c0 -5 5 -10 10 -10 6 0 10 5 10 10 0 6 -4 10 -10 10 -5 0
-10 -4 -10 -10z"/>
<path d="M1875 2480 c-3 -5 -1 -10 4 -10 6 0 11 5 11 10 0 6 -2 10 -4 10 -3 0
-8 -4 -11 -10z"/>
<path d="M1935 2480 c-3 -5 -2 -10 4 -10 5 0 13 5 16 10 3 6 2 10 -4 10 -5 0
-13 -4 -16 -10z"/>
<path d="M3455 2480 c-3 -5 -2 -10 4 -10 5 0 13 5 16 10 3 6 2 10 -4 10 -5 0
-13 -4 -16 -10z"/>
<path d="M1510 2460 c0 -5 5 -10 11 -10 5 0 7 5 4 10 -3 6 -8 10 -11 10 -2 0
-4 -4 -4 -10z"/>
<path d="M1955 2459 c-4 -10 -18 -14 -45 -12 -43 2 -44 1 -40 -67 1 -19 7 -38
13 -42 8 -5 5 -14 -9 -30 -21 -24 -22 -62 -1 -55 7 2 21 21 32 43 11 21 25 45
32 52 15 15 3 54 -18 60 -12 3 -12 2 0 -6 8 -6 11 -18 6 -31 -9 -29 -22 -18
-27 24 -4 34 -3 35 29 35 32 0 55 22 39 37 -3 3 -8 -1 -11 -8z"/>
<path d="M3660 2460 c0 -5 5 -10 10 -10 6 0 10 5 10 10 0 6 -4 10 -10 10 -5 0
-10 -4 -10 -10z"/>
<path d="M1985 2451 c-3 -5 -1 -12 5 -16 5 -3 10 1 10 9 0 18 -6 21 -15 7z"/>
<path d="M3694 2435 c-4 -8 -10 -12 -15 -9 -5 3 -18 -5 -28 -17 -22 -28 -56
-20 -46 11 3 11 2 20 -4 20 -18 0 -22 -18 -9 -44 9 -20 16 -25 32 -20 12 3 26
13 33 21 7 9 21 13 32 10 14 -3 20 1 24 19 5 26 -10 33 -19 9z"/>
<path d="M3735 2440 c4 -6 11 -8 16 -5 14 9 11 15 -7 15 -8 0 -12 -5 -9 -10z"/>
<path d="M1960 2410 c0 -14 70 -24 83 -11 16 16 0 26 -18 11 -10 -8 -15 -9
-15 -1 0 6 -11 11 -25 11 -14 0 -25 -4 -25 -10z"/>
<path d="M3472 2409 c2 -7 10 -15 17 -17 8 -3 12 1 9 9 -2 7 -10 15 -17 17 -8
3 -12 -1 -9 -9z"/>
<path d="M1795 2391 c-3 -5 -1 -12 5 -16 5 -3 10 1 10 9 0 18 -6 21 -15 7z"/>
<path d="M1960 2374 c0 -9 5 -14 12 -12 18 6 21 28 4 28 -9 0 -16 -7 -16 -16z"/>
<path d="M3800 2365 c-7 -9 -11 -18 -8 -20 3 -3 11 1 18 10 7 9 11 18 8 20 -3
3 -11 -1 -18 -10z"/>
<path d="M3621 2339 c-16 -13 -18 -19 -8 -19 15 0 43 27 36 34 -2 3 -15 -4
-28 -15z"/>
<path d="M1620 2336 c0 -7 -7 -19 -15 -26 -16 -13 -13 -23 8 -26 7 -1 13 6 13
15 1 9 4 24 9 34 4 10 3 17 -4 17 -6 0 -11 -6 -11 -14z"/>
<path d="M2847 2343 c-12 -12 -7 -22 8 -17 8 4 15 10 15 15 0 11 -14 12 -23 2z"/>
<path d="M1817 2326 c-11 -9 -14 -17 -8 -21 13 -7 51 12 51 25 0 14 -22 12
-43 -4z"/>
<path d="M3657 2316 c-15 -23 -13 -36 5 -36 4 0 8 7 8 15 0 8 5 15 10 15 6 0
10 7 10 15 0 22 -16 18 -33 -9z"/>
<path d="M1750 2299 c0 -6 7 -9 15 -5 18 7 20 -15 3 -32 -9 -9 -8 -12 4 -12
22 0 28 12 21 38 -5 22 -43 32 -43 11z"/>
<path d="M2570 2300 c0 -5 5 -10 11 -10 5 0 7 5 4 10 -3 6 -8 10 -11 10 -2 0
-4 -4 -4 -10z"/>
<path d="M2830 2301 c0 -5 5 -13 10 -16 6 -3 10 -2 10 4 0 5 -4 13 -10 16 -5
3 -10 2 -10 -4z"/>
<path d="M3105 2270 c-3 -5 -1 -10 4 -10 6 0 11 5 11 10 0 6 -2 10 -4 10 -3 0
-8 -4 -11 -10z"/>
<path d="M3724 2265 c-11 -27 2 -37 14 -11 7 16 8 26 1 26 -5 0 -12 -7 -15
-15z"/>
<path d="M1816 2252 c-3 -9 -9 -23 -12 -29 -3 -7 -1 -13 6 -13 6 0 9 4 6 9 -3
5 3 11 14 14 23 6 26 22 6 30 -8 3 -17 -2 -20 -11z"/>
<path d="M1580 2250 c0 -5 5 -10 10 -10 6 0 10 5 10 10 0 6 -4 10 -10 10 -5 0
-10 -4 -10 -10z"/>
<path d="M1632 2230 c0 -14 2 -19 5 -12 2 6 2 18 0 25 -3 6 -5 1 -5 -13z"/>
<path d="M1714 2225 c-22 -24 -40 -75 -27 -75 15 0 41 33 36 46 -3 8 2 17 11
20 16 6 23 34 9 34 -5 0 -18 -11 -29 -25z"/>
<path d="M3086 2243 c-11 -11 -6 -21 13 -26 16 -4 31 9 31 27 0 5 -39 4 -44
-1z"/>
<path d="M3670 2219 c0 -5 5 -7 10 -4 6 3 10 8 10 11 0 2 -4 4 -10 4 -5 0 -10
-5 -10 -11z"/>
<path d="M1570 2210 c20 -13 40 -13 40 0 0 6 -12 10 -27 10 -22 0 -25 -2 -13
-10z"/>
<path d="M3710 2203 c0 -8 5 -11 10 -8 6 4 17 1 25 -5 12 -10 15 -9 15 6 0 13
-8 19 -25 20 -16 1 -25 -3 -25 -13z"/>
<path d="M2620 2199 c0 -5 5 -7 10 -4 6 3 10 8 10 11 0 2 -4 4 -10 4 -5 0 -10
-5 -10 -11z"/>
<path d="M1799 2184 c-12 -14 -11 -16 5 -13 11 2 21 10 24 17 5 17 -13 15 -29
-4z"/>
<path d="M3800 2190 c0 -5 5 -10 11 -10 5 0 7 5 4 10 -3 6 -8 10 -11 10 -2 0
-4 -4 -4 -10z"/>
<path d="M1750 2171 c0 -11 -4 -23 -10 -26 -5 -3 -10 -9 -10 -13 0 -10 42 -8
58 2 15 9 16 26 2 26 -5 0 -10 -8 -10 -17 0 -13 -3 -14 -12 -5 -10 10 -10 17
0 32 10 17 10 20 -3 20 -8 0 -15 -9 -15 -19z"/>
<path d="M2781 2174 c0 -11 3 -14 6 -6 3 7 2 16 -1 19 -3 4 -6 -2 -5 -13z"/>
<path d="M3126 2183 c-9 -9 -7 -33 3 -33 12 0 22 28 12 34 -5 3 -11 3 -15 -1z"/>
<path d="M3907 2172 c-21 -23 -21 -32 -1 -32 8 0 12 5 8 11 -3 6 0 15 7 20 7
4 11 10 8 14 -3 3 -13 -3 -22 -13z"/>
<path d="M1585 2170 c-3 -5 -15 -10 -27 -10 -14 0 -18 -5 -14 -16 19 -50 18
-63 -10 -89 -24 -23 -25 -25 -7 -22 39 6 51 25 48 71 -3 37 0 45 16 49 10 3
19 10 19 16 0 14 -17 14 -25 1z"/>
<path d="M3171 2146 c-9 -11 -9 -16 1 -22 7 -4 10 -4 6 1 -4 4 -3 14 3 22 6 7
9 13 6 13 -2 0 -10 -6 -16 -14z"/>
<path d="M3210 2152 c0 -5 11 -12 25 -15 16 -3 24 0 22 7 -4 14 -47 21 -47 8z"/>
<path d="M3725 2149 c-11 -17 1 -21 15 -4 8 9 8 15 2 15 -6 0 -14 -5 -17 -11z"/>
<path d="M1632 2138 c-15 -15 -15 -28 -1 -28 5 0 7 5 4 10 -3 6 -1 10 4 10 13
0 14 -13 4 -24 -8 -8 -10 -14 -12 -47 -1 -17 -5 -20 -26 -15 -30 8 -33 -9 -5
-24 16 -8 22 -6 34 12 8 13 16 32 18 43 3 22 28 46 40 39 5 -3 8 0 8 6 0 6 -8
10 -17 8 -10 -2 -17 3 -15 10 3 15 -20 16 -36 0z"/>
<path d="M3039 2123 c-13 -16 -12 -17 4 -4 16 13 21 21 13 21 -2 0 -10 -8 -17
-17z"/>
<path d="M3940 2130 c0 -5 5 -10 10 -10 6 0 10 5 10 10 0 6 -4 10 -10 10 -5 0
-10 -4 -10 -10z"/>
<path d="M1710 2100 c0 -11 -6 -23 -14 -26 -8 -3 -22 -23 -30 -45 -11 -27 -22
-39 -36 -39 -11 0 -20 -7 -20 -15 0 -8 7 -15 15 -15 22 0 19 -10 -12 -43 -25
-26 -25 -28 -5 -18 22 12 32 -1 11 -15 -6 -3 -8 -15 -6 -26 4 -14 0 -22 -13
-25 -23 -6 -34 -31 -20 -48 12 -14 3 -46 -17 -58 -9 -6 -13 -24 -12 -52 2 -24
-3 -50 -10 -58 -8 -11 -9 -17 -1 -22 6 -3 8 -11 4 -16 -3 -5 -9 -7 -14 -4 -15
9 -52 -15 -46 -30 6 -18 -50 -60 -59 -45 -7 11 -25 5 -25 -8 0 -4 10 -13 21
-21 18 -11 23 -11 30 1 7 11 11 10 19 -2 14 -22 13 -43 -2 -34 -9 6 -9 3 1 -9
11 -15 10 -18 -13 -27 -26 -10 -33 -24 -17 -35 5 -3 12 -1 16 5 3 5 15 10 25
10 13 0 19 6 18 18 -3 38 3 52 22 52 21 0 27 -15 10 -25 -5 -3 -10 -14 -10
-23 0 -12 3 -13 12 -4 14 14 28 16 28 4 0 -5 -16 -14 -35 -22 -50 -20 -56 -43
-7 -34 34 7 36 6 23 -9 -19 -23 2 -21 30 2 21 17 22 23 12 40 -8 13 -9 22 -3
26 17 11 11 41 -14 64 -21 19 -27 21 -44 10 -12 -7 -25 -10 -29 -6 -4 5 -1 12
7 17 8 5 15 22 15 37 0 24 4 28 25 26 30 -2 71 43 47 53 -14 5 -12 49 3 69 5
6 11 28 15 50 7 44 12 67 16 75 1 3 3 10 4 15 3 14 15 44 36 91 11 22 19 48
19 57 0 9 5 19 10 22 6 3 10 19 10 36 0 16 5 29 11 29 11 0 39 25 39 35 0 3
-4 3 -10 0 -5 -3 -10 -1 -10 4 0 6 6 11 13 11 8 0 7 4 -3 10 -23 15 -30 12
-30 -10z"/>
<path d="M3046 2099 c-13 -19 -51 -40 -60 -34 -3 3 -4 2 -2 -1 3 -3 -4 -23
-16 -45 -29 -55 -33 -107 -14 -172 19 -67 63 -114 142 -154 52 -26 57 -27 120
-16 41 7 75 19 88 32 13 12 26 19 29 16 4 -3 5 -2 2 1 -2 4 2 16 10 28 8 11
15 30 15 41 0 16 2 17 9 6 6 -9 4 -23 -7 -39 -12 -19 -13 -27 -4 -30 7 -2 9
-9 5 -15 -4 -7 0 -8 12 -3 13 5 15 3 8 -6 -12 -17 -14 -58 -3 -58 11 0 1 -32
-14 -43 -7 -6 -4 -7 6 -3 10 3 20 1 23 -4 3 -5 14 -8 25 -7 14 1 16 5 9 13 -6
7 -18 10 -27 7 -15 -6 -15 -5 -3 11 11 13 11 20 3 28 -16 16 -15 28 3 28 8 0
15 -9 15 -19 0 -28 11 -52 21 -45 5 3 9 0 9 -5 0 -19 16 -12 30 13 7 15 18 22
27 19 7 -3 13 -2 12 3 -5 29 2 42 21 37 11 -3 20 0 20 6 0 10 -20 15 -47 12
-7 -1 -13 7 -13 19 0 13 -7 20 -20 20 -11 0 -20 4 -20 8 0 18 13 20 36 5 30
-19 40 -12 24 17 -6 12 -9 28 -6 36 4 9 -2 14 -15 14 -15 0 -20 6 -19 23 3 35
-1 44 -10 22 -8 -18 -9 -18 -9 -2 -1 10 4 27 9 38 6 11 7 19 1 19 -10 0 -25
-29 -23 -45 1 -6 -8 -11 -19 -12 -19 -2 -20 -1 -5 15 9 11 13 27 9 40 -3 12 0
29 7 37 12 15 6 35 -11 35 -6 0 -8 -4 -4 -9 3 -5 0 -13 -5 -16 -6 -4 -15 -18
-21 -32 -10 -27 -24 -24 -32 7 -3 11 -2 18 3 15 4 -3 10 4 13 15 3 11 1 23 -4
26 -5 3 -9 -1 -9 -8 -1 -7 -8 0 -16 15 -9 17 -21 26 -29 23 -23 -8 -37 18 -16
31 25 15 33 50 14 57 -21 9 -30 1 -37 -35 -6 -31 -7 -32 -26 -14 -22 20 -18
37 8 28 15 -6 15 -5 2 11 -8 10 -16 14 -17 9 -2 -6 -20 -8 -41 -6 -101 10
-154 8 -166 -8z m274 -14 c0 -8 -4 -15 -10 -15 -5 0 -7 7 -4 15 4 8 8 15 10
15 2 0 4 -7 4 -15z m155 -285 c3 -5 1 -10 -4 -10 -6 0 -11 5 -11 10 0 6 2 10
4 10 3 0 8 -4 11 -10z m-50 -63 c11 -11 10 -15 -6 -25 -15 -10 -17 -9 -13 3 4
8 1 15 -6 15 -6 0 -8 5 -5 10 8 13 14 13 30 -3z"/>
<path d="M3785 2100 c-20 -22 -15 -36 10 -27 8 4 15 16 15 27 0 25 -2 25 -25
0z"/>
<path d="M1318 2103 c7 -3 16 -2 19 1 4 3 -2 6 -13 5 -11 0 -14 -3 -6 -6z"/>
<path d="M3841 2084 c0 -11 3 -14 6 -6 3 7 2 16 -1 19 -3 4 -6 -2 -5 -13z"/>
<path d="M1446 2081 c-4 -5 -2 -12 3 -15 5 -4 12 -2 15 3 4 5 2 12 -3 15 -5 4
-12 2 -15 -3z"/>
<path d="M1410 2065 c0 -8 5 -15 10 -15 6 0 10 7 10 15 0 8 -4 15 -10 15 -5 0
-10 -7 -10 -15z"/>
<path d="M1314 2048 c-9 -14 24 -20 53 -10 l28 9 -38 5 c-21 2 -40 0 -43 -4z"/>
<path d="M3380 2024 c0 -8 5 -12 10 -9 6 3 10 10 10 16 0 5 -4 9 -10 9 -5 0
-10 -7 -10 -16z"/>
<path d="M1525 2000 c-3 -5 1 -10 9 -10 9 0 16 5 16 10 0 6 -4 10 -9 10 -6 0
-13 -4 -16 -10z"/>
<path d="M4035 1997 c-11 -6 -27 -12 -35 -13 -33 -5 -60 -17 -62 -28 0 -6 -1
-18 -2 -26 -1 -8 -9 -16 -20 -18 -16 -3 -18 2 -15 42 2 25 1 46 -2 46 -12 0
-28 -49 -22 -69 3 -14 0 -23 -11 -27 -17 -6 -23 -34 -7 -34 5 0 14 7 21 14 9
11 18 12 37 5 34 -13 46 -2 39 33 -5 24 -2 30 20 39 19 6 31 6 40 -2 8 -7 16
-10 17 -8 1 2 10 14 20 26 21 24 11 36 -18 20z"/>
<path d="M2205 1974 c-17 -11 -46 -20 -77 -23 -4 -1 -5 -8 -2 -16 4 -10 0 -15
-14 -15 -21 0 -49 -26 -38 -37 3 -3 -4 -11 -17 -17 -29 -15 -67 -91 -67 -135
0 -73 69 -167 153 -209 174 -87 372 69 336 263 -12 62 -49 129 -81 146 -10 5
-18 17 -18 26 0 9 -3 14 -6 10 -3 -3 -18 -1 -33 5 -40 16 -114 17 -136 2z"/>
<path d="M3760 1968 c0 -9 -3 -24 -6 -33 -6 -14 -2 -16 27 -11 18 3 39 0 47
-6 17 -14 37 4 29 26 -5 12 -15 15 -41 11 -26 -5 -37 -2 -45 12 -9 16 -10 16
-11 1z"/>
<path d="M4830 1965 c-8 -9 -8 -15 -2 -15 12 0 26 19 19 26 -2 2 -10 -2 -17
-11z"/>
<path d="M4093 1935 c-9 -25 2 -27 22 -5 17 18 17 20 1 20 -9 0 -19 -7 -23
-15z"/>
<path d="M1385 1929 c-4 -6 -5 -12 -2 -15 2 -3 7 2 10 11 7 17 1 20 -8 4z"/>
<path d="M1505 1930 c-3 -5 -2 -10 4 -10 5 0 13 5 16 10 3 6 2 10 -4 10 -5 0
-13 -4 -16 -10z"/>
<path d="M1541 1917 c-13 -16 -5 -27 21 -27 11 0 18 7 18 20 0 23 -22 27 -39
7z"/>
<path d="M1424 1891 c3 -5 15 -7 26 -4 28 7 25 13 -6 13 -14 0 -23 -4 -20 -9z"/>
<path d="M3580 1853 c0 -4 5 -15 10 -23 8 -13 10 -13 10 2 0 9 -4 20 -10 23
-5 3 -10 3 -10 -2z"/>
<path d="M1320 1816 c0 -19 5 -38 10 -41 6 -4 10 10 10 34 0 23 -4 41 -10 41
-5 0 -10 -15 -10 -34z"/>
<path d="M1457 1822 c-10 -10 -17 -25 -17 -33 0 -8 -5 -20 -12 -27 -8 -8 -8
-12 -1 -12 17 0 38 31 35 52 -2 11 3 18 12 18 9 0 16 5 16 10 0 16 -15 12 -33
-8z"/>
<path d="M1514 1810 c-4 -16 -13 -30 -20 -30 -8 0 -14 -6 -14 -13 0 -16 30
-19 47 -5 7 6 10 14 7 20 -3 5 0 15 6 23 6 8 9 19 5 25 -12 19 -25 10 -31 -20z"/>
<path d="M4077 1833 c-11 -10 -8 -43 3 -43 6 0 10 11 10 25 0 26 -2 29 -13 18z"/>
<path d="M3953 1823 c-18 -6 -16 -23 1 -23 17 0 30 16 19 23 -5 2 -14 2 -20 0z"/>
<path d="M3595 1800 c-9 -14 4 -52 16 -45 12 8 12 42 0 50 -5 3 -12 1 -16 -5z"/>
<path d="M1358 1763 c-16 -4 -33 -32 -25 -40 6 -5 67 31 67 40 0 7 -14 8 -42
0z"/>
<path d="M4055 1740 c-3 -5 -1 -10 4 -10 6 0 11 5 11 10 0 6 -2 10 -4 10 -3 0
-8 -4 -11 -10z"/>
<path d="M1481 1694 c-17 -25 -31 -53 -31 -63 0 -10 -7 -24 -15 -31 -22 -18
-18 -30 8 -30 25 1 64 26 54 36 -4 4 -13 1 -22 -6 -28 -24 -17 14 13 40 15 14
27 32 28 40 1 8 4 25 8 38 12 37 -11 25 -43 -24z"/>
<path d="M4000 1730 c-8 -5 -10 -15 -6 -26 5 -12 0 -23 -15 -35 -14 -10 -23
-29 -24 -52 -3 -32 -1 -36 18 -33 25 3 36 26 13 26 -23 0 -20 17 4 23 19 5 42
44 45 79 3 20 -16 30 -35 18z"/>
<path d="M1400 1700 c0 -5 7 -10 15 -10 8 0 15 5 15 10 0 6 -7 10 -15 10 -8 0
-15 -4 -15 -10z"/>
<path d="M1240 1688 c0 -9 5 -20 10 -23 13 -8 13 5 0 25 -8 13 -10 13 -10 -2z"/>
<path d="M1406 1664 c-22 -20 -26 -28 -16 -34 17 -11 37 -3 44 18 3 9 9 23 12
30 9 20 -9 13 -40 -14z"/>
<path d="M1335 1635 c0 -14 6 -25 13 -25 7 0 11 4 7 9 -3 5 -1 12 5 16 16 10
12 25 -7 25 -12 0 -18 -8 -18 -25z"/>
<path d="M3521 1633 c-6 -13 -11 -32 -10 -41 0 -10 6 -4 15 15 16 38 34 51 34
26 0 -15 2 -16 10 -3 14 22 12 26 -14 26 -16 0 -28 -8 -35 -23z"/>
<path d="M3315 1620 c-3 -5 -1 -10 4 -10 6 0 11 5 11 10 0 6 -2 10 -4 10 -3 0
-8 -4 -11 -10z"/>
<path d="M3485 1621 c-3 -5 -1 -12 4 -15 5 -3 11 1 15 9 6 16 -9 21 -19 6z"/>
<path d="M1360 1576 c0 -15 24 -28 34 -19 5 6 -18 33 -28 33 -3 0 -6 -6 -6
-14z"/>
<path d="M3526 1573 c-6 -14 -5 -15 5 -6 7 7 10 15 7 18 -3 3 -9 -2 -12 -12z"/>
<path d="M3356 1557 l-29 -23 31 -13 c34 -14 48 -14 44 0 -4 16 29 23 39 8 8
-12 10 -12 18 1 6 8 13 11 17 7 8 -8 34 11 34 24 0 5 -7 9 -16 9 -11 0 -14 -6
-10 -17 4 -13 1 -12 -13 5 -11 12 -21 17 -23 12 -2 -6 -15 -13 -30 -15 -22 -4
-26 -2 -22 10 9 22 -7 18 -40 -8z"/>
<path d="M4078 1563 c-10 -2 -18 -9 -18 -14 0 -15 43 -7 48 9 4 12 0 13 -30 5z"/>
<path d="M3580 1550 c0 -5 5 -10 11 -10 5 0 7 5 4 10 -3 6 -8 10 -11 10 -2 0
-4 -4 -4 -10z"/>
<path d="M4005 1549 c-4 -6 -5 -13 -2 -16 7 -7 27 6 27 18 0 12 -17 12 -25 -2z"/>
<path d="M3435 1501 c-3 -6 -1 -20 5 -31 8 -15 8 -25 1 -34 -6 -7 -8 -15 -6
-18 7 -7 -54 0 -66 7 -5 4 -9 3 -9 -2 -1 -4 -3 -32 -6 -61 l-6 -52 41 5 c44 5
44 3 14 -55 -7 -14 -13 -28 -13 -32 0 -16 -39 -47 -46 -37 -3 6 -12 -2 -20
-17 -17 -32 -11 -43 12 -24 13 12 17 11 24 0 5 -8 12 -11 16 -7 4 4 13 -1 21
-11 8 -9 12 -11 8 -4 -3 6 -2 12 3 12 5 0 10 11 10 25 0 25 -1 25 -21 8 -15
-13 -18 -14 -13 -3 3 8 9 23 12 33 4 10 13 16 21 13 8 -3 11 -1 8 4 -3 5 -1
18 5 27 8 14 10 14 9 3 -5 -49 3 -53 23 -12 11 23 26 42 34 42 16 0 19 -26 4
-33 -6 -3 -5 -4 2 -3 7 2 13 11 13 22 0 10 5 23 10 27 6 4 -3 5 -20 2 -26 -5
-27 -5 -11 6 13 8 15 13 6 19 -8 5 -2 10 15 14 20 5 31 2 42 -11 13 -16 13
-16 3 5 -10 21 -17 23 -46 17 -29 -5 -34 -3 -34 14 0 11 5 23 10 26 6 4 7 11
4 17 -4 6 -1 14 6 18 6 4 13 21 14 38 2 28 0 29 -22 21 -30 -12 -52 -12 -34 0
10 6 10 10 -2 20 -9 8 -16 9 -21 2z m65 -46 c0 -3 -8 -18 -17 -32 -26 -39 -45
-97 -28 -83 10 8 15 8 21 -1 4 -7 3 -14 -3 -16 -6 -2 -9 -12 -6 -22 3 -11 -2
-21 -11 -24 -14 -6 -21 4 -17 25 3 20 -20 59 -31 52 -6 -4 -3 4 8 18 10 14 22
24 26 22 4 -2 12 12 19 31 7 19 19 35 26 35 7 0 13 -2 13 -5z m-80 -69 c0 -11
-19 -15 -25 -6 -3 5 1 10 9 10 9 0 16 -2 16 -4z"/>
<path d="M3370 1489 c0 -5 5 -7 10 -4 6 3 10 8 10 11 0 2 -4 4 -10 4 -5 0 -10
-5 -10 -11z"/>
<path d="M3561 1484 c0 -11 -8 -29 -16 -40 -16 -21 -19 -34 -7 -34 12 0 34 58
29 77 -4 15 -5 15 -6 -3z"/>
<path d="M1350 1480 c0 -5 7 -7 15 -4 8 4 15 8 15 10 0 2 -7 4 -15 4 -8 0 -15
-4 -15 -10z"/>
<path d="M4077 1483 c-10 -9 -8 -43 2 -43 5 0 16 11 25 25 16 24 15 25 -2 25
-10 0 -22 -3 -25 -7z"/>
<path d="M2780 1460 c0 -5 5 -10 10 -10 6 0 10 5 10 10 0 6 -4 10 -10 10 -5 0
-10 -4 -10 -10z"/>
<path d="M3360 1461 c0 -6 4 -13 10 -16 6 -3 7 1 4 9 -7 18 -14 21 -14 7z"/>
<path d="M4120 1454 c0 -9 5 -14 12 -12 18 6 21 28 4 28 -9 0 -16 -7 -16 -16z"/>
<path d="M2588 1437 c-33 -8 -38 -13 -38 -39 0 -19 -8 -37 -22 -49 -26 -21
-12 -26 15 -5 23 18 57 9 57 -15 0 -11 5 -19 10 -19 6 0 8 11 6 25 -5 28 -6
28 26 16 32 -12 66 10 44 29 -9 7 -24 9 -37 5 -18 -6 -21 -4 -16 9 4 9 3 24
-1 34 -6 15 -13 17 -44 9z"/>
<path d="M2090 1425 c0 -8 2 -15 4 -15 2 0 6 7 10 15 3 8 1 15 -4 15 -6 0 -10
-7 -10 -15z"/>
<path d="M2660 1410 c0 -5 5 -10 11 -10 5 0 7 5 4 10 -3 6 -8 10 -11 10 -2 0
-4 -4 -4 -10z"/>
<path d="M3236 1395 c-11 -8 -16 -15 -10 -15 5 0 18 7 28 15 11 8 16 15 10 15
-5 0 -18 -7 -28 -15z"/>
<path d="M4670 1406 c0 -2 6 -9 14 -15 10 -9 15 -8 19 2 3 8 -3 13 -14 14 -10
1 -19 0 -19 -1z"/>
<path d="M4030 1396 c0 -2 7 -7 16 -10 8 -3 12 -2 9 4 -6 10 -25 14 -25 6z"/>
<path d="M1307 1374 c-9 -10 4 -34 19 -34 16 0 16 2 8 24 -6 17 -16 20 -27 10z"/>
<path d="M1375 1370 c3 -5 8 -10 11 -10 2 0 4 5 4 10 0 6 -5 10 -11 10 -5 0
-7 -4 -4 -10z"/>
<path d="M3980 1370 c-22 -14 -1 -42 33 -46 15 -1 36 -5 47 -9 28 -9 25 10 -7
40 -29 27 -49 31 -73 15z"/>
<path d="M2440 1331 c0 -5 5 -13 10 -16 6 -3 10 -2 10 4 0 5 -4 13 -10 16 -5
3 -10 2 -10 -4z"/>
<path d="M1448 1319 c-24 -13 -23 -29 2 -29 13 0 20 7 20 20 0 23 1 23 -22 9z"/>
<path d="M1300 1299 c0 -5 5 -7 10 -4 6 3 10 8 10 11 0 2 -4 4 -10 4 -5 0 -10
-5 -10 -11z"/>
<path d="M1491 1281 c-7 -12 -8 -21 -2 -21 5 0 12 -16 15 -35 10 -51 23 -43
20 11 -3 56 -17 75 -33 45z"/>
<path d="M2790 1291 c0 -5 5 -13 10 -16 6 -3 10 -2 10 4 0 5 -4 13 -10 16 -5
3 -10 2 -10 -4z"/>
<path d="M1587 1263 c-8 -16 -14 -50 -13 -77 2 -41 6 -51 24 -57 18 -7 21 -14
16 -33 -7 -28 8 -40 36 -31 24 7 27 35 4 35 -10 0 -13 6 -10 18 8 25 -17 165
-31 169 -7 3 -18 -8 -26 -24z"/>
<path d="M2490 1279 c0 -5 5 -7 10 -4 6 3 10 8 10 11 0 2 -4 4 -10 4 -5 0 -10
-5 -10 -11z"/>
<path d="M4109 1278 c-1 -5 -2 -11 -3 -15 -1 -5 -5 -13 -9 -20 -11 -17 7 -24
27 -10 15 11 15 14 2 32 -9 11 -16 17 -17 13z"/>
<path d="M3320 1230 c0 -5 5 -10 11 -10 5 0 7 5 4 10 -3 6 -8 10 -11 10 -2 0
-4 -4 -4 -10z"/>
<path d="M1435 1210 c-3 -5 1 -10 9 -10 8 0 18 5 21 10 3 6 -1 10 -9 10 -8 0
-18 -4 -21 -10z"/>
<path d="M4833 1209 c9 -6 14 -15 11 -21 -4 -7 -2 -8 5 -4 14 9 -3 36 -23 36
-6 0 -3 -5 7 -11z"/>
<path d="M4116 1201 c-4 -5 -3 -16 0 -24 3 -8 1 -18 -5 -22 -6 -3 -11 -1 -11
5 0 6 -5 8 -11 4 -8 -4 -7 -9 2 -15 8 -5 17 -9 20 -9 7 0 29 46 29 60 0 13
-17 13 -24 1z"/>
<path d="M3273 1180 c-10 -11 -24 -20 -32 -20 -12 0 -12 -3 -3 -12 9 -9 15
-10 20 -2 4 6 17 16 30 23 12 6 22 16 22 21 0 16 -19 11 -37 -10z"/>
<path d="M4805 1181 c-6 -11 9 -23 19 -14 9 9 7 23 -3 23 -6 0 -12 -4 -16 -9z"/>
<path d="M1490 1110 c0 -23 -4 -30 -20 -30 -22 0 -27 -15 -8 -26 6 -4 20 5 32
21 25 35 28 52 10 59 -10 4 -14 -3 -14 -24z"/>
<path d="M1415 1120 c3 -5 8 -10 11 -10 2 0 4 5 4 10 0 6 -5 10 -11 10 -5 0
-7 -4 -4 -10z"/>
<path d="M3330 1100 c0 -19 3 -21 12 -12 9 9 9 15 0 24 -9 9 -12 7 -12 -12z"/>
<path d="M3396 1061 c-3 -4 -24 -6 -47 -4 -35 4 -39 2 -28 -10 8 -8 20 -12 27
-9 8 2 23 6 35 7 35 4 37 5 37 15 0 12 -17 13 -24 1z"/>
<path d="M3290 1040 c0 -5 5 -10 11 -10 5 0 7 5 4 10 -3 6 -8 10 -11 10 -2 0
-4 -4 -4 -10z"/>
<path d="M1661 1014 c-27 -34 -27 -48 -1 -34 24 13 41 5 34 -14 -6 -17 23 -29
32 -14 4 7 2 14 -4 16 -7 2 -12 13 -12 24 0 10 -6 26 -14 34 -13 12 -17 10
-35 -12z"/>
<path d="M3180 1016 c0 -15 18 -31 26 -23 7 7 -7 37 -17 37 -5 0 -9 -6 -9 -14z"/>
<path d="M3280 994 c0 -14 2 -15 17 -3 9 8 14 9 10 3 -10 -16 25 -28 35 -12
14 23 9 28 -27 28 -26 0 -35 -4 -35 -16z"/>
<path d="M3365 990 c-3 -5 1 -10 9 -10 9 0 16 5 16 10 0 6 -4 10 -9 10 -6 0
-13 -4 -16 -10z"/>
<path d="M4520 976 c0 -2 7 -6 15 -10 8 -3 15 -1 15 4 0 6 -7 10 -15 10 -8 0
-15 -2 -15 -4z"/>
<path d="M3252 963 c-19 -4 -22 -9 -18 -33 4 -29 36 -84 36 -63 0 7 -4 14 -9
18 -5 3 -8 18 -7 33 2 20 9 27 25 28 21 1 21 1 4 -19 -10 -11 -13 -17 -6 -14
6 4 13 2 15 -4 2 -6 9 5 15 25 12 39 8 41 -55 29z"/>
<path d="M1897 953 c-10 -9 -9 -23 2 -23 5 0 11 7 15 15 5 15 -5 20 -17 8z"/>
<path d="M1961 944 c0 -11 3 -14 6 -6 3 7 2 16 -1 19 -3 4 -6 -2 -5 -13z"/>
<path d="M3182 938 c6 -17 38 -23 38 -8 0 6 -4 8 -10 5 -5 -3 -10 -1 -10 4 0
6 -5 11 -11 11 -6 0 -9 -6 -7 -12z"/>
<path d="M3345 940 c4 -6 11 -8 16 -5 14 9 11 15 -7 15 -8 0 -12 -5 -9 -10z"/>
<path d="M1700 910 c0 -18 4 -20 23 -14 12 3 24 8 26 10 6 6 -1 11 -26 18 -19
6 -23 4 -23 -14z"/>
<path d="M2755 910 c-3 -5 -1 -10 4 -10 6 0 11 5 11 10 0 6 -2 10 -4 10 -3 0
-8 -4 -11 -10z"/>
<path d="M3023 900 c-1 -11 2 -20 7 -20 10 0 20 26 13 34 -12 11 -19 6 -20
-14z"/>
<path d="M3190 900 c0 -5 -6 -7 -14 -4 -8 3 -17 1 -20 -4 -6 -11 33 -24 46
-16 11 7 10 34 -2 34 -5 0 -10 -4 -10 -10z"/>
<path d="M2815 890 c3 -5 8 -10 11 -10 2 0 4 5 4 10 0 6 -5 10 -11 10 -5 0 -7
-4 -4 -10z"/>
<path d="M1620 874 c0 -17 22 -14 28 4 2 7 -3 12 -12 12 -9 0 -16 -7 -16 -16z"/>
<path d="M1741 881 c-7 -5 -11 -13 -7 -19 8 -14 46 -3 46 14 0 16 -18 18 -39
5z"/>
<path d="M3211 872 c-7 -13 -11 -26 -8 -28 8 -8 29 25 25 38 -3 8 -9 4 -17
-10z"/>
<path d="M3089 836 c-15 -32 -5 -56 21 -56 16 0 20 4 15 19 -3 11 -1 22 5 26
5 3 10 1 10 -4 0 -20 28 -11 33 10 5 17 1 20 -21 18 -15 -2 -33 0 -39 4 -9 5
-17 -1 -24 -17z"/>
<path d="M3250 841 c0 -6 5 -13 10 -16 6 -3 10 1 10 9 0 9 -4 16 -10 16 -5 0
-10 -4 -10 -9z"/>
<path d="M1683 818 c-6 -13 -14 -31 -17 -40 -3 -10 -14 -18 -24 -18 -24 0 -32
-8 -25 -26 4 -11 9 -10 29 2 13 9 31 14 39 10 9 -3 15 0 15 8 0 8 9 16 20 19
11 3 20 11 20 18 0 10 -3 10 -12 1 -23 -23 -41 -14 -34 18 7 36 3 38 -11 8z"/>
<path d="M1955 830 c3 -5 8 -10 11 -10 2 0 4 5 4 10 0 6 -5 10 -11 10 -5 0 -7
-4 -4 -10z"/>
<path d="M3021 827 c-6 -6 -17 -12 -24 -12 -7 0 -11 -12 -9 -30 5 -37 9 -42
24 -27 9 9 9 12 0 12 -7 0 -12 7 -12 15 0 8 6 12 14 9 9 -3 17 3 21 16 8 26 3
34 -14 17z"/>
<path d="M1554 816 c-18 -14 -18 -15 -1 -21 24 -10 48 1 41 20 -8 19 -15 19
-40 1z"/>
<path d="M1776 814 c-5 -14 -4 -15 9 -4 17 14 19 20 6 20 -5 0 -12 -7 -15 -16z"/>
<path d="M2060 810 c0 -19 3 -21 12 -12 9 9 9 15 0 24 -9 9 -12 7 -12 -12z"/>
<path d="M1801 799 c-37 -31 -53 -65 -35 -80 11 -9 14 -7 14 15 0 17 5 26 16
26 12 0 14 -7 10 -27 -6 -30 8 -63 21 -50 4 5 1 12 -7 17 -12 7 -12 12 3 28 9
10 17 24 17 31 0 8 8 11 20 8 28 -7 25 12 -4 23 -13 5 -25 13 -27 19 -2 5 -15
1 -28 -10z"/>
<path d="M1990 800 c0 -5 5 -10 10 -10 6 0 10 5 10 10 0 6 -4 10 -10 10 -5 0
-10 -4 -10 -10z"/>
<path d="M2820 789 c0 -5 5 -7 10 -4 6 3 10 8 10 11 0 2 -4 4 -10 4 -5 0 -10
-5 -10 -11z"/>
<path d="M2850 790 c0 -5 5 -10 11 -10 5 0 7 5 4 10 -3 6 -8 10 -11 10 -2 0
-4 -4 -4 -10z"/>
<path d="M2741 780 c-19 -11 5 -23 25 -12 14 8 14 10 2 15 -8 3 -21 2 -27 -3z"/>
<path d="M2924 781 c3 -4 -7 -6 -22 -4 -18 3 -23 2 -14 -5 7 -5 10 -16 6 -25
-3 -10 -1 -17 5 -17 16 0 13 -27 -4 -34 -8 -3 -15 -11 -15 -18 0 -6 14 1 30
17 17 16 30 35 30 43 0 8 6 12 15 8 8 -3 15 -1 15 4 0 6 -7 10 -15 10 -8 0
-15 7 -15 15 0 8 -5 15 -11 15 -5 0 -8 -4 -5 -9z m11 -31 c-3 -5 -10 -10 -16
-10 -5 0 -9 5 -9 10 0 6 7 10 16 10 8 0 12 -4 9 -10z"/>
<path d="M2125 770 c3 -5 8 -10 11 -10 2 0 4 5 4 10 0 6 -5 10 -11 10 -5 0 -7
-4 -4 -10z"/>
<path d="M3050 760 c-16 -12 -20 -20 -10 -20 11 0 11 -3 2 -12 -15 -15 -16
-38 0 -38 6 0 8 3 5 7 -10 9 23 43 42 44 9 0 11 3 4 5 -7 3 -9 12 -6 20 7 19
-7 17 -37 -6z"/>
<path d="M2040 755 c0 -8 2 -15 4 -15 2 0 6 7 10 15 3 8 1 15 -4 15 -6 0 -10
-7 -10 -15z"/>
<path d="M2817 754 c-4 -4 -2 -13 5 -21 8 -11 7 -12 -6 -7 -9 3 -16 1 -16 -5
0 -6 4 -11 9 -11 5 0 8 -11 5 -25 -3 -18 0 -25 11 -25 16 0 16 -1 19 52 2 20
-1 35 -5 33 -4 -3 -9 0 -11 6 -2 5 -7 7 -11 3z"/>
<path d="M1863 734 c-7 -18 17 -38 31 -24 11 11 1 40 -14 40 -6 0 -13 -7 -17
-16z"/>
<path d="M2177 730 c-20 -24 -22 -43 -4 -37 6 2 12 8 12 13 0 5 4 15 9 22 13
22 1 23 -17 2z"/>
<path d="M2211 723 c0 -16 3 -22 6 -13 3 8 10 21 16 28 7 8 5 12 -7 12 -11 0
-16 -8 -15 -27z"/>
<path d="M2865 740 c-3 -5 -1 -10 4 -10 6 0 11 5 11 10 0 6 -2 10 -4 10 -3 0
-8 -4 -11 -10z"/>
<path d="M2963 705 c-7 -8 -13 -24 -13 -37 1 -23 1 -23 16 -3 8 11 20 19 25
18 11 -3 11 0 3 21 -7 19 -15 20 -31 1z"/>
<path d="M1899 703 c-5 -40 -4 -113 2 -113 3 0 12 14 19 30 13 31 24 37 35 20
11 -18 25 -10 25 14 0 23 -23 41 -40 31 -4 -3 -10 2 -14 10 -6 15 -25 21 -27
8z"/>
<path d="M2130 699 c0 -5 5 -7 10 -4 6 3 10 8 10 11 0 2 -4 4 -10 4 -5 0 -10
-5 -10 -11z"/>
<path d="M2300 688 c0 -26 29 -74 30 -49 0 8 8 20 18 28 12 11 13 13 2 10 -8
-2 -23 5 -32 16 -18 20 -18 20 -18 -5z"/>
<path d="M1706 684 c-9 -22 -8 -24 9 -24 8 0 15 6 15 14 0 22 -17 28 -24 10z"/>
<path d="M2630 679 c-10 -18 -9 -20 7 -17 10 2 19 11 21 21 5 24 -15 21 -28
-4z"/>
<path d="M2721 689 c-20 -8 -21 -12 -10 -25 12 -14 14 -14 27 3 12 17 14 17
23 1 11 -20 39 -13 39 9 0 10 -6 12 -20 8 -11 -4 -20 -2 -20 4 0 13 -7 13 -39
0z"/>
<path d="M2425 679 c-12 -6 -28 -27 -37 -47 -16 -37 -16 -37 13 -63 16 -14 29
-31 29 -38 0 -15 22 -10 28 7 2 6 -8 17 -22 23 -14 7 -26 19 -26 27 0 8 -6 12
-14 9 -11 -4 -9 4 6 32 18 33 23 37 51 33 29 -5 31 -3 18 12 -15 18 -18 18
-46 5z"/>
<path d="M2600 679 c0 -5 5 -7 10 -4 6 3 10 8 10 11 0 2 -4 4 -10 4 -5 0 -10
-5 -10 -11z"/>
<path d="M1853 660 c-1 -11 2 -20 8 -20 5 0 9 9 9 20 0 11 -4 20 -8 20 -4 0
-8 -9 -9 -20z"/>
<path d="M2132 664 c-7 -8 -8 -14 -3 -14 10 0 25 19 20 25 -2 1 -10 -3 -17
-11z"/>
<path d="M2850 655 c-11 -13 -10 -14 4 -9 9 3 16 10 16 15 0 13 -6 11 -20 -6z"/>
<path d="M1790 649 c0 -5 5 -7 10 -4 6 3 10 8 10 11 0 2 -4 4 -10 4 -5 0 -10
-5 -10 -11z"/>
<path d="M2355 640 c3 -5 10 -10 16 -10 5 0 9 5 9 10 0 6 -7 10 -16 10 -8 0
-12 -4 -9 -10z"/>
<path d="M2580 641 c0 -4 -11 -7 -25 -5 -25 2 -52 -26 -38 -39 3 -4 -2 -9 -11
-13 -21 -8 -21 -30 0 -38 25 -9 34 2 27 35 -5 25 -3 28 12 22 14 -5 17 -3 12
10 -9 23 10 22 22 -1 7 -13 6 -23 -2 -32 -9 -10 -9 -12 3 -8 8 3 16 14 18 26
2 11 15 25 30 31 21 9 22 10 5 7 -13 -2 -26 0 -29 5 -7 11 -24 12 -24 0z"/>
<path d="M2780 640 c0 -5 5 -10 11 -10 5 0 8 -4 5 -8 -2 -4 -1 -14 5 -22 7
-13 9 -12 9 3 0 9 6 17 13 17 7 0 4 7 -7 15 -23 17 -36 19 -36 5z"/>
<path d="M2246 625 c-3 -9 -6 -22 -5 -28 0 -7 5 -1 10 12 5 13 8 26 5 28 -2 2
-6 -3 -10 -12z"/>
<path d="M2672 626 c-32 -18 -35 -23 -14 -23 9 0 23 4 30 10 8 6 17 6 26 -2 9
-8 16 -8 20 -2 4 6 -2 15 -13 20 -23 13 -19 13 -49 -3z"/>
<path d="M2855 622 c-3 -8 -3 -17 0 -20 3 -3 5 0 5 6 0 6 10 12 23 14 l22 3
-22 7 c-15 4 -24 1 -28 -10z"/>
<path d="M2270 627 c0 -2 9 -14 20 -27 11 -13 20 -20 20 -16 0 4 7 0 16 -8 8
-9 20 -16 25 -16 16 0 10 20 -8 27 -10 3 -26 14 -36 25 -16 16 -37 24 -37 15z"/>
<path d="M2425 616 c-8 -18 10 -39 29 -33 17 5 18 27 3 27 -9 0 -17 6 -20 13
-3 8 -7 6 -12 -7z"/>
<path d="M1920 570 c0 -5 4 -10 9 -10 6 0 13 5 16 10 3 6 -1 10 -9 10 -9 0
-16 -4 -16 -10z"/>
<path d="M3702 559 c-7 -11 -11 -24 -8 -27 10 -9 28 15 24 32 -2 14 -5 13 -16
-5z"/>
<path d="M2405 530 c3 -5 8 -10 11 -10 2 0 4 5 4 10 0 6 -5 10 -11 10 -5 0 -7
-4 -4 -10z"/>
<path d="M1945 490 c-8 -13 4 -32 16 -25 12 8 12 35 0 35 -6 0 -13 -4 -16 -10z"/>
<path d="M3554 468 c-14 -23 -11 -48 5 -46 16 3 29 22 30 46 1 16 -25 16 -35
0z"/>
<path d="M4225 465 c-17 -13 -18 -16 -5 -25 8 -5 18 -10 22 -10 13 0 19 20 11
35 -8 13 -11 14 -28 0z"/>
<path d="M2095 440 c3 -5 8 -10 11 -10 2 0 4 5 4 10 0 6 -5 10 -11 10 -5 0 -7
-4 -4 -10z"/>
<path d="M3618 444 c-3 -3 -4 -14 -1 -25 4 -15 9 -17 19 -8 7 6 10 17 7 25 -5
15 -16 18 -25 8z"/>
<path d="M4108 443 c-11 -3 -17 -13 -16 -27 2 -18 8 -23 33 -23 23 0 31 5 32
19 2 21 -24 36 -49 31z"/>
<path d="M3474 429 c-11 -18 11 -32 25 -16 9 12 8 16 -3 20 -9 4 -18 1 -22 -4z"/>
<path d="M2015 400 c3 -5 8 -10 11 -10 2 0 4 5 4 10 0 6 -5 10 -11 10 -5 0 -7
-4 -4 -10z"/>
<path d="M3446 385 c-3 -8 -1 -15 4 -15 13 0 22 18 11 24 -5 3 -11 -1 -15 -9z"/>
<path d="M2381 367 c-6 -8 -8 -16 -5 -20 10 -9 34 4 34 19 0 18 -14 18 -29 1z"/>
<path d="M2724 304 c-21 -9 -3 -44 22 -44 43 0 18 -51 -31 -63 -18 -4 -18 -5
3 -6 12 0 25 -8 28 -16 10 -25 21 -17 22 15 0 17 8 37 16 45 14 14 13 18 -4
35 -11 11 -20 25 -20 30 0 10 -16 12 -36 4z"/>
<path d="M3424 285 c-4 -8 -10 -12 -15 -9 -16 10 -9 -3 9 -17 9 -7 14 -10 10
-5 -4 5 3 17 15 27 19 16 20 18 4 19 -10 0 -20 -7 -23 -15z"/>
<path d="M3185 280 c3 -5 8 -10 11 -10 2 0 4 5 4 10 0 6 -5 10 -11 10 -5 0 -7
-4 -4 -10z"/>
<path d="M2485 244 c-16 -24 -16 -26 2 -40 25 -19 40 -17 46 6 3 11 0 18 -7
17 -6 -1 -10 8 -9 21 4 29 -11 28 -32 -4z"/>
<path d="M2577 245 c-3 -7 -3 -15 0 -18 7 -7 33 3 33 13 0 14 -28 19 -33 5z"/>
<path d="M2928 255 c-8 -8 2 -45 12 -45 5 0 11 6 13 13 4 9 8 9 15 -2 5 -7 15
-10 21 -7 15 10 14 36 -1 36 -7 0 -22 3 -33 6 -11 3 -23 2 -27 -1z"/>
<path d="M2621 243 c-1 -6 5 -15 11 -19 20 -13 48 -12 48 2 0 17 -32 27 -40
13 -6 -8 -9 -7 -13 2 -3 9 -6 10 -6 2z"/>
<path d="M3052 226 c-8 -18 -6 -25 9 -34 12 -8 19 -8 20 -2 1 5 2 16 3 23 1 6
7 11 14 10 7 -2 12 3 12 11 0 23 -47 16 -58 -8z"/>
<path d="M3145 240 c-4 -6 5 -10 19 -10 14 0 26 5 26 10 0 6 -9 10 -19 10 -11
0 -23 -4 -26 -10z"/>
<path d="M2382 221 c-10 -6 -10 -14 -2 -36 13 -35 32 -21 22 17 -5 19 -11 25
-20 19z"/>
<path d="M2556 213 c-11 -11 -6 -23 9 -23 8 0 15 4 15 9 0 13 -16 22 -24 14z"/>
<path d="M2337 153 c-4 -3 -7 -13 -7 -20 0 -10 7 -12 23 -7 31 9 34 14 17 24
-18 12 -25 12 -33 3z"/>
<path d="M4400 121 c0 -6 4 -12 8 -15 5 -3 9 1 9 9 0 8 -4 15 -9 15 -4 0 -8
-4 -8 -9z"/>
</g>
</svg>
