<?xml version="1.0" standalone="no"?>
<!--
  - safari-pinned-tab.svg
  - Copyright (c) 2022 james@firefly-iii.org
  -
  - This file is part of Firefly III (https://github.com/firefly-iii).
  -
  - This program is free software: you can redistribute it and/or modify
  - it under the terms of the GNU Affero General Public License as
  - published by the Free Software Foundation, either version 3 of the
  - License, or (at your option) any later version.
  -
  - This program is distributed in the hope that it will be useful,
  - but WITHOUT ANY WARRANTY; without even the implied warranty of
  - MERCHANTABILITY or FITNESS FOR A PARTICULAR PURPOSE.  See the
  - GNU Affero General Public License for more details.
  -
  - You should have received a copy of the GNU Affero General Public License
  - along with this program.  If not, see <https://www.gnu.org/licenses/>.
  -->

<!DOCTYPE svg PUBLIC "-//W3C//DTD SVG 20010904//EN"
 "http://www.w3.org/TR/2001/REC-SVG-20010904/DTD/svg10.dtd">
<svg version="1.0" xmlns="http://www.w3.org/2000/svg"
 width="512.000000pt" height="512.000000pt" viewBox="0 0 512.000000 512.000000"
 preserveAspectRatio="xMidYMid meet">
<metadata>
Created by potrace 1.14, written by Peter Selinger 2001-2017
</metadata>
<g transform="translate(0.000000,512.000000) scale(0.100000,-0.100000)"
fill="#000000" stroke="none">
<path d="M1782 3997 c-8 -9 -7 -92 0 -280 l11 -268 -54 -46 c-200 -171 -361
-405 -407 -594 l-18 -74 -95 -10 c-101 -12 -121 -19 -159 -60 -25 -26 -25 -27
-28 -252 -3 -250 -1 -264 55 -313 33 -29 36 -30 139 -30 l105 0 11 -32 c53
-152 188 -347 308 -445 l70 -57 0 -152 0 -152 30 -26 c17 -14 49 -30 72 -36
101 -28 350 -39 449 -20 64 12 109 50 109 92 0 15 5 28 11 28 5 0 7 -5 3 -12
-4 -6 -3 -8 3 -5 5 4 66 2 134 -2 115 -8 430 2 472 15 13 4 17 -1 17 -24 0
-49 47 -75 165 -92 146 -20 363 -5 440 31 73 35 85 64 85 214 l0 128 54 66
c153 189 262 423 302 651 19 114 17 451 -3 471 -17 17 -188 17 -235 1 -22 -8
-38 -20 -38 -29 0 -8 18 -36 41 -61 64 -73 99 -150 99 -219 0 -139 -102 -239
-250 -246 -65 -3 -156 44 -195 101 -26 37 -30 55 -33 121 -3 66 1 91 28 171
30 90 30 95 13 108 -30 23 -152 11 -206 -21 -61 -36 -143 -128 -180 -204 -36
-73 -57 -71 -57 6 0 108 53 225 137 301 89 82 188 103 356 75 l105 -17 64 25
c82 33 166 46 251 40 64 -6 67 -5 67 16 0 33 -56 162 -99 228 -91 140 -256
296 -389 366 -225 118 -538 177 -872 163 -85 -3 -164 -9 -175 -11 -15 -5 -26
4 -48 38 -98 157 -294 302 -455 336 -73 15 -197 14 -210 -2z m869 -1298 c104
-66 196 -190 219 -296 26 -116 29 -121 75 -149 99 -57 149 -154 125 -238 -15
-53 -7 -83 40 -151 60 -87 56 -173 -12 -293 -54 -94 -127 -160 -236 -214 -76
-38 -89 -42 -165 -42 -91 -1 -125 9 -202 62 -27 19 -91 53 -142 77 -140 65
-169 123 -144 289 11 70 11 87 -3 125 -30 83 -22 123 52 239 l47 74 20 -43
c31 -67 74 -129 90 -129 7 0 26 10 40 23 35 30 35 77 1 137 -19 33 -26 59 -26
98 0 65 15 101 72 175 57 71 72 124 66 222 -5 73 -4 75 16 69 12 -3 42 -19 67
-35z m-869 -48 c27 -24 33 -36 33 -71 0 -35 -6 -47 -33 -71 -42 -37 -89 -39
-130 -4 -35 29 -47 70 -33 107 27 72 105 91 163 39z m1279 -318 c-12 -20 -14
-14 -5 12 4 9 9 14 11 11 3 -2 0 -13 -6 -23z"/>
<path d="M3629 2536 c-25 -57 -41 -143 -33 -179 23 -106 184 -80 184 30 0 55
-86 193 -121 193 -6 0 -19 -20 -30 -44z"/>
</g>
</svg>
